STARTFONT 2.1
COMMENT
COMMENT Converted from OpenType font "Q:\font stuff\winfont\seguisym.ttf" by "otf2bdf 3.0".
COMMENT
FONT -FreeType-Segoe UI Symbol-Medium-R-Normal--34-340-72-72-P-181-ISO10646-1
SIZE 34 72 72
FONTBOUNDINGBOX 66 41 -13 -9
STARTPROPERTIES 19
FOUNDRY "FreeType"
FAMILY_NAME "Segoe UI Symbol"
WEIGHT_NAME "Medium"
SLANT "R"
SETWIDTH_NAME "Normal"
ADD_STYLE_NAME ""
PIXEL_SIZE 34
POINT_SIZE 340
RESOLUTION_X 72
RESOLUTION_Y 72
SPACING "P"
AVERAGE_WIDTH 181
CHARSET_REGISTRY "ISO10646"
CHARSET_ENCODING "1"
FONT_ASCENT 36
FONT_DESCENT 8
COPYRIGHT "© 2009 Microsoft Corporation. All Rights Reserved."
_OTF_FONTFILE "Q:\font stuff\winfont\seguisym.ttf"
_OTF_PSNAME "SegoeUISymbol"
ENDPROPERTIES
CHARS 2693
STARTCHAR 000D
ENCODING 13
SWIDTH 0 0
DWIDTH 0 0
BBX 0 0 0 0
BITMAP
ENDCHAR
STARTCHAR 0020
ENCODING 32
SWIDTH 264 0
DWIDTH 9 0
BBX 0 0 0 0
BITMAP
ENDCHAR
STARTCHAR 0021
ENCODING 33
SWIDTH 294 0
DWIDTH 10 0
BBX 4 24 3 0
BITMAP
E0
E0
E0
E0
E0
E0
E0
E0
E0
E0
E0
E0
E0
E0
E0
E0
E0
00
00
00
60
F0
F0
60
ENDCHAR
STARTCHAR 0022
ENCODING 34
SWIDTH 382 0
DWIDTH 13 0
BBX 9 7 2 17
BITMAP
E380
E380
E380
E380
E380
E380
E380
ENDCHAR
STARTCHAR 0023
ENCODING 35
SWIDTH 588 0
DWIDTH 20 0
BBX 19 22 1 2
BITMAP
00C300
00C300
018600
018600
018600
018600
038E00
7FFFE0
7FFFE0
030C00
030C00
061800
061800
FFFFC0
FFFFC0
0E3800
0C3000
0C3000
0C3000
0C3000
186000
186000
ENDCHAR
STARTCHAR 0024
ENCODING 36
SWIDTH 529 0
DWIDTH 18 0
BBX 14 30 3 -3
BITMAP
0300
0300
0300
0FF0
3FF8
7B08
7300
E300
E300
E300
E300
F300
7B00
3F00
1F00
07C0
03F0
0378
0338
031C
031C
031C
031C
8338
E378
FFF0
3FC0
0300
0300
0300
ENDCHAR
STARTCHAR 0025
ENCODING 37
SWIDTH 823 0
DWIDTH 28 0
BBX 26 24 1 0
BITMAP
1F001C00
3FC01800
71C03000
E0E07000
C0606000
C060C000
C061C000
C0618000
E0E30000
71C70000
3F860000
1F0E0000
001C3E00
00187F80
0038E380
0031C1C0
006180C0
00E180C0
00C180C0
018180C0
0381C1C0
0300E380
06007F00
0E003E00
ENDCHAR
STARTCHAR 0026
ENCODING 38
SWIDTH 794 0
DWIDTH 27 0
BBX 24 24 2 0
BITMAP
03F000
07F800
0E1C00
1C0E00
1C0E00
1C0E00
1C0E1C
1E1C1C
0E3C1C
07F01C
07C01C
1FF01C
3C3838
781C38
700E38
E00770
E003F0
E003E0
E001C0
E003E0
700760
7C1E70
1FFC3F
07E01F
ENDCHAR
STARTCHAR 0027
ENCODING 39
SWIDTH 235 0
DWIDTH 8 0
BBX 3 7 3 17
BITMAP
E0
E0
E0
E0
E0
E0
E0
ENDCHAR
STARTCHAR 0028
ENCODING 40
SWIDTH 294 0
DWIDTH 10 0
BBX 8 29 2 -5
BITMAP
03
06
0C
18
18
30
30
60
60
60
C0
C0
C0
C0
C0
C0
C0
C0
C0
60
60
60
70
30
38
18
0C
06
07
ENDCHAR
STARTCHAR 0029
ENCODING 41
SWIDTH 294 0
DWIDTH 10 0
BBX 8 29 0 -5
BITMAP
C0
60
30
18
18
0C
0C
06
06
06
03
03
03
03
03
03
03
03
03
06
06
06
0E
0C
1C
18
30
60
E0
ENDCHAR
STARTCHAR 002A
ENCODING 42
SWIDTH 411 0
DWIDTH 14 0
BBX 12 11 1 13
BITMAP
0600
0600
0600
4620
FFF0
1F80
0F00
0D80
19C0
30E0
1040
ENDCHAR
STARTCHAR 002B
ENCODING 43
SWIDTH 676 0
DWIDTH 23 0
BBX 16 16 4 2
BITMAP
0180
0180
0180
0180
0180
0180
0180
FFFF
FFFF
0180
0180
0180
0180
0180
0180
0180
ENDCHAR
STARTCHAR 002C
ENCODING 44
SWIDTH 205 0
DWIDTH 7 0
BBX 5 8 1 -4
BITMAP
38
30
70
70
60
60
E0
C0
ENDCHAR
STARTCHAR 002D
ENCODING 45
SWIDTH 411 0
DWIDTH 14 0
BBX 9 2 2 9
BITMAP
FF80
FF80
ENDCHAR
STARTCHAR 002E
ENCODING 46
SWIDTH 205 0
DWIDTH 7 0
BBX 4 4 2 0
BITMAP
60
F0
F0
60
ENDCHAR
STARTCHAR 002F
ENCODING 47
SWIDTH 382 0
DWIDTH 13 0
BBX 14 28 0 -4
BITMAP
001C
0018
0038
0038
0030
0070
0060
00E0
00E0
00C0
01C0
0180
0380
0300
0700
0700
0600
0E00
0C00
1C00
1C00
1800
3800
3000
7000
7000
6000
E000
ENDCHAR
STARTCHAR 0030
ENCODING 48
SWIDTH 529 0
DWIDTH 18 0
BBX 16 24 1 0
BITMAP
07E0
0FF8
1C3C
381C
700E
700E
700E
E007
E007
E007
E007
E007
E007
E007
E007
E007
E007
600E
700E
700E
381C
3C38
1FF0
07E0
ENDCHAR
STARTCHAR 0031
ENCODING 49
SWIDTH 529 0
DWIDTH 18 0
BBX 13 24 3 0
BITMAP
0300
1F00
FF00
FF00
8700
0700
0700
0700
0700
0700
0700
0700
0700
0700
0700
0700
0700
0700
0700
0700
0700
0700
FFF8
FFF8
ENDCHAR
STARTCHAR 0032
ENCODING 50
SWIDTH 529 0
DWIDTH 18 0
BBX 14 24 2 0
BITMAP
0FC0
3FF0
7078
6038
001C
001C
001C
001C
001C
0038
0038
0070
0070
00E0
01C0
0380
0700
0F00
1E00
3C00
7800
7000
FFFC
FFFC
ENDCHAR
STARTCHAR 0033
ENCODING 51
SWIDTH 529 0
DWIDTH 18 0
BBX 14 24 2 0
BITMAP
1F80
7FE0
60F0
4078
0038
0038
0038
0038
0030
0070
01E0
3F80
3FE0
00F0
0038
001C
001C
001C
001C
001C
8038
E0F0
FFE0
7F80
ENDCHAR
STARTCHAR 0034
ENCODING 52
SWIDTH 529 0
DWIDTH 18 0
BBX 17 24 0 0
BITMAP
003C00
007C00
007C00
00FC00
01DC00
019C00
039C00
071C00
061C00
0E1C00
1C1C00
181C00
381C00
701C00
601C00
FFFF80
FFFF80
001C00
001C00
001C00
001C00
001C00
001C00
001C00
ENDCHAR
STARTCHAR 0035
ENCODING 53
SWIDTH 529 0
DWIDTH 18 0
BBX 14 24 2 0
BITMAP
7FF8
7FF8
7000
7000
7000
7000
7000
7000
7000
7F80
7FE0
00F0
0078
003C
001C
001C
001C
001C
001C
0038
8078
E0F0
FFE0
7F80
ENDCHAR
STARTCHAR 0036
ENCODING 54
SWIDTH 529 0
DWIDTH 18 0
BBX 15 24 2 0
BITMAP
01FC
07FC
0F04
1C00
3800
3800
7000
7000
6000
E3E0
EFF8
EC3C
F01C
F01E
E00E
E00E
E00E
E00E
700E
701C
381C
3C38
1FF0
07C0
ENDCHAR
STARTCHAR 0037
ENCODING 55
SWIDTH 529 0
DWIDTH 18 0
BBX 15 24 1 0
BITMAP
FFFE
FFFE
000C
001C
001C
0038
0038
0030
0070
0070
00E0
00E0
00C0
01C0
01C0
0380
0380
0300
0700
0700
0E00
0E00
0C00
1C00
ENDCHAR
STARTCHAR 0038
ENCODING 56
SWIDTH 529 0
DWIDTH 18 0
BBX 15 24 2 0
BITMAP
07C0
1FF0
3C78
783C
701C
701C
701C
701C
3838
3C70
1FE0
07C0
1FF0
3C78
783C
F01E
E00E
E00E
E00E
E00E
701C
783C
3FF8
0FE0
ENDCHAR
STARTCHAR 0039
ENCODING 57
SWIDTH 529 0
DWIDTH 18 0
BBX 15 24 2 0
BITMAP
07C0
1FF0
3C78
703C
701C
E00C
E00E
E00E
E00E
E00E
F01E
701E
783E
3FEE
0F8E
000E
001C
001C
001C
0038
0070
40F0
7FC0
3F00
ENDCHAR
STARTCHAR 003A
ENCODING 58
SWIDTH 205 0
DWIDTH 7 0
BBX 4 17 2 0
BITMAP
60
F0
F0
60
00
00
00
00
00
00
00
00
00
60
F0
F0
60
ENDCHAR
STARTCHAR 003B
ENCODING 59
SWIDTH 205 0
DWIDTH 7 0
BBX 5 21 1 -4
BITMAP
30
78
78
30
00
00
00
00
00
00
00
00
00
38
30
70
70
60
60
E0
C0
ENDCHAR
STARTCHAR 003C
ENCODING 60
SWIDTH 676 0
DWIDTH 23 0
BBX 14 16 5 2
BITMAP
0004
001C
003C
00F0
03C0
0F80
3E00
7800
F000
7C00
1F00
07C0
01F0
007C
001C
0004
ENDCHAR
STARTCHAR 003D
ENCODING 61
SWIDTH 676 0
DWIDTH 23 0
BBX 15 9 4 6
BITMAP
FFFE
FFFE
0000
0000
0000
0000
0000
FFFE
FFFE
ENDCHAR
STARTCHAR 003E
ENCODING 62
SWIDTH 676 0
DWIDTH 23 0
BBX 14 16 5 2
BITMAP
8000
E000
F000
3C00
0F00
07C0
01E0
0078
003C
00F8
03E0
0F80
3E00
F800
E000
8000
ENDCHAR
STARTCHAR 003F
ENCODING 63
SWIDTH 441 0
DWIDTH 15 0
BBX 12 24 2 0
BITMAP
3F80
FFC0
C1E0
80F0
0070
0070
0070
00E0
01E0
03C0
0780
0F00
0E00
1C00
1C00
1C00
1C00
0000
0000
0000
0C00
1E00
1E00
0C00
ENDCHAR
STARTCHAR 0040
ENCODING 64
SWIDTH 941 0
DWIDTH 32 0
BBX 27 27 3 -3
BITMAP
003FC000
01FFF800
03C03C00
0F000E00
1C000300
18000180
301F31C0
703FF0C0
6070E0E0
60E06060
C0C06060
C1C06060
C1806060
C1806060
C1806060
C180E060
C180E0C0
C1C1E0C0
60E37180
607F7F00
303C3E00
38000000
1C000000
0E000000
07C01800
01FFF800
007FE000
ENDCHAR
STARTCHAR 0041
ENCODING 65
SWIDTH 647 0
DWIDTH 22 0
BBX 22 24 0 0
BITMAP
007800
007800
00F800
00FC00
00FC00
01CE00
01CE00
018E00
038700
038700
070380
070380
070380
0E01C0
0E01C0
1FFFE0
1FFFE0
1C00E0
380070
380070
780078
700038
700038
E0001C
ENDCHAR
STARTCHAR 0042
ENCODING 66
SWIDTH 558 0
DWIDTH 19 0
BBX 14 24 3 0
BITMAP
FF80
FFE0
E0F0
E078
E038
E038
E038
E038
E030
E070
E0E0
FFC0
FFE0
E078
E038
E01C
E01C
E01C
E01C
E01C
E038
E078
FFF0
FFC0
ENDCHAR
STARTCHAR 0043
ENCODING 67
SWIDTH 617 0
DWIDTH 21 0
BBX 17 24 2 0
BITMAP
00FF80
03FF80
0F8180
1E0000
3C0000
380000
700000
700000
E00000
E00000
E00000
E00000
E00000
E00000
E00000
E00000
700000
700000
780000
380000
1C0080
0F0380
07FF80
01FE00
ENDCHAR
STARTCHAR 0044
ENCODING 68
SWIDTH 705 0
DWIDTH 24 0
BBX 19 24 3 0
BITMAP
FFE000
FFFC00
E03E00
E00F00
E00380
E003C0
E001C0
E001C0
E000E0
E000E0
E000E0
E000E0
E000E0
E000E0
E000E0
E000E0
E001C0
E001C0
E00380
E00780
E00F00
E03E00
FFF800
FFC000
ENDCHAR
STARTCHAR 0045
ENCODING 69
SWIDTH 500 0
DWIDTH 17 0
BBX 13 24 3 0
BITMAP
FFF0
FFF0
E000
E000
E000
E000
E000
E000
E000
E000
E000
FFF0
FFF0
E000
E000
E000
E000
E000
E000
E000
E000
E000
FFF8
FFF8
ENDCHAR
STARTCHAR 0046
ENCODING 70
SWIDTH 500 0
DWIDTH 17 0
BBX 13 24 3 0
BITMAP
FFF8
FFF8
E000
E000
E000
E000
E000
E000
E000
E000
E000
FFF0
FFF0
E000
E000
E000
E000
E000
E000
E000
E000
E000
E000
E000
ENDCHAR
STARTCHAR 0047
ENCODING 71
SWIDTH 676 0
DWIDTH 23 0
BBX 19 24 2 0
BITMAP
007F80
03FFE0
0780E0
1E0020
1C0000
380000
700000
700000
F00000
E00000
E00000
E00000
E01FE0
E01FE0
E000E0
E000E0
7000E0
7000E0
7800E0
3800E0
1C00E0
0F01E0
07FFE0
00FF00
ENDCHAR
STARTCHAR 0048
ENCODING 72
SWIDTH 705 0
DWIDTH 24 0
BBX 18 24 3 0
BITMAP
E001C0
E001C0
E001C0
E001C0
E001C0
E001C0
E001C0
E001C0
E001C0
E001C0
E001C0
FFFFC0
FFFFC0
E001C0
E001C0
E001C0
E001C0
E001C0
E001C0
E001C0
E001C0
E001C0
E001C0
E001C0
ENDCHAR
STARTCHAR 0049
ENCODING 73
SWIDTH 264 0
DWIDTH 9 0
BBX 7 24 1 0
BITMAP
FE
FE
38
38
38
38
38
38
38
38
38
38
38
38
38
38
38
38
38
38
38
38
FE
FE
ENDCHAR
STARTCHAR 004A
ENCODING 74
SWIDTH 352 0
DWIDTH 12 0
BBX 9 24 0 0
BITMAP
0380
0380
0380
0380
0380
0380
0380
0380
0380
0380
0380
0380
0380
0380
0380
0380
0380
0380
0380
0700
0700
8E00
FC00
F800
ENDCHAR
STARTCHAR 004B
ENCODING 75
SWIDTH 588 0
DWIDTH 20 0
BBX 17 24 3 0
BITMAP
E00F00
E01E00
E03C00
E03800
E07000
E0E000
E1C000
E38000
E78000
E70000
EE0000
FC0000
FE0000
EF0000
E78000
E38000
E1C000
E0E000
E0F000
E07800
E03C00
E01E00
E00F00
E00780
ENDCHAR
STARTCHAR 004C
ENCODING 76
SWIDTH 470 0
DWIDTH 16 0
BBX 12 24 3 0
BITMAP
E000
E000
E000
E000
E000
E000
E000
E000
E000
E000
E000
E000
E000
E000
E000
E000
E000
E000
E000
E000
E000
E000
FFF0
FFF0
ENDCHAR
STARTCHAR 004D
ENCODING 77
SWIDTH 911 0
DWIDTH 31 0
BBX 25 24 3 0
BITMAP
F0000780
F8000780
F8000F80
FC000F80
FC001F80
EC001B80
EE003B80
EE003B80
E7007380
E7007380
E3806380
E380E380
E1C0C380
E1C1C380
E0C18380
E0E38380
E0E38380
E0770380
E0770380
E0360380
E03E0380
E01C0380
E01C0380
E0080380
ENDCHAR
STARTCHAR 004E
ENCODING 78
SWIDTH 735 0
DWIDTH 25 0
BBX 19 24 3 0
BITMAP
F000E0
F800E0
F800E0
FC00E0
FE00E0
EE00E0
E700E0
E700E0
E380E0
E3C0E0
E1C0E0
E0E0E0
E0E0E0
E070E0
E038E0
E038E0
E01CE0
E01CE0
E00EE0
E007E0
E007E0
E003E0
E003E0
E001E0
ENDCHAR
STARTCHAR 004F
ENCODING 79
SWIDTH 764 0
DWIDTH 26 0
BBX 23 24 2 0
BITMAP
00FE00
03FFC0
0F81E0
1E0070
3C0038
38003C
70001C
70001C
E0000E
E0000E
E0000E
E0000E
E0000E
E0000E
E0000E
E0000E
70001C
70001C
780038
3C0038
1E00F0
0F03E0
07FFC0
00FE00
ENDCHAR
STARTCHAR 0050
ENCODING 80
SWIDTH 558 0
DWIDTH 19 0
BBX 15 24 3 0
BITMAP
FFC0
FFF0
E07C
E01C
E00E
E00E
E00E
E00E
E00E
E01C
E01C
E078
FFF0
FFC0
E000
E000
E000
E000
E000
E000
E000
E000
E000
E000
ENDCHAR
STARTCHAR 0051
ENCODING 81
SWIDTH 764 0
DWIDTH 26 0
BBX 24 30 2 -6
BITMAP
00FE00
03FFC0
0F81E0
1E0070
3C0038
38003C
70001C
70001C
E0000E
E0000E
E0000E
E0000E
E0000E
E0000E
E0000E
E0000E
70001C
70001C
780038
3C0038
1E00F0
0F01E0
07FFC0
00FE00
000F00
000780
0003E0
0001FF
0000FF
00003F
ENDCHAR
STARTCHAR 0052
ENCODING 82
SWIDTH 588 0
DWIDTH 20 0
BBX 17 24 3 0
BITMAP
FFC000
FFF000
E07800
E03800
E01C00
E01C00
E01C00
E01C00
E01C00
E03800
E03800
E07000
FFE000
FF8000
E1E000
E0E000
E07000
E03800
E03800
E01C00
E00E00
E00E00
E00700
E00780
ENDCHAR
STARTCHAR 0053
ENCODING 83
SWIDTH 529 0
DWIDTH 18 0
BBX 14 24 2 0
BITMAP
07F0
1FF8
7818
7008
E000
E000
E000
E000
F000
7800
3E00
1F80
07E0
01F0
0078
003C
001C
001C
001C
001C
C038
F078
FFF0
1F80
ENDCHAR
STARTCHAR 0054
ENCODING 84
SWIDTH 529 0
DWIDTH 18 0
BBX 17 24 1 0
BITMAP
FFFF80
FFFF80
01C000
01C000
01C000
01C000
01C000
01C000
01C000
01C000
01C000
01C000
01C000
01C000
01C000
01C000
01C000
01C000
01C000
01C000
01C000
01C000
01C000
01C000
ENDCHAR
STARTCHAR 0055
ENCODING 85
SWIDTH 676 0
DWIDTH 23 0
BBX 18 24 3 0
BITMAP
E001C0
E001C0
E001C0
E001C0
E001C0
E001C0
E001C0
E001C0
E001C0
E001C0
E001C0
E001C0
E001C0
E001C0
E001C0
E001C0
E001C0
E001C0
700380
700380
780700
3C0F00
1FFE00
07F000
ENDCHAR
STARTCHAR 0056
ENCODING 86
SWIDTH 617 0
DWIDTH 21 0
BBX 21 24 0 0
BITMAP
E00038
700070
700070
700070
3800E0
3800E0
3800E0
1C01C0
1C01C0
1E0180
0E0380
0E0380
070700
070700
070700
038E00
038E00
038C00
01DC00
01DC00
00D800
00F800
00F800
007000
ENDCHAR
STARTCHAR 0057
ENCODING 87
SWIDTH 941 0
DWIDTH 32 0
BBX 32 24 0 0
BITMAP
E001C007
F003C00F
7003C00E
7003E00E
7003E00E
3807E01C
3807601C
3806701C
1C0E701C
1C0E7038
1C0C3838
1C1C3838
0E1C3870
0E1C1870
0E181C70
07381C60
07380CE0
07300EE0
03700EE0
03F00EC0
03F007C0
01E007C0
01E00780
01E00380
ENDCHAR
STARTCHAR 0058
ENCODING 88
SWIDTH 588 0
DWIDTH 20 0
BBX 20 24 0 0
BITMAP
7800F0
3800E0
1C01C0
1E03C0
0E0380
070700
070700
038E00
03DC00
01DC00
00F800
00F800
00F800
01F800
01DC00
039E00
070E00
070F00
0E0700
1E0380
3C03C0
3801C0
7801E0
F000F0
ENDCHAR
STARTCHAR 0059
ENCODING 89
SWIDTH 558 0
DWIDTH 19 0
BBX 19 24 0 0
BITMAP
E000E0
7001C0
7801C0
380380
3C0380
1C0700
1E0F00
0E0E00
071C00
071C00
03B800
03B800
01F000
01F000
00E000
00E000
00E000
00E000
00E000
00E000
00E000
00E000
00E000
00E000
ENDCHAR
STARTCHAR 005A
ENCODING 90
SWIDTH 558 0
DWIDTH 19 0
BBX 17 24 1 0
BITMAP
7FFF80
7FFF00
000700
000E00
001E00
001C00
003800
003800
007000
00F000
00E000
01C000
01C000
038000
078000
070000
0E0000
0E0000
1C0000
380000
380000
700000
7FFF80
FFFF80
ENDCHAR
STARTCHAR 005B
ENCODING 91
SWIDTH 294 0
DWIDTH 10 0
BBX 6 29 3 -5
BITMAP
FC
FC
C0
C0
C0
C0
C0
C0
C0
C0
C0
C0
C0
C0
C0
C0
C0
C0
C0
C0
C0
C0
C0
C0
C0
C0
C0
FC
FC
ENDCHAR
STARTCHAR 005C
ENCODING 92
SWIDTH 382 0
DWIDTH 13 0
BBX 13 28 0 -4
BITMAP
E000
6000
6000
7000
3000
3800
3800
1800
1C00
0C00
0C00
0E00
0600
0700
0700
0300
0380
0180
0180
01C0
00C0
00E0
0060
0060
0070
0030
0030
0038
ENDCHAR
STARTCHAR 005D
ENCODING 93
SWIDTH 294 0
DWIDTH 10 0
BBX 6 29 1 -5
BITMAP
FC
FC
0C
0C
0C
0C
0C
0C
0C
0C
0C
0C
0C
0C
0C
0C
0C
0C
0C
0C
0C
0C
0C
0C
0C
0C
0C
FC
FC
ENDCHAR
STARTCHAR 005E
ENCODING 94
SWIDTH 676 0
DWIDTH 23 0
BBX 15 14 4 10
BITMAP
0300
0380
0780
07C0
06C0
0CE0
0C60
1870
1830
3038
3018
701C
600C
E00E
ENDCHAR
STARTCHAR 005F
ENCODING 95
SWIDTH 411 0
DWIDTH 14 0
BBX 14 2 0 -5
BITMAP
FFFC
FFFC
ENDCHAR
STARTCHAR 0060
ENCODING 96
SWIDTH 264 0
DWIDTH 9 0
BBX 6 5 1 20
BITMAP
E0
70
30
18
0C
ENDCHAR
STARTCHAR 0061
ENCODING 97
SWIDTH 500 0
DWIDTH 17 0
BBX 13 17 2 0
BITMAP
0FC0
3FF0
3070
2038
0038
0038
01F8
1FF8
7E38
7038
E038
E038
E078
E078
F0F8
7FB8
1E38
ENDCHAR
STARTCHAR 0062
ENCODING 98
SWIDTH 588 0
DWIDTH 20 0
BBX 16 26 3 0
BITMAP
E000
E000
E000
E000
E000
E000
E000
E000
E000
E3F0
EFF8
FC3C
F80E
F00E
E007
E007
E007
E007
E007
E007
E00F
F00E
F01E
FC3C
EFF8
E3E0
ENDCHAR
STARTCHAR 0063
ENCODING 99
SWIDTH 470 0
DWIDTH 16 0
BBX 12 17 2 0
BITMAP
07E0
1FF0
3C10
7800
7000
F000
E000
E000
E000
E000
E000
E000
7000
7800
3C10
1FF0
07E0
ENDCHAR
STARTCHAR 0064
ENCODING 100
SWIDTH 588 0
DWIDTH 20 0
BBX 16 26 2 0
BITMAP
0007
0007
0007
0007
0007
0007
0007
0007
0007
07C7
1FF7
3C3F
780F
700F
E007
E007
E007
E007
E007
E007
E007
700F
701F
3C3F
1FF7
0FC7
ENDCHAR
STARTCHAR 0065
ENCODING 101
SWIDTH 529 0
DWIDTH 18 0
BBX 15 17 2 0
BITMAP
07E0
1FF8
3C38
781C
700E
E00E
E00E
FFFE
FFFE
E000
E000
E000
7000
7804
3C1C
1FFC
07F0
ENDCHAR
STARTCHAR 0066
ENCODING 102
SWIDTH 323 0
DWIDTH 11 0
BBX 10 26 1 0
BITMAP
03C0
07C0
0E00
1C00
1C00
1C00
1C00
1C00
1C00
FF80
FF80
1C00
1C00
1C00
1C00
1C00
1C00
1C00
1C00
1C00
1C00
1C00
1C00
1C00
1C00
1C00
ENDCHAR
STARTCHAR 0067
ENCODING 103
SWIDTH 588 0
DWIDTH 20 0
BBX 16 25 2 -8
BITMAP
07C7
1FF7
3C3F
780F
700F
F007
E007
E007
E007
E007
E007
E007
700F
701F
3C3F
1FF7
0FC7
0007
0007
000E
000E
401E
703C
7FF8
1FC0
ENDCHAR
STARTCHAR 0068
ENCODING 104
SWIDTH 558 0
DWIDTH 19 0
BBX 14 26 3 0
BITMAP
E000
E000
E000
E000
E000
E000
E000
E000
E000
E3E0
EFF0
F878
F03C
F01C
E01C
E01C
E01C
E01C
E01C
E01C
E01C
E01C
E01C
E01C
E01C
E01C
ENDCHAR
STARTCHAR 0069
ENCODING 105
SWIDTH 235 0
DWIDTH 8 0
BBX 4 25 2 0
BITMAP
60
F0
F0
60
00
00
00
00
70
70
70
70
70
70
70
70
70
70
70
70
70
70
70
70
70
ENDCHAR
STARTCHAR 006A
ENCODING 106
SWIDTH 235 0
DWIDTH 8 0
BBX 9 33 -3 -8
BITMAP
0300
0780
0780
0300
0000
0000
0000
0000
0380
0380
0380
0380
0380
0380
0380
0380
0380
0380
0380
0380
0380
0380
0380
0380
0380
0380
0380
0380
0300
0700
8E00
FE00
F800
ENDCHAR
STARTCHAR 006B
ENCODING 107
SWIDTH 500 0
DWIDTH 17 0
BBX 14 26 3 0
BITMAP
E000
E000
E000
E000
E000
E000
E000
E000
E000
E078
E0F0
E1E0
E1C0
E380
E700
EE00
FE00
FC00
EE00
E700
E780
E3C0
E1E0
E0F0
E078
E03C
ENDCHAR
STARTCHAR 006C
ENCODING 108
SWIDTH 235 0
DWIDTH 8 0
BBX 3 26 3 0
BITMAP
E0
E0
E0
E0
E0
E0
E0
E0
E0
E0
E0
E0
E0
E0
E0
E0
E0
E0
E0
E0
E0
E0
E0
E0
E0
E0
ENDCHAR
STARTCHAR 006D
ENCODING 109
SWIDTH 852 0
DWIDTH 29 0
BBX 23 17 3 0
BITMAP
E3C1F0
EFE3F8
F8F63C
F07C1E
F03C0E
E0380E
E0380E
E0380E
E0380E
E0380E
E0380E
E0380E
E0380E
E0380E
E0380E
E0380E
E0380E
ENDCHAR
STARTCHAR 006E
ENCODING 110
SWIDTH 558 0
DWIDTH 19 0
BBX 14 17 3 0
BITMAP
E3E0
EFF0
F878
F038
F01C
E01C
E01C
E01C
E01C
E01C
E01C
E01C
E01C
E01C
E01C
E01C
E01C
ENDCHAR
STARTCHAR 006F
ENCODING 111
SWIDTH 588 0
DWIDTH 20 0
BBX 17 17 2 0
BITMAP
07F000
1FFC00
3C1E00
780F00
700700
F00380
E00380
E00380
E00380
E00380
E00380
E00380
700700
780F00
3C1E00
1FFC00
07F000
ENDCHAR
STARTCHAR 0070
ENCODING 112
SWIDTH 588 0
DWIDTH 20 0
BBX 16 25 3 -8
BITMAP
E3F0
EFF8
FC3C
F80E
F00E
E007
E007
E007
E007
E007
E007
E00F
F00E
F01E
FC3C
EFF8
E3E0
E000
E000
E000
E000
E000
E000
E000
E000
ENDCHAR
STARTCHAR 0071
ENCODING 113
SWIDTH 588 0
DWIDTH 20 0
BBX 16 25 2 -8
BITMAP
07E7
1FF7
3C3F
780F
700F
E007
E007
E007
E007
E007
E007
E007
700F
701F
3C3F
1FF7
0FC7
0007
0007
0007
0007
0007
0007
0007
0007
ENDCHAR
STARTCHAR 0072
ENCODING 114
SWIDTH 352 0
DWIDTH 12 0
BBX 9 17 3 0
BITMAP
E380
EF80
EF80
F800
F000
F000
E000
E000
E000
E000
E000
E000
E000
E000
E000
E000
E000
ENDCHAR
STARTCHAR 0073
ENCODING 115
SWIDTH 411 0
DWIDTH 14 0
BBX 11 17 2 0
BITMAP
1F80
3FC0
7040
E000
E000
E000
F000
7C00
3F80
0FC0
01E0
00E0
00E0
80E0
C1C0
FF80
7F00
ENDCHAR
STARTCHAR 0074
ENCODING 116
SWIDTH 352 0
DWIDTH 12 0
BBX 10 22 1 0
BITMAP
0C00
1C00
1C00
1C00
1C00
FFC0
FFC0
1C00
1C00
1C00
1C00
1C00
1C00
1C00
1C00
1C00
1C00
1C00
1C00
1E00
0FC0
07C0
ENDCHAR
STARTCHAR 0075
ENCODING 117
SWIDTH 558 0
DWIDTH 19 0
BBX 15 17 2 0
BITMAP
E00E
E00E
E00E
E00E
E00E
E00E
E00E
E00E
E00E
E00E
E00E
E00E
E01E
701E
787E
3FEE
1F8E
ENDCHAR
STARTCHAR 0076
ENCODING 118
SWIDTH 470 0
DWIDTH 16 0
BBX 16 17 0 0
BITMAP
E007
7006
700E
700E
381C
381C
3818
1C38
1C38
0C30
0E70
0E60
0660
07E0
03C0
03C0
0380
ENDCHAR
STARTCHAR 0077
ENCODING 119
SWIDTH 735 0
DWIDTH 25 0
BBX 25 17 0 0
BITMAP
E01C0380
E01E0380
701E0700
703E0700
70360700
38370600
38770E00
38630E00
18638C00
1CE39C00
1CC19C00
0CC19800
0FC1D800
0F80F800
0780F000
0780F000
07007000
ENDCHAR
STARTCHAR 0078
ENCODING 120
SWIDTH 470 0
DWIDTH 16 0
BBX 15 17 0 0
BITMAP
700E
701C
3838
3C38
1C70
0E60
0EE0
07C0
0380
07C0
0EE0
0EE0
1C70
3838
3838
701C
F01E
ENDCHAR
STARTCHAR 0079
ENCODING 121
SWIDTH 470 0
DWIDTH 16 0
BBX 16 25 0 -8
BITMAP
E007
7006
700E
700E
380C
381C
1818
1C38
1C38
0C30
0E70
0E60
0660
07E0
03C0
03C0
0380
0380
0380
0300
0700
0600
0E00
7C00
7800
ENDCHAR
STARTCHAR 007A
ENCODING 122
SWIDTH 441 0
DWIDTH 15 0
BBX 13 17 1 0
BITMAP
7FF8
7FF0
0070
00E0
00E0
01C0
0380
0380
0700
0E00
0E00
1C00
3800
3800
7000
FFF8
FFF8
ENDCHAR
STARTCHAR 007B
ENCODING 123
SWIDTH 294 0
DWIDTH 10 0
BBX 8 29 1 -5
BITMAP
03
0F
0C
18
18
18
18
18
18
18
18
18
18
30
E0
F0
30
18
18
18
18
18
18
18
18
18
1C
0F
07
ENDCHAR
STARTCHAR 007C
ENCODING 124
SWIDTH 235 0
DWIDTH 8 0
BBX 2 34 3 -8
BITMAP
C0
C0
C0
C0
C0
C0
C0
C0
C0
C0
C0
C0
C0
C0
C0
C0
C0
C0
C0
C0
C0
C0
C0
C0
C0
C0
C0
C0
C0
C0
C0
C0
C0
C0
ENDCHAR
STARTCHAR 007D
ENCODING 125
SWIDTH 294 0
DWIDTH 10 0
BBX 8 29 1 -5
BITMAP
C0
F0
30
18
18
18
18
18
18
18
18
18
18
0C
07
0F
0C
18
18
18
18
18
18
18
18
18
38
F0
E0
ENDCHAR
STARTCHAR 007E
ENCODING 126
SWIDTH 676 0
DWIDTH 23 0
BBX 16 5 3 7
BITMAP
3E03
7F83
63C6
C1FE
C07C
ENDCHAR
STARTCHAR 00A0
ENCODING 160
SWIDTH 264 0
DWIDTH 9 0
BBX 0 0 0 0
BITMAP
ENDCHAR
STARTCHAR 00A1
ENCODING 161
SWIDTH 294 0
DWIDTH 10 0
BBX 4 24 3 -7
BITMAP
60
F0
F0
60
00
00
00
C0
C0
C0
C0
C0
C0
C0
C0
C0
E0
E0
E0
E0
E0
E0
E0
E0
ENDCHAR
STARTCHAR 00A2
ENCODING 162
SWIDTH 529 0
DWIDTH 18 0
BBX 13 24 3 -1
BITMAP
0180
0180
0180
03F0
0FF8
1D88
3980
7180
7180
E180
E180
E180
E180
E180
E180
F180
7180
7980
3D88
1FF8
07F0
0180
0180
0180
ENDCHAR
STARTCHAR 00A3
ENCODING 163
SWIDTH 529 0
DWIDTH 18 0
BBX 16 24 1 0
BITMAP
00FE
03FE
0782
0700
0E00
0E00
0E00
0E00
0E00
0E00
0E00
7FF0
7FF0
0E00
0E00
0E00
0E00
0E00
0E00
1C00
1800
7000
FFFF
FFFF
ENDCHAR
STARTCHAR 00A4
ENCODING 164
SWIDTH 558 0
DWIDTH 19 0
BBX 16 16 2 3
BITMAP
4002
E7C7
7FFE
3C3C
300C
700C
6006
6006
6006
6006
700E
300C
3C3C
7FFE
E7E7
4002
ENDCHAR
STARTCHAR 00A5
ENCODING 165
SWIDTH 529 0
DWIDTH 18 0
BBX 17 24 1 0
BITMAP
F00380
700700
780700
380E00
1C0C00
1C1C00
0E3800
0E3800
077000
077000
03E000
7FFF00
7FFF00
01C000
01C000
01C000
01C000
7FFF00
7FFF00
01C000
01C000
01C000
01C000
01C000
ENDCHAR
STARTCHAR 00A6
ENCODING 166
SWIDTH 235 0
DWIDTH 8 0
BBX 2 34 3 -8
BITMAP
C0
C0
C0
C0
C0
C0
C0
C0
C0
C0
C0
C0
C0
C0
00
00
00
00
00
00
C0
C0
C0
C0
C0
C0
C0
C0
C0
C0
C0
C0
C0
C0
ENDCHAR
STARTCHAR 00A7
ENCODING 167
SWIDTH 441 0
DWIDTH 15 0
BBX 11 26 2 -1
BITMAP
0FC0
3FC0
3840
7000
7000
7000
7800
3C00
3F00
7F80
73C0
E1E0
E0E0
E0E0
F0E0
78E0
7DC0
1F80
0F80
03C0
01C0
01C0
01C0
8380
FF80
7E00
ENDCHAR
STARTCHAR 00A8
ENCODING 168
SWIDTH 411 0
DWIDTH 14 0
BBX 9 3 2 20
BITMAP
E380
E380
E380
ENDCHAR
STARTCHAR 00A9
ENCODING 169
SWIDTH 882 0
DWIDTH 30 0
BBX 25 25 3 -1
BITMAP
007F0000
0180C000
06003000
08000800
101F8400
207FC200
60E04200
41800100
43000100
83000080
86000080
86000080
86000080
86000080
86000080
86000080
47000100
43000100
61800300
21E04200
10FFC400
083F8800
06003000
0380E000
007F0000
ENDCHAR
STARTCHAR 00AA
ENCODING 170
SWIDTH 382 0
DWIDTH 13 0
BBX 10 12 1 12
BITMAP
3F00
7F80
41C0
00C0
0FC0
7FC0
F0C0
C0C0
C1C0
E3C0
7EC0
3CC0
ENDCHAR
STARTCHAR 00AB
ENCODING 171
SWIDTH 500 0
DWIDTH 17 0
BBX 14 11 2 4
BITMAP
071C
0E38
1C70
38E0
71C0
E380
71C0
38E0
1C70
0E38
071C
ENDCHAR
STARTCHAR 00AC
ENCODING 172
SWIDTH 676 0
DWIDTH 23 0
BBX 15 9 4 5
BITMAP
FFFE
FFFE
0006
0006
0006
0006
0006
0006
0006
ENDCHAR
STARTCHAR 00AD
ENCODING 173
SWIDTH 411 0
DWIDTH 14 0
BBX 9 2 2 9
BITMAP
FF80
FF80
ENDCHAR
STARTCHAR 00AE
ENCODING 174
SWIDTH 882 0
DWIDTH 30 0
BBX 25 25 3 -1
BITMAP
007F0000
0180C000
06003000
08000800
10FE0400
20FF8200
60C18200
40C0C100
40C0C100
80C0C080
80C0C080
80C18080
80FF0080
80FC0080
80C60080
80C30080
40C38100
40C18100
60C1C300
20C0C200
10C0E400
08000800
06003000
0380E000
007F0000
ENDCHAR
STARTCHAR 00AF
ENCODING 175
SWIDTH 411 0
DWIDTH 14 0
BBX 14 2 0 24
BITMAP
FFFC
FFFC
ENDCHAR
STARTCHAR 00B0
ENCODING 176
SWIDTH 382 0
DWIDTH 13 0
BBX 9 9 2 15
BITMAP
3E00
7F00
E380
C180
C180
C180
E380
7F00
3E00
ENDCHAR
STARTCHAR 00B1
ENCODING 177
SWIDTH 676 0
DWIDTH 23 0
BBX 16 20 4 0
BITMAP
0180
0180
0180
0180
0180
0180
0180
FFFF
FFFF
0180
0180
0180
0180
0180
0180
0180
0000
0000
FFFF
FFFF
ENDCHAR
STARTCHAR 00B2
ENCODING 178
SWIDTH 352 0
DWIDTH 12 0
BBX 9 14 2 15
BITMAP
3E00
7F00
6380
0180
0180
0180
0300
0600
0E00
1800
3000
6000
FF80
FF80
ENDCHAR
STARTCHAR 00B3
ENCODING 179
SWIDTH 352 0
DWIDTH 12 0
BBX 8 14 2 15
BITMAP
3C
7E
46
06
06
0C
78
7E
07
03
03
87
FE
7C
ENDCHAR
STARTCHAR 00B4
ENCODING 180
SWIDTH 294 0
DWIDTH 10 0
BBX 6 5 2 20
BITMAP
1C
38
30
60
C0
ENDCHAR
STARTCHAR 00B5
ENCODING 181
SWIDTH 588 0
DWIDTH 20 0
BBX 15 24 3 -7
BITMAP
E01C
E01C
E01C
E01C
E01C
E01C
E01C
E01C
E01C
E01C
E01C
E01C
E03C
F03C
F87C
FFDC
EF8E
E000
E000
E000
E000
E000
E000
E000
ENDCHAR
STARTCHAR 00B6
ENCODING 182
SWIDTH 470 0
DWIDTH 16 0
BBX 12 24 1 0
BITMAP
3FF0
7FF0
FCC0
FCC0
FCC0
FCC0
FCC0
7CC0
3CC0
0CC0
0CC0
0CC0
0CC0
0CC0
0CC0
0CC0
0CC0
0CC0
0CC0
0CC0
0CC0
0CC0
0CC0
0CC0
ENDCHAR
STARTCHAR 00B7
ENCODING 183
SWIDTH 205 0
DWIDTH 7 0
BBX 4 4 2 8
BITMAP
60
F0
F0
60
ENDCHAR
STARTCHAR 00B8
ENCODING 184
SWIDTH 205 0
DWIDTH 7 0
BBX 6 7 1 -7
BITMAP
60
60
78
0C
0C
1C
F0
ENDCHAR
STARTCHAR 00B9
ENCODING 185
SWIDTH 352 0
DWIDTH 12 0
BBX 8 14 2 15
BITMAP
08
78
F8
D8
18
18
18
18
18
18
18
18
FF
FF
ENDCHAR
STARTCHAR 00BA
ENCODING 186
SWIDTH 441 0
DWIDTH 15 0
BBX 12 12 1 12
BITMAP
1F80
3FC0
70E0
E070
C030
C030
C030
C030
E070
70E0
3FC0
1F80
ENDCHAR
STARTCHAR 00BB
ENCODING 187
SWIDTH 500 0
DWIDTH 17 0
BBX 15 11 2 4
BITMAP
E1C0
70E0
3870
1C38
0E1C
070E
0E1C
1C38
3870
70E0
E1C0
ENDCHAR
STARTCHAR 00BC
ENCODING 188
SWIDTH 911 0
DWIDTH 31 0
BBX 26 24 2 0
BITMAP
08001800
78003800
F8003000
D8006000
1800E000
1800C000
1801C000
18018000
18030000
18070000
18060700
180E0700
FF0C0F00
FF1C1B00
00381B00
00303300
00703300
00606300
00E0E300
01C0FFC0
0180FFC0
03800300
03000300
07000300
ENDCHAR
STARTCHAR 00BD
ENCODING 189
SWIDTH 941 0
DWIDTH 32 0
BBX 27 24 2 0
BITMAP
08001800
78003800
F8003000
D8006000
1800E000
1800C000
1801C000
18018000
18030000
18070000
18060F80
180E1FC0
FF0C18E0
FF1C0060
00380060
00300060
007000C0
00600180
00E00380
01C00600
01800C00
03801800
03003FE0
07003FE0
ENDCHAR
STARTCHAR 00BE
ENCODING 190
SWIDTH 941 0
DWIDTH 32 0
BBX 27 24 2 0
BITMAP
3C000C00
7E001C00
46001800
06003000
06007000
0C006000
7800E000
7E00C000
07018000
03038000
03030380
87070380
FE060780
7C0E0D80
001C0D80
00181980
00381980
00303180
00707180
00E07FE0
00C07FE0
01C00180
01800180
03800180
ENDCHAR
STARTCHAR 00BF
ENCODING 191
SWIDTH 441 0
DWIDTH 15 0
BBX 12 24 2 -7
BITMAP
0300
0780
0780
0300
0000
0000
0000
0380
0380
0380
0380
0700
0F00
1E00
3C00
7800
7000
E000
E000
E000
E010
7830
3FF0
1FC0
ENDCHAR
STARTCHAR 00C0
ENCODING 192
SWIDTH 647 0
DWIDTH 22 0
BBX 22 31 0 0
BITMAP
01C000
00E000
006000
003000
001800
000000
000000
007800
007800
00F800
00FC00
00FC00
01CE00
01CE00
018E00
038700
038700
070380
070380
070380
0E01C0
0E01C0
1FFFE0
1FFFE0
1C00E0
380070
380070
780078
700038
700038
E0001C
ENDCHAR
STARTCHAR 00C1
ENCODING 193
SWIDTH 647 0
DWIDTH 22 0
BBX 22 31 0 0
BITMAP
001C00
003800
003000
006000
00C000
000000
000000
007800
007800
00F800
00FC00
00FC00
01CE00
01CE00
018E00
038700
038700
070380
070380
070380
0E01C0
0E01C0
1FFFE0
1FFFE0
1C00E0
380070
380070
780078
700038
700038
E0001C
ENDCHAR
STARTCHAR 00C2
ENCODING 194
SWIDTH 647 0
DWIDTH 22 0
BBX 22 32 0 0
BITMAP
007000
007000
00D800
019C00
018C00
030600
000000
000000
007800
007800
00F800
00FC00
00FC00
01CE00
01CE00
018E00
038700
038700
070380
070380
070380
0E01C0
0E01C0
1FFFE0
1FFFE0
1C00E0
380070
380070
780078
700038
700038
E0001C
ENDCHAR
STARTCHAR 00C3
ENCODING 195
SWIDTH 647 0
DWIDTH 22 0
BBX 22 30 0 0
BITMAP
01E100
01F100
023E00
021E00
000000
000000
007800
007800
00F800
00FC00
00FC00
01CE00
01CE00
018E00
038700
038700
070380
070380
070380
0E01C0
0E01C0
1FFFE0
1FFFE0
1C00E0
380070
380070
780078
700038
700038
E0001C
ENDCHAR
STARTCHAR 00C4
ENCODING 196
SWIDTH 647 0
DWIDTH 22 0
BBX 22 29 0 0
BITMAP
038E00
038E00
038E00
000000
000000
007800
007800
00F800
00FC00
00FC00
01CE00
01CE00
018E00
038700
038700
070380
070380
070380
0E01C0
0E01C0
1FFFE0
1FFFE0
1C00E0
380070
380070
780078
700038
700038
E0001C
ENDCHAR
STARTCHAR 00C5
ENCODING 197
SWIDTH 647 0
DWIDTH 22 0
BBX 22 29 0 0
BITMAP
007000
018C00
010400
010400
018C00
00F800
007800
007800
00FC00
00FC00
01CE00
01CE00
018E00
038700
038700
070380
070380
070380
0E01C0
0E01C0
1FFFE0
1FFFE0
1C00E0
380070
380070
780078
700038
700038
E0001C
ENDCHAR
STARTCHAR 00C6
ENCODING 198
SWIDTH 852 0
DWIDTH 29 0
BBX 27 24 0 0
BITMAP
000FFFC0
001FFFC0
0019C000
0039C000
0039C000
0071C000
0071C000
00E1C000
00E1C000
01C1C000
01C1C000
0381FFC0
0381FFC0
0701C000
0701C000
0FFFC000
0FFFC000
1C01C000
1C01C000
3801C000
3801C000
7001C000
7001FFE0
E001FFE0
ENDCHAR
STARTCHAR 00C7
ENCODING 199
SWIDTH 617 0
DWIDTH 21 0
BBX 17 31 2 -7
BITMAP
00FF80
03FF80
0F8180
1E0000
3C0000
380000
700000
700000
E00000
E00000
E00000
E00000
E00000
E00000
E00000
E00000
700000
700000
780000
380000
1C0080
0F0380
07FF80
01FE00
006000
006000
007800
000C00
000C00
001C00
00F000
ENDCHAR
STARTCHAR 00C8
ENCODING 200
SWIDTH 500 0
DWIDTH 17 0
BBX 13 31 3 0
BITMAP
1C00
0E00
0600
0300
0180
0000
0000
FFF0
FFF0
E000
E000
E000
E000
E000
E000
E000
E000
E000
FFF0
FFF0
E000
E000
E000
E000
E000
E000
E000
E000
E000
FFF8
FFF8
ENDCHAR
STARTCHAR 00C9
ENCODING 201
SWIDTH 500 0
DWIDTH 17 0
BBX 13 31 3 0
BITMAP
01C0
0380
0300
0600
0C00
0000
0000
FFF0
FFF0
E000
E000
E000
E000
E000
E000
E000
E000
E000
FFF0
FFF0
E000
E000
E000
E000
E000
E000
E000
E000
E000
FFF8
FFF8
ENDCHAR
STARTCHAR 00CA
ENCODING 202
SWIDTH 500 0
DWIDTH 17 0
BBX 13 32 3 0
BITMAP
0700
0700
0D80
19C0
18C0
3060
0000
0000
FFF0
FFF0
E000
E000
E000
E000
E000
E000
E000
E000
E000
FFF0
FFF0
E000
E000
E000
E000
E000
E000
E000
E000
E000
FFF8
FFF8
ENDCHAR
STARTCHAR 00CB
ENCODING 203
SWIDTH 500 0
DWIDTH 17 0
BBX 13 29 3 0
BITMAP
38E0
38E0
38E0
0000
0000
FFF0
FFF0
E000
E000
E000
E000
E000
E000
E000
E000
E000
FFF0
FFF0
E000
E000
E000
E000
E000
E000
E000
E000
E000
FFF8
FFF8
ENDCHAR
STARTCHAR 00CC
ENCODING 204
SWIDTH 264 0
DWIDTH 9 0
BBX 7 31 1 0
BITMAP
E0
70
30
18
0C
00
00
FE
FE
38
38
38
38
38
38
38
38
38
38
38
38
38
38
38
38
38
38
38
38
FE
FE
ENDCHAR
STARTCHAR 00CD
ENCODING 205
SWIDTH 264 0
DWIDTH 9 0
BBX 7 31 1 0
BITMAP
0E
1C
18
30
60
00
00
FE
FE
38
38
38
38
38
38
38
38
38
38
38
38
38
38
38
38
38
38
38
38
FE
FE
ENDCHAR
STARTCHAR 00CE
ENCODING 206
SWIDTH 264 0
DWIDTH 9 0
BBX 9 32 0 0
BITMAP
1C00
1C00
3600
6700
6300
C180
0000
0000
7F00
7F00
1C00
1C00
1C00
1C00
1C00
1C00
1C00
1C00
1C00
1C00
1C00
1C00
1C00
1C00
1C00
1C00
1C00
1C00
1C00
1C00
7F00
7F00
ENDCHAR
STARTCHAR 00CF
ENCODING 207
SWIDTH 264 0
DWIDTH 9 0
BBX 9 29 0 0
BITMAP
E380
E380
E380
0000
0000
7F00
7F00
1C00
1C00
1C00
1C00
1C00
1C00
1C00
1C00
1C00
1C00
1C00
1C00
1C00
1C00
1C00
1C00
1C00
1C00
1C00
1C00
7F00
7F00
ENDCHAR
STARTCHAR 00D0
ENCODING 208
SWIDTH 705 0
DWIDTH 24 0
BBX 22 24 0 0
BITMAP
1FFC00
1FFF80
1C07C0
1C01E0
1C0070
1C0078
1C0038
1C0038
1C001C
1C001C
1C001C
FFE01C
FFE01C
1C001C
1C001C
1C001C
1C0038
1C0038
1C0070
1C00F0
1C01E0
1C07C0
1FFF00
1FF800
ENDCHAR
STARTCHAR 00D1
ENCODING 209
SWIDTH 735 0
DWIDTH 25 0
BBX 19 30 3 0
BITMAP
03C200
03E200
047C00
043C00
000000
000000
F000E0
F800E0
F800E0
FC00E0
FE00E0
EE00E0
E700E0
E700E0
E380E0
E3C0E0
E1C0E0
E0E0E0
E0E0E0
E070E0
E038E0
E038E0
E01CE0
E01CE0
E00EE0
E007E0
E007E0
E003E0
E003E0
E001E0
ENDCHAR
STARTCHAR 00D2
ENCODING 210
SWIDTH 764 0
DWIDTH 26 0
BBX 23 31 2 0
BITMAP
01C000
00E000
006000
003000
001800
000000
000000
00FE00
03FFC0
0F81E0
1E0070
3C0038
38003C
70001C
70001C
E0000E
E0000E
E0000E
E0000E
E0000E
E0000E
E0000E
E0000E
70001C
70001C
780038
3C0038
1E00F0
0F03E0
07FFC0
00FE00
ENDCHAR
STARTCHAR 00D3
ENCODING 211
SWIDTH 764 0
DWIDTH 26 0
BBX 23 31 2 0
BITMAP
000700
000E00
000C00
001800
003000
000000
000000
00FE00
03FFC0
0F81E0
1E0070
3C0038
38003C
70001C
70001C
E0000E
E0000E
E0000E
E0000E
E0000E
E0000E
E0000E
E0000E
70001C
70001C
780038
3C0038
1E00F0
0F03E0
07FFC0
00FE00
ENDCHAR
STARTCHAR 00D4
ENCODING 212
SWIDTH 764 0
DWIDTH 26 0
BBX 23 32 2 0
BITMAP
003800
003800
006C00
00CE00
00C600
018300
000000
000000
00FE00
03FFC0
0F81E0
1E0070
3C0038
38003C
70001C
70001C
E0000E
E0000E
E0000E
E0000E
E0000E
E0000E
E0000E
E0000E
70001C
70001C
780038
3C0038
1E00F0
0F03E0
07FFC0
00FE00
ENDCHAR
STARTCHAR 00D5
ENCODING 213
SWIDTH 764 0
DWIDTH 26 0
BBX 23 30 2 0
BITMAP
00F080
00F880
011F00
010F00
000000
000000
00FE00
03FFC0
0F81E0
1E0070
3C0038
38003C
70001C
70001C
E0000E
E0000E
E0000E
E0000E
E0000E
E0000E
E0000E
E0000E
70001C
70001C
780038
3C0038
1E00F0
0F03E0
07FFC0
00FE00
ENDCHAR
STARTCHAR 00D6
ENCODING 214
SWIDTH 764 0
DWIDTH 26 0
BBX 23 29 2 0
BITMAP
01C700
01C700
01C700
000000
000000
00FE00
03FFC0
0F81E0
1E0070
3C0038
38003C
70001C
70001C
E0000E
E0000E
E0000E
E0000E
E0000E
E0000E
E0000E
E0000E
70001C
70001C
780038
3C0038
1E00F0
0F03E0
07FFC0
00FE00
ENDCHAR
STARTCHAR 00D7
ENCODING 215
SWIDTH 676 0
DWIDTH 23 0
BBX 13 13 5 3
BITMAP
C018
E038
7070
38E0
1DC0
0F80
0700
0F80
1DC0
38E0
7070
E038
C018
ENDCHAR
STARTCHAR 00D8
ENCODING 216
SWIDTH 764 0
DWIDTH 26 0
BBX 23 26 2 -1
BITMAP
000008
00FE0C
07FF98
0F81F0
1E0070
3C00F8
3801F8
70019C
70031C
E0060E
E00C0E
E0180E
E0380E
E0300E
E0600E
E0C00E
E1800E
73001C
77001C
7E0038
3C0038
3E00F0
3F83E0
67FFC0
C0FE00
400000
ENDCHAR
STARTCHAR 00D9
ENCODING 217
SWIDTH 676 0
DWIDTH 23 0
BBX 18 31 3 0
BITMAP
070000
038000
018000
00C000
006000
000000
000000
E001C0
E001C0
E001C0
E001C0
E001C0
E001C0
E001C0
E001C0
E001C0
E001C0
E001C0
E001C0
E001C0
E001C0
E001C0
E001C0
E001C0
E001C0
700380
700380
780700
3C0F00
1FFE00
07F000
ENDCHAR
STARTCHAR 00DA
ENCODING 218
SWIDTH 676 0
DWIDTH 23 0
BBX 18 31 3 0
BITMAP
003800
007000
006000
00C000
018000
000000
000000
E001C0
E001C0
E001C0
E001C0
E001C0
E001C0
E001C0
E001C0
E001C0
E001C0
E001C0
E001C0
E001C0
E001C0
E001C0
E001C0
E001C0
E001C0
700380
700380
780700
3C0F00
1FFE00
07F000
ENDCHAR
STARTCHAR 00DB
ENCODING 219
SWIDTH 676 0
DWIDTH 23 0
BBX 18 32 3 0
BITMAP
00E000
00E000
01B000
033800
031800
060C00
000000
000000
E001C0
E001C0
E001C0
E001C0
E001C0
E001C0
E001C0
E001C0
E001C0
E001C0
E001C0
E001C0
E001C0
E001C0
E001C0
E001C0
E001C0
E001C0
700380
700380
780700
3C0F00
1FFE00
07F000
ENDCHAR
STARTCHAR 00DC
ENCODING 220
SWIDTH 676 0
DWIDTH 23 0
BBX 18 29 3 0
BITMAP
071C00
071C00
071C00
000000
000000
E001C0
E001C0
E001C0
E001C0
E001C0
E001C0
E001C0
E001C0
E001C0
E001C0
E001C0
E001C0
E001C0
E001C0
E001C0
E001C0
E001C0
E001C0
700380
700380
780700
3C0F00
1FFE00
07F000
ENDCHAR
STARTCHAR 00DD
ENCODING 221
SWIDTH 558 0
DWIDTH 19 0
BBX 19 31 0 0
BITMAP
001C00
003800
003000
006000
00C000
000000
000000
E000E0
7001C0
7801C0
380380
3C0380
1C0700
1E0F00
0E0E00
071C00
071C00
03B800
03B800
01F000
01F000
00E000
00E000
00E000
00E000
00E000
00E000
00E000
00E000
00E000
00E000
ENDCHAR
STARTCHAR 00DE
ENCODING 222
SWIDTH 558 0
DWIDTH 19 0
BBX 15 24 3 0
BITMAP
E000
E000
E000
E000
FFC0
FFF0
E078
E01C
E01E
E00E
E00E
E00E
E00E
E00E
E01C
E03C
E078
FFF0
FFC0
E000
E000
E000
E000
E000
ENDCHAR
STARTCHAR 00DF
ENCODING 223
SWIDTH 558 0
DWIDTH 19 0
BBX 14 26 3 0
BITMAP
0F80
3FC0
78E0
7070
E070
E070
E070
E070
E060
E0E0
E1C0
E380
E3C0
E0F0
E078
E038
E01C
E01C
E01C
E01C
E01C
E01C
E038
E078
E7F0
E7C0
ENDCHAR
STARTCHAR 00E0
ENCODING 224
SWIDTH 500 0
DWIDTH 17 0
BBX 13 25 2 0
BITMAP
1C00
0E00
0600
0300
0180
0000
0000
0000
0FC0
3FF0
3070
2038
0038
0038
01F8
1FF8
7E38
7038
E038
E038
E078
E078
F0F8
7FB8
1E38
ENDCHAR
STARTCHAR 00E1
ENCODING 225
SWIDTH 500 0
DWIDTH 17 0
BBX 13 25 2 0
BITMAP
00E0
01C0
0180
0300
0600
0000
0000
0000
0FC0
3FF0
3070
2038
0038
0038
01F8
1FF8
7E38
7038
E038
E038
E078
E078
F0F8
7FB8
1E38
ENDCHAR
STARTCHAR 00E2
ENCODING 226
SWIDTH 500 0
DWIDTH 17 0
BBX 13 26 2 0
BITMAP
0380
0380
06C0
0CE0
0C60
1830
0000
0000
0000
0FC0
3FF0
3070
2038
0038
0038
01F8
1FF8
7E38
7038
E038
E038
E078
E078
F0F8
7FB8
1E38
ENDCHAR
STARTCHAR 00E3
ENCODING 227
SWIDTH 500 0
DWIDTH 17 0
BBX 13 24 2 0
BITMAP
1E10
1F10
23E0
21E0
0000
0000
0000
0FC0
3FF0
3070
2038
0038
0038
01F8
1FF8
7E38
7038
E038
E038
E078
E078
F0F8
7FB8
1E38
ENDCHAR
STARTCHAR 00E4
ENCODING 228
SWIDTH 500 0
DWIDTH 17 0
BBX 13 23 2 0
BITMAP
1C70
1C70
1C70
0000
0000
0000
0FC0
3FF0
3070
2038
0038
0038
01F8
1FF8
7E38
7038
E038
E038
E078
E078
F0F8
7FB8
1E38
ENDCHAR
STARTCHAR 00E5
ENCODING 229
SWIDTH 500 0
DWIDTH 17 0
BBX 13 26 2 0
BITMAP
07C0
0C60
0820
0820
0C60
0780
0000
0000
0000
0FC0
3FF0
3070
2038
0038
0038
01F8
1FF8
7E38
7038
E038
E038
E078
E078
F0F8
7FB8
1E38
ENDCHAR
STARTCHAR 00E6
ENCODING 230
SWIDTH 823 0
DWIDTH 28 0
BBX 25 17 2 0
BITMAP
0FC1F800
3FE7FE00
30FF0F00
207E0700
003C0380
00380380
00380380
0FFFFF80
3FFFFF80
78380000
F0380000
E0380000
E07C0000
E07E0100
F0EF0700
7FC7FF00
1F01FC00
ENDCHAR
STARTCHAR 00E7
ENCODING 231
SWIDTH 470 0
DWIDTH 16 0
BBX 12 24 2 -7
BITMAP
07E0
1FF0
3C10
7800
7000
F000
E000
E000
E000
E000
E000
E000
7000
7800
3C10
1FF0
07E0
0300
0300
03C0
0060
0060
00E0
0780
ENDCHAR
STARTCHAR 00E8
ENCODING 232
SWIDTH 529 0
DWIDTH 18 0
BBX 15 25 2 0
BITMAP
0E00
0700
0300
0180
00C0
0000
0000
0000
07E0
1FF8
3C38
781C
700E
E00E
E00E
FFFE
FFFE
E000
E000
E000
7000
7804
3C1C
1FFC
07F0
ENDCHAR
STARTCHAR 00E9
ENCODING 233
SWIDTH 529 0
DWIDTH 18 0
BBX 15 25 2 0
BITMAP
0070
00E0
00C0
0180
0300
0000
0000
0000
07E0
1FF8
3C38
781C
700E
E00E
E00E
FFFE
FFFE
E000
E000
E000
7000
7804
3C1C
1FFC
07F0
ENDCHAR
STARTCHAR 00EA
ENCODING 234
SWIDTH 529 0
DWIDTH 18 0
BBX 15 26 2 0
BITMAP
01C0
01C0
0360
0670
0630
0C18
0000
0000
0000
07E0
1FF8
3C38
781C
700E
E00E
E00E
FFFE
FFFE
E000
E000
E000
7000
7804
3C1C
1FFC
07F0
ENDCHAR
STARTCHAR 00EB
ENCODING 235
SWIDTH 529 0
DWIDTH 18 0
BBX 15 23 2 0
BITMAP
1C70
1C70
1C70
0000
0000
0000
07E0
1FF8
3C38
781C
700E
E00E
E00E
FFFE
FFFE
E000
E000
E000
7000
7804
3C1C
1FFC
07F0
ENDCHAR
STARTCHAR 00EC
ENCODING 236
SWIDTH 235 0
DWIDTH 8 0
BBX 6 25 0 0
BITMAP
E0
70
30
18
0C
00
00
00
1C
1C
1C
1C
1C
1C
1C
1C
1C
1C
1C
1C
1C
1C
1C
1C
1C
ENDCHAR
STARTCHAR 00ED
ENCODING 237
SWIDTH 235 0
DWIDTH 8 0
BBX 6 25 2 0
BITMAP
1C
38
30
60
C0
00
00
00
70
70
70
70
70
70
70
70
70
70
70
70
70
70
70
70
70
ENDCHAR
STARTCHAR 00EE
ENCODING 238
SWIDTH 235 0
DWIDTH 8 0
BBX 9 26 0 0
BITMAP
1C00
1C00
3600
6700
6300
C180
0000
0000
0000
1C00
1C00
1C00
1C00
1C00
1C00
1C00
1C00
1C00
1C00
1C00
1C00
1C00
1C00
1C00
1C00
1C00
ENDCHAR
STARTCHAR 00EF
ENCODING 239
SWIDTH 235 0
DWIDTH 8 0
BBX 9 23 0 0
BITMAP
E380
E380
E380
0000
0000
0000
1C00
1C00
1C00
1C00
1C00
1C00
1C00
1C00
1C00
1C00
1C00
1C00
1C00
1C00
1C00
1C00
1C00
ENDCHAR
STARTCHAR 00F0
ENCODING 240
SWIDTH 558 0
DWIDTH 19 0
BBX 16 26 2 0
BITMAP
0E04
071E
03F8
01F0
03E0
07F0
1C78
083C
001C
07DE
1FFE
3C3E
780F
700F
E007
E007
E007
E007
E007
E007
E006
700E
781E
3C3C
1FF8
07E0
ENDCHAR
STARTCHAR 00F1
ENCODING 241
SWIDTH 558 0
DWIDTH 19 0
BBX 14 24 3 0
BITMAP
1E10
1F10
23E0
21E0
0000
0000
0000
E3E0
EFF0
F878
F038
F01C
E01C
E01C
E01C
E01C
E01C
E01C
E01C
E01C
E01C
E01C
E01C
E01C
ENDCHAR
STARTCHAR 00F2
ENCODING 242
SWIDTH 588 0
DWIDTH 20 0
BBX 17 25 2 0
BITMAP
070000
038000
018000
00C000
006000
000000
000000
000000
07F000
1FFC00
3C1E00
780F00
700700
F00380
E00380
E00380
E00380
E00380
E00380
E00380
700700
780F00
3C1E00
1FFC00
07F000
ENDCHAR
STARTCHAR 00F3
ENCODING 243
SWIDTH 588 0
DWIDTH 20 0
BBX 17 25 2 0
BITMAP
007000
00E000
00C000
018000
030000
000000
000000
000000
07F000
1FFC00
3C1E00
780F00
700700
F00380
E00380
E00380
E00380
E00380
E00380
E00380
700700
780F00
3C1E00
1FFC00
07F000
ENDCHAR
STARTCHAR 00F4
ENCODING 244
SWIDTH 588 0
DWIDTH 20 0
BBX 17 26 2 0
BITMAP
01C000
01C000
036000
067000
063000
0C1800
000000
000000
000000
07F000
1FFC00
3C1E00
780F00
700700
F00380
E00380
E00380
E00380
E00380
E00380
E00380
700700
780F00
3C1E00
1FFC00
07F000
ENDCHAR
STARTCHAR 00F5
ENCODING 245
SWIDTH 588 0
DWIDTH 20 0
BBX 17 24 2 0
BITMAP
078400
07C400
08F800
087800
000000
000000
000000
07F000
1FFC00
3C1E00
780F00
700700
F00380
E00380
E00380
E00380
E00380
E00380
E00380
700700
780F00
3C1E00
1FFC00
07F000
ENDCHAR
STARTCHAR 00F6
ENCODING 246
SWIDTH 588 0
DWIDTH 20 0
BBX 17 23 2 0
BITMAP
0E3800
0E3800
0E3800
000000
000000
000000
07F000
1FFC00
3C1E00
780F00
700700
F00380
E00380
E00380
E00380
E00380
E00380
E00380
700700
780F00
3C1E00
1FFC00
07F000
ENDCHAR
STARTCHAR 00F7
ENCODING 247
SWIDTH 676 0
DWIDTH 23 0
BBX 15 16 4 2
BITMAP
0180
0380
0380
0180
0000
0000
0000
FFFE
FFFE
0000
0000
0000
0180
0380
0380
0180
ENDCHAR
STARTCHAR 00F8
ENCODING 248
SWIDTH 588 0
DWIDTH 20 0
BBX 19 19 1 -1
BITMAP
000040
01F8E0
0FFFC0
1E0F80
3C0780
380F80
701DC0
7039C0
7071C0
70E1C0
71C1C0
7381C0
7701C0
3E0380
3C0780
3E0F00
7FFE00
E3F800
400000
ENDCHAR
STARTCHAR 00F9
ENCODING 249
SWIDTH 558 0
DWIDTH 19 0
BBX 15 25 2 0
BITMAP
0E00
0700
0300
0180
00C0
0000
0000
0000
E00E
E00E
E00E
E00E
E00E
E00E
E00E
E00E
E00E
E00E
E00E
E00E
E01E
701E
787E
3FEE
1F8E
ENDCHAR
STARTCHAR 00FA
ENCODING 250
SWIDTH 558 0
DWIDTH 19 0
BBX 15 25 2 0
BITMAP
0070
00E0
00C0
0180
0300
0000
0000
0000
E00E
E00E
E00E
E00E
E00E
E00E
E00E
E00E
E00E
E00E
E00E
E00E
E01E
701E
787E
3FEE
1F8E
ENDCHAR
STARTCHAR 00FB
ENCODING 251
SWIDTH 558 0
DWIDTH 19 0
BBX 15 26 2 0
BITMAP
0380
0380
06C0
0CE0
0C60
1830
0000
0000
0000
E00E
E00E
E00E
E00E
E00E
E00E
E00E
E00E
E00E
E00E
E00E
E00E
E01E
701E
787E
3FEE
1F8E
ENDCHAR
STARTCHAR 00FC
ENCODING 252
SWIDTH 558 0
DWIDTH 19 0
BBX 15 23 2 0
BITMAP
1C70
1C70
1C70
0000
0000
0000
E00E
E00E
E00E
E00E
E00E
E00E
E00E
E00E
E00E
E00E
E00E
E00E
E01E
701E
787E
3FEE
1F8E
ENDCHAR
STARTCHAR 00FD
ENCODING 253
SWIDTH 470 0
DWIDTH 16 0
BBX 16 33 0 -8
BITMAP
0070
00E0
00C0
0180
0300
0000
0000
0000
E007
7006
700E
700E
380C
381C
1818
1C38
1C38
0C30
0E70
0E60
0660
07E0
03C0
03C0
03C0
0380
0380
0300
0700
0600
0E00
7C00
7800
ENDCHAR
STARTCHAR 00FE
ENCODING 254
SWIDTH 588 0
DWIDTH 20 0
BBX 16 34 3 -8
BITMAP
E000
E000
E000
E000
E000
E000
E000
E000
E000
E3F0
EFF8
FC3C
F80E
F00E
E007
E007
E007
E007
E007
E007
E00F
F00E
F01E
FC3C
EFF8
E3E0
E000
E000
E000
E000
E000
E000
E000
E000
ENDCHAR
STARTCHAR 00FF
ENCODING 255
SWIDTH 470 0
DWIDTH 16 0
BBX 16 31 0 -8
BITMAP
0E38
0E38
0E38
0000
0000
0000
E007
7006
700E
700E
380C
381C
1818
1C38
1C38
0C30
0E70
0E60
0660
07E0
03C0
03C0
03C0
0380
0380
0300
0700
0600
0E00
7C00
7800
ENDCHAR
STARTCHAR 0131
ENCODING 305
SWIDTH 235 0
DWIDTH 8 0
BBX 3 17 3 0
BITMAP
E0
E0
E0
E0
E0
E0
E0
E0
E0
E0
E0
E0
E0
E0
E0
E0
E0
ENDCHAR
STARTCHAR 0152
ENCODING 338
SWIDTH 941 0
DWIDTH 32 0
BBX 28 24 2 0
BITMAP
00FFFFE0
07FFFFE0
0F80E000
1E00E000
3C00E000
7800E000
7000E000
7000E000
E000E000
E000E000
E000E000
E000FFE0
E000FFE0
E000E000
E000E000
E000E000
7000E000
7000E000
7800E000
3C00E000
1E00E000
0F00E000
07FFFFF0
01FFFFF0
ENDCHAR
STARTCHAR 0153
ENCODING 339
SWIDTH 941 0
DWIDTH 32 0
BBX 29 17 2 0
BITMAP
03F01F80
1FFC7FE0
3C1EF0E0
780FE070
7007C038
F0038038
E0038038
E003FFF8
E003FFF8
E0038000
E0038000
E0038000
7007C000
780FE010
3C1EF070
1FF87FF0
07F01FC0
ENDCHAR
STARTCHAR 0160
ENCODING 352
SWIDTH 529 0
DWIDTH 18 0
BBX 14 31 2 0
BITMAP
1830
0C60
06C0
07C0
0380
0000
0000
07F0
1FF8
7818
7008
E000
E000
E000
E000
F000
7800
3E00
1F80
07E0
01F0
0078
003C
001C
001C
001C
001C
C038
F078
FFF0
1F80
ENDCHAR
STARTCHAR 0161
ENCODING 353
SWIDTH 411 0
DWIDTH 14 0
BBX 11 25 2 0
BITMAP
C180
6300
3600
3E00
1C00
0000
0000
0000
1F80
3FC0
7040
E000
E000
E000
F000
7C00
3F80
0FC0
01E0
00E0
00E0
80E0
C1C0
FF80
7F00
ENDCHAR
STARTCHAR 0178
ENCODING 376
SWIDTH 558 0
DWIDTH 19 0
BBX 19 29 0 0
BITMAP
071C00
071C00
071C00
000000
000000
E000E0
7001C0
7801C0
380380
3C0380
1C0700
1E0F00
0E0E00
071C00
071C00
03B800
03B800
01F000
01F000
00E000
00E000
00E000
00E000
00E000
00E000
00E000
00E000
00E000
00E000
ENDCHAR
STARTCHAR 017D
ENCODING 381
SWIDTH 558 0
DWIDTH 19 0
BBX 17 31 1 0
BITMAP
060C00
031800
01B000
01F000
00E000
000000
000000
7FFF80
7FFF00
000700
000E00
001E00
001C00
003800
003800
007000
00F000
00E000
01C000
01C000
038000
078000
070000
0E0000
0E0000
1C0000
380000
380000
700000
7FFF80
FFFF80
ENDCHAR
STARTCHAR 017E
ENCODING 382
SWIDTH 441 0
DWIDTH 15 0
BBX 13 25 1 0
BITMAP
1830
0C60
06C0
07C0
0380
0000
0000
0000
7FF8
7FF0
0070
00E0
00E0
01C0
0380
0380
0700
0E00
0E00
1C00
3800
3800
7000
FFF8
FFF8
ENDCHAR
STARTCHAR 0192
ENCODING 402
SWIDTH 529 0
DWIDTH 18 0
BBX 14 29 2 -5
BITMAP
003C
00FC
01E0
01C0
01C0
0180
0180
0380
0FF0
0FF0
0380
0380
0300
0300
0700
0700
0700
0700
0700
0600
0600
0600
0E00
0E00
0E00
1C00
1C00
F800
F000
ENDCHAR
STARTCHAR 02C6
ENCODING 710
SWIDTH 382 0
DWIDTH 13 0
BBX 9 6 2 20
BITMAP
1C00
1C00
3600
6700
6300
C180
ENDCHAR
STARTCHAR 02C7
ENCODING 711
SWIDTH 382 0
DWIDTH 13 0
BBX 9 5 2 20
BITMAP
C180
6300
3600
3E00
1C00
ENDCHAR
STARTCHAR 02DA
ENCODING 730
SWIDTH 294 0
DWIDTH 10 0
BBX 7 6 1 20
BITMAP
7C
C6
82
82
C6
78
ENDCHAR
STARTCHAR 02DC
ENCODING 732
SWIDTH 323 0
DWIDTH 11 0
BBX 10 4 1 20
BITMAP
7840
7C40
8F80
8780
ENDCHAR
STARTCHAR 0305
ENCODING 773
SWIDTH 0 0
DWIDTH 0 0
BBX 14 2 -7 24
BITMAP
FFFC
FFFC
ENDCHAR
STARTCHAR 1680
ENCODING 5760
SWIDTH 411 0
DWIDTH 14 0
BBX 16 1 -1 10
BITMAP
FFFF
ENDCHAR
STARTCHAR 1681
ENCODING 5761
SWIDTH 294 0
DWIDTH 10 0
BBX 11 13 -1 -3
BITMAP
FFE0
0600
0600
0600
0600
0600
0600
0600
0600
0600
0600
0600
0600
ENDCHAR
STARTCHAR 1682
ENCODING 5762
SWIDTH 411 0
DWIDTH 14 0
BBX 16 13 -1 -3
BITMAP
FFFF
0660
0660
0660
0660
0660
0660
0660
0660
0660
0660
0660
0660
ENDCHAR
STARTCHAR 1683
ENCODING 5763
SWIDTH 558 0
DWIDTH 19 0
BBX 20 13 -1 -3
BITMAP
FFFFF0
066300
066300
066300
066300
066300
066300
066300
066300
066300
066300
066300
066300
ENDCHAR
STARTCHAR 1684
ENCODING 5764
SWIDTH 676 0
DWIDTH 23 0
BBX 25 13 -1 -3
BITMAP
FFFFFF80
06633000
06633000
06633000
06633000
06633000
06633000
06633000
06633000
06633000
06633000
06633000
06633000
ENDCHAR
STARTCHAR 1685
ENCODING 5765
SWIDTH 823 0
DWIDTH 28 0
BBX 29 13 -1 -3
BITMAP
FFFFFFF8
06633180
06633180
06633180
06633180
06633180
06633180
06633180
06633180
06633180
06633180
06633180
06633180
ENDCHAR
STARTCHAR 1686
ENCODING 5766
SWIDTH 294 0
DWIDTH 10 0
BBX 11 14 -1 10
BITMAP
0600
0600
0600
0600
0600
0600
0600
0600
0600
0600
0600
0600
0600
FFE0
ENDCHAR
STARTCHAR 1687
ENCODING 5767
SWIDTH 411 0
DWIDTH 14 0
BBX 16 14 -1 10
BITMAP
0660
0660
0660
0660
0660
0660
0660
0660
0660
0660
0660
0660
0660
FFFF
ENDCHAR
STARTCHAR 1688
ENCODING 5768
SWIDTH 558 0
DWIDTH 19 0
BBX 20 14 -1 10
BITMAP
066300
066300
066300
066300
066300
066300
066300
066300
066300
066300
066300
066300
066300
FFFFF0
ENDCHAR
STARTCHAR 1689
ENCODING 5769
SWIDTH 676 0
DWIDTH 23 0
BBX 25 14 -1 10
BITMAP
06633000
06633000
06633000
06633000
06633000
06633000
06633000
06633000
06633000
06633000
06633000
06633000
06633000
FFFFFF80
ENDCHAR
STARTCHAR 168A
ENCODING 5770
SWIDTH 823 0
DWIDTH 28 0
BBX 29 14 -1 10
BITMAP
06633180
06633180
06633180
06633180
06633180
06633180
06633180
06633180
06633180
06633180
06633180
06633180
06633180
FFFFFFF8
ENDCHAR
STARTCHAR 168B
ENCODING 5771
SWIDTH 294 0
DWIDTH 10 0
BBX 11 26 -1 -3
BITMAP
00C0
00C0
01C0
0180
0180
0180
0380
0300
0300
0300
0700
0600
0600
FFE0
0E00
0C00
0C00
0C00
1C00
1800
1800
1800
3800
3000
3000
3000
ENDCHAR
STARTCHAR 168C
ENCODING 5772
SWIDTH 411 0
DWIDTH 14 0
BBX 16 26 -1 -3
BITMAP
00CE
00CC
01CC
018C
019C
0198
0398
0318
0338
0330
0730
0630
0670
FFFF
0E60
0C60
0CE0
0CC0
1CC0
18C0
19C0
1980
3980
3180
3380
3300
ENDCHAR
STARTCHAR 168D
ENCODING 5773
SWIDTH 558 0
DWIDTH 19 0
BBX 20 26 -1 -3
BITMAP
00CE60
00CC60
01CCE0
018CC0
019CC0
0198C0
0399C0
031980
033980
033180
073380
063300
067300
FFFFF0
0E6700
0C6600
0CE600
0CC600
1CCE00
18CC00
19CC00
198C00
399C00
319800
339800
331800
ENDCHAR
STARTCHAR 168E
ENCODING 5774
SWIDTH 676 0
DWIDTH 23 0
BBX 25 26 -1 -3
BITMAP
00CE6700
00CC6600
01CCE600
018CC600
019CCE00
0198CC00
0399CC00
03198C00
03399C00
03319800
07339800
06331800
06733800
FFFFFF80
0E673000
0C663000
0CE67000
0CC66000
1CCE6000
18CC6000
19CCE000
198CC000
399CC000
3198C000
3399C000
33198000
ENDCHAR
STARTCHAR 168F
ENCODING 5775
SWIDTH 823 0
DWIDTH 28 0
BBX 29 26 -1 -3
BITMAP
00CE6730
00CC6670
01CCE660
018CC660
019CCE60
0198CCE0
0399CCC0
03198CC0
03399CC0
033199C0
07339980
06331980
06733980
FFFFFFF8
0E673300
0C663300
0CE67300
0CC66700
1CCE6600
18CC6600
19CCE600
198CCE00
399CCC00
3198CC00
3399CC00
33199C00
ENDCHAR
STARTCHAR 1690
ENCODING 5776
SWIDTH 294 0
DWIDTH 10 0
BBX 11 4 -1 8
BITMAP
0600
0F00
FFE0
0600
ENDCHAR
STARTCHAR 1691
ENCODING 5777
SWIDTH 411 0
DWIDTH 14 0
BBX 16 5 -1 8
BITMAP
0660
0FF0
FFFF
0670
0020
ENDCHAR
STARTCHAR 1692
ENCODING 5778
SWIDTH 558 0
DWIDTH 19 0
BBX 20 5 -1 8
BITMAP
066300
0FF780
FFFFF0
067700
002200
ENDCHAR
STARTCHAR 1693
ENCODING 5779
SWIDTH 676 0
DWIDTH 23 0
BBX 25 5 -1 8
BITMAP
06633000
0FF7F800
FFFFFF80
06773800
00221000
ENDCHAR
STARTCHAR 1694
ENCODING 5780
SWIDTH 823 0
DWIDTH 28 0
BBX 29 5 -1 8
BITMAP
06633180
0FF7FBC0
FFFFFFF8
06773B80
00221100
ENDCHAR
STARTCHAR 1695
ENCODING 5781
SWIDTH 294 0
DWIDTH 10 0
BBX 11 26 -1 -3
BITMAP
30C0
30C0
31C0
3980
1980
1980
1B80
1F00
0F00
0F00
0F00
0E00
0600
FFE0
0E00
0F00
0F00
0F00
1F00
1B80
1980
1980
3980
31C0
30C0
30C0
ENDCHAR
STARTCHAR 1696
ENCODING 5782
SWIDTH 411 0
DWIDTH 14 0
BBX 16 25 -1 -2
BITMAP
0180
01C0
03C0
03E0
0660
0670
0C30
1C18
1818
380C
300C
7006
FFFF
300E
300C
1818
1C18
0C30
0E30
0660
03E0
03C0
01C0
0180
0080
ENDCHAR
STARTCHAR 1697
ENCODING 5783
SWIDTH 558 0
DWIDTH 19 0
BBX 20 13 -1 -3
BITMAP
FFFFF0
060000
060000
060000
063F00
063F00
063F00
060300
060300
060300
060300
07FF00
07FF00
ENDCHAR
STARTCHAR 1698
ENCODING 5784
SWIDTH 558 0
DWIDTH 19 0
BBX 20 13 -1 -3
BITMAP
FFFFF0
18D9C0
0CF180
0E7300
07FE00
03DE00
039C00
03FE00
06F700
0E7380
1CF980
39D8C0
338CE0
ENDCHAR
STARTCHAR 1699
ENCODING 5785
SWIDTH 676 0
DWIDTH 23 0
BBX 25 21 -1 10
BITMAP
06633000
06633000
1FFFFE00
1FFFFE00
06633000
06633000
1FFFFE00
1FFFFE00
06633000
06633000
06633000
1FFFFE00
1FFFFE00
06633000
06633000
1FFFFE00
1FFFFE00
06633000
06633000
06633000
FFFFFF80
ENDCHAR
STARTCHAR 169A
ENCODING 5786
SWIDTH 558 0
DWIDTH 19 0
BBX 20 4 -1 7
BITMAP
FFFFF0
000000
0FFF80
0FFF80
ENDCHAR
STARTCHAR 169B
ENCODING 5787
SWIDTH 411 0
DWIDTH 14 0
BBX 15 26 0 -3
BITMAP
E000
6000
7000
3000
3800
1800
0C00
0C00
0600
0600
0300
0300
0180
01FE
0380
0300
0700
0600
0C00
0C00
1800
1800
3000
7000
6000
E000
ENDCHAR
STARTCHAR 169C
ENCODING 5788
SWIDTH 411 0
DWIDTH 14 0
BBX 15 26 -1 -3
BITMAP
0006
000C
000C
0018
0018
0030
0070
0060
00E0
00C0
01C0
0180
0300
FF00
0180
0180
00C0
00C0
0060
0070
0030
0038
0018
001C
000C
0006
ENDCHAR
STARTCHAR 16A0
ENCODING 5792
SWIDTH 647 0
DWIDTH 22 0
BBX 18 24 3 0
BITMAP
E071C0
E071C0
E071C0
E071C0
E0E380
E1E380
E3C780
FF8700
FE0E00
FC1E00
E03C00
E0F800
E3F000
FFC000
FF0000
FC0000
E00000
E00000
E00000
E00000
E00000
E00000
E00000
E00000
ENDCHAR
STARTCHAR 16A1
ENCODING 5793
SWIDTH 647 0
DWIDTH 22 0
BBX 18 24 3 0
BITMAP
E671C0
EE71C0
EE71C0
E071C0
E0E380
E1E380
E3C780
FF8700
FE0E00
FC1E00
E03C00
E0F800
E3F000
FFC000
FF0000
FC0000
E00000
E00000
E00000
E00000
E00000
E00000
E00000
E00000
ENDCHAR
STARTCHAR 16A2
ENCODING 5794
SWIDTH 588 0
DWIDTH 20 0
BBX 14 24 3 0
BITMAP
FE00
FF80
FFE0
E0F0
E078
E038
E03C
E01C
E01C
E01C
E01C
E00C
E00C
E00C
E00C
E00C
E00C
E00C
E00C
E00C
E00C
E00C
E00C
E00C
ENDCHAR
STARTCHAR 16A3
ENCODING 5795
SWIDTH 529 0
DWIDTH 18 0
BBX 14 24 3 0
BITMAP
F800
FC00
FC00
FC00
EE00
EE00
E700
E700
E700
E380
E380
E1C0
E1C0
E1C0
E0E0
E0E0
E070
E770
E770
E738
E738
E71C
E71C
E71C
ENDCHAR
STARTCHAR 16A4
ENCODING 5796
SWIDTH 588 0
DWIDTH 20 0
BBX 14 24 3 0
BITMAP
FE00
FF80
FFE0
E0F0
E078
E038
E03C
E01C
E01C
E01C
E31C
E38C
E38C
E00C
E00C
E00C
E00C
E00C
E00C
E00C
E00C
E00C
E00C
E00C
ENDCHAR
STARTCHAR 16A5
ENCODING 5797
SWIDTH 617 0
DWIDTH 21 0
BBX 15 24 3 0
BITMAP
FE00
FFC0
FFE0
E0F0
E038
E03C
E01C
FC0E
FE0E
EF0E
E70E
E38E
E38E
E38E
E38E
E38E
E38E
E38E
E38E
E38E
E38E
E38E
E38E
E38E
ENDCHAR
STARTCHAR 16A6
ENCODING 5798
SWIDTH 470 0
DWIDTH 16 0
BBX 12 24 3 0
BITMAP
E000
E000
E000
F800
FE00
FF80
E3C0
E1E0
E0E0
E070
E070
E070
E070
E070
E0E0
E1E0
E3C0
FF80
FF00
FC00
E000
E000
E000
E000
ENDCHAR
STARTCHAR 16A7
ENCODING 5799
SWIDTH 470 0
DWIDTH 16 0
BBX 12 24 3 0
BITMAP
E000
E000
E000
F800
FE00
FF80
E3C0
E1E0
E0E0
E070
E670
EE70
EE70
E070
E0E0
E1E0
E3C0
FF80
FF00
FC00
E000
E000
E000
E000
ENDCHAR
STARTCHAR 16A8
ENCODING 5800
SWIDTH 382 0
DWIDTH 13 0
BBX 8 24 3 0
BITMAP
F0
FE
FF
EF
E1
E0
E0
FC
FF
EF
E1
E0
E0
E0
E0
E0
E0
E0
E0
E0
E0
E0
E0
E0
ENDCHAR
STARTCHAR 16A9
ENCODING 5801
SWIDTH 529 0
DWIDTH 18 0
BBX 14 24 3 0
BITMAP
F004
FE3C
FFFC
EFF0
E180
E000
E004
FC1C
FFFC
EFF8
E1C0
E000
E000
E000
E000
E000
E000
E000
E000
E000
E000
E000
E000
E000
ENDCHAR
STARTCHAR 16AA
ENCODING 5802
SWIDTH 529 0
DWIDTH 18 0
BBX 14 24 3 0
BITMAP
F004
FE3C
FFFC
EFF0
E180
E000
E000
FC00
FF00
EF00
E100
E000
E000
E000
E000
E000
E000
E000
E000
E000
E000
E000
E000
E000
ENDCHAR
STARTCHAR 16AB
ENCODING 5803
SWIDTH 470 0
DWIDTH 16 0
BBX 12 24 3 0
BITMAP
F000
FE00
FF80
EFF0
E1F0
E030
E000
FC00
FF80
EFF0
E1F0
E070
E000
E000
E000
E000
E000
E000
E000
E000
E000
E000
E000
E000
ENDCHAR
STARTCHAR 16AC
ENCODING 5804
SWIDTH 470 0
DWIDTH 16 0
BBX 14 24 1 0
BITMAP
0380
0380
0380
0380
0380
C380
FB80
FF80
1FE0
03F8
03FC
C39C
F380
FF80
3FC0
07F8
03FC
039C
0384
0380
0380
0380
0380
0380
ENDCHAR
STARTCHAR 16AD
ENCODING 5805
SWIDTH 382 0
DWIDTH 13 0
BBX 8 24 3 0
BITMAP
E0
E0
E0
E0
E0
E0
E0
E0
F8
FF
FF
E3
E0
E0
F0
FE
FF
E7
E0
E0
E0
E0
E0
E0
ENDCHAR
STARTCHAR 16AE
ENCODING 5806
SWIDTH 382 0
DWIDTH 13 0
BBX 9 24 1 0
BITMAP
0380
0380
0380
0380
0380
0380
0380
0380
0F80
7F80
FF80
E380
0380
0380
0F80
7F80
FF80
F380
8380
0380
0380
0380
0380
0380
ENDCHAR
STARTCHAR 16AF
ENCODING 5807
SWIDTH 470 0
DWIDTH 16 0
BBX 14 24 1 0
BITMAP
0380
0380
0380
0380
0380
038C
03FC
03FC
0FE0
7F80
FF80
E38C
03BC
03FC
0FF0
7F80
FF80
E380
8380
0380
0380
0380
0380
0380
ENDCHAR
STARTCHAR 16B0
ENCODING 5808
SWIDTH 470 0
DWIDTH 16 0
BBX 14 24 1 0
BITMAP
0380
0380
0380
0380
0380
038C
03FC
03FC
0FE0
7F80
FF80
E380
0380
0380
0F80
7F80
FF80
E380
8380
0380
0380
0380
0380
0380
ENDCHAR
STARTCHAR 16B1
ENCODING 5809
SWIDTH 529 0
DWIDTH 18 0
BBX 14 24 3 0
BITMAP
F000
F800
FE00
EF80
E3E0
E0F8
E038
E078
E0E0
E1C0
E380
E700
E700
E700
E380
E3C0
E1C0
E1E0
E0E0
E0F0
E070
E078
E038
E03C
ENDCHAR
STARTCHAR 16B2
ENCODING 5810
SWIDTH 323 0
DWIDTH 11 0
BBX 8 11 1 5
BITMAP
07
0E
1C
38
70
E0
70
38
1C
0E
0F
ENDCHAR
STARTCHAR 16B3
ENCODING 5811
SWIDTH 411 0
DWIDTH 14 0
BBX 10 24 3 0
BITMAP
E000
E000
E000
E000
E000
E000
E000
E000
E000
E000
E000
E000
E000
F000
F800
F800
FC00
EC00
EE00
E700
E700
E380
E1C0
E1C0
ENDCHAR
STARTCHAR 16B4
ENCODING 5812
SWIDTH 529 0
DWIDTH 18 0
BBX 14 24 3 0
BITMAP
E01C
E01C
E01C
E01C
E038
E038
E078
E070
E1E0
E3C0
FF80
FF00
FC00
E000
E000
E000
E000
E000
E000
E000
E000
E000
E000
E000
ENDCHAR
STARTCHAR 16B5
ENCODING 5813
SWIDTH 529 0
DWIDTH 18 0
BBX 14 24 3 0
BITMAP
E01C
E01C
E21C
E71C
E738
E238
E078
E070
E1E0
E3C0
FF80
FF00
FC00
E000
E000
E000
E000
E000
E000
E000
E000
E000
E000
E000
ENDCHAR
STARTCHAR 16B6
ENCODING 5814
SWIDTH 529 0
DWIDTH 18 0
BBX 16 24 1 0
BITMAP
3807
3807
3807
3807
380E
380E
381E
381C
3878
7CF0
FFE0
FFC0
FF00
FE00
7C00
3800
3800
3800
3800
3800
3800
3800
3800
3800
ENDCHAR
STARTCHAR 16B7
ENCODING 5815
SWIDTH 470 0
DWIDTH 16 0
BBX 15 24 1 0
BITMAP
E00E
F01C
701C
7038
3838
3870
1C70
1CE0
0EE0
0FC0
07C0
0780
0780
07C0
0FC0
0EE0
1CE0
1C70
3870
3838
7038
701C
E01C
E01E
ENDCHAR
STARTCHAR 16B8
ENCODING 5816
SWIDTH 470 0
DWIDTH 16 0
BBX 15 24 1 0
BITMAP
E00E
F01C
701C
7038
3838
3870
1C70
1CF0
3EF0
3FD8
67D8
638C
638C
67D8
3FD8
3EF0
1CF0
1C70
3870
3838
7038
701C
E01C
E01E
ENDCHAR
STARTCHAR 16B9
ENCODING 5817
SWIDTH 529 0
DWIDTH 18 0
BBX 13 24 3 0
BITMAP
F000
F800
FE00
EF80
E3E0
E0F8
E078
E0F0
E3E0
E780
FE00
FC00
F000
E000
E000
E000
E000
E000
E000
E000
E000
E000
E000
E000
ENDCHAR
STARTCHAR 16BA
ENCODING 5818
SWIDTH 588 0
DWIDTH 20 0
BBX 14 24 3 0
BITMAP
E00C
E00C
E00C
E00C
E00C
E00C
E00C
E00C
E00C
F80C
FF0C
FFCC
E3FC
E0FC
E01C
E00C
E00C
E00C
E00C
E00C
E00C
E00C
E00C
E00C
ENDCHAR
STARTCHAR 16BB
ENCODING 5819
SWIDTH 588 0
DWIDTH 20 0
BBX 14 24 3 0
BITMAP
E00C
E00C
E00C
E00C
E00C
E00C
F80C
FF0C
FFEC
E3FC
E07C
E01C
F80C
FE0C
FFCC
E7FC
E0FC
E01C
E00C
E00C
E00C
E00C
E00C
E00C
ENDCHAR
STARTCHAR 16BC
ENCODING 5820
SWIDTH 470 0
DWIDTH 16 0
BBX 14 24 1 0
BITMAP
0300
0300
0300
0300
0300
8304
C30C
F33C
7B78
3FF0
0FE0
0780
0FC0
1FE0
3B78
F33C
E31C
C30C
8300
0300
0300
0300
0300
0300
ENDCHAR
STARTCHAR 16BD
ENCODING 5821
SWIDTH 264 0
DWIDTH 9 0
BBX 7 24 1 0
BITMAP
38
38
38
38
38
38
38
38
38
7C
FE
FE
FE
FE
7C
38
38
38
38
38
38
38
38
38
ENDCHAR
STARTCHAR 16BE
ENCODING 5822
SWIDTH 470 0
DWIDTH 16 0
BBX 14 24 1 0
BITMAP
0380
0380
0380
0380
0380
0380
0380
0380
C380
FB80
FF80
1FC0
07F8
03FC
039C
0380
0380
0380
0380
0380
0380
0380
0380
0380
ENDCHAR
STARTCHAR 16BF
ENCODING 5823
SWIDTH 382 0
DWIDTH 13 0
BBX 8 24 3 0
BITMAP
E0
E0
E0
E0
E0
E0
E0
E0
E0
E0
E0
F8
FE
FF
E7
E0
E0
E0
E0
E0
E0
E0
E0
E0
ENDCHAR
STARTCHAR 16C0
ENCODING 5824
SWIDTH 470 0
DWIDTH 16 0
BBX 14 24 1 0
BITMAP
0380
0380
0380
0380
0380
0380
0380
0380
C380
FFC0
FFE0
1FE0
1FF8
0FFC
0FDC
0380
0380
0380
0380
0380
0380
0380
0380
0380
ENDCHAR
STARTCHAR 16C1
ENCODING 5825
SWIDTH 264 0
DWIDTH 9 0
BBX 3 24 3 0
BITMAP
E0
E0
E0
E0
E0
E0
E0
E0
E0
E0
E0
E0
E0
E0
E0
E0
E0
E0
E0
E0
E0
E0
E0
E0
ENDCHAR
STARTCHAR 16C2
ENCODING 5826
SWIDTH 264 0
DWIDTH 9 0
BBX 7 24 1 0
BITMAP
38
38
38
38
38
38
38
38
38
7C
FE
FE
FE
FE
7C
38
38
38
38
38
38
38
38
38
ENDCHAR
STARTCHAR 16C3
ENCODING 5827
SWIDTH 500 0
DWIDTH 17 0
BBX 14 16 2 3
BITMAP
0E00
1C00
3800
7000
F000
E3C0
E1C0
70E0
7870
3838
1C1C
0E38
0070
00E0
01C0
03C0
ENDCHAR
STARTCHAR 16C4
ENCODING 5828
SWIDTH 352 0
DWIDTH 12 0
BBX 12 24 0 0
BITMAP
0700
0700
0700
0700
0700
0F00
0F80
1FC0
36C0
7760
6770
C730
C730
6770
7760
37C0
1FC0
0F80
0F00
0700
0700
0700
0700
0700
ENDCHAR
STARTCHAR 16C5
ENCODING 5829
SWIDTH 470 0
DWIDTH 16 0
BBX 14 24 1 0
BITMAP
0380
0380
0380
0380
0380
0380
0380
0380
038C
03FC
03FC
0FF0
7F80
FF80
E380
0380
0380
0380
0380
0380
0380
0380
0380
0380
ENDCHAR
STARTCHAR 16C6
ENCODING 5830
SWIDTH 382 0
DWIDTH 13 0
BBX 9 24 1 0
BITMAP
0380
0380
0380
0380
0380
0380
0380
0380
0380
0380
0380
0F80
7F80
FF80
E380
0380
0380
0380
0380
0380
0380
0380
0380
0380
ENDCHAR
STARTCHAR 16C7
ENCODING 5831
SWIDTH 470 0
DWIDTH 16 0
BBX 14 24 1 0
BITMAP
0380
03F0
03FC
03BC
038C
0380
0380
0380
0380
0380
0380
0380
0380
0380
0380
0380
0380
0380
0380
8380
F380
FF80
3F80
0780
ENDCHAR
STARTCHAR 16C8
ENCODING 5832
SWIDTH 529 0
DWIDTH 18 0
BBX 14 24 3 0
BITMAP
F004
FE3C
FFFC
EFF0
E180
E000
E000
E000
E000
E000
E000
E000
E000
E000
E000
E000
E000
E000
E000
E080
E7F0
FFFC
FE7C
F00C
ENDCHAR
STARTCHAR 16C9
ENCODING 5833
SWIDTH 529 0
DWIDTH 18 0
BBX 18 24 0 0
BITMAP
E0E1C0
70E380
38E380
38E700
1CEF00
1CEE00
0EDC00
06DC00
07F800
03F000
01F000
01E000
00E000
00E000
00E000
00E000
00E000
00E000
00E000
00E000
00E000
00E000
00E000
00E000
ENDCHAR
STARTCHAR 16CA
ENCODING 5834
SWIDTH 382 0
DWIDTH 13 0
BBX 11 24 1 0
BITMAP
01E0
0780
0F00
1E00
3800
F000
F000
3C00
1E00
0F00
0780
03C0
0780
0F00
1E00
3C00
7800
F000
F800
7C00
1E00
0F00
07C0
03E0
ENDCHAR
STARTCHAR 16CB
ENCODING 5835
SWIDTH 558 0
DWIDTH 19 0
BBX 13 24 3 0
BITMAP
E000
E000
E000
E000
E000
E000
E000
E000
E000
E078
E3F8
FFF8
FF18
FC18
E018
0018
0018
0018
0018
0018
0018
0018
0018
0018
ENDCHAR
STARTCHAR 16CC
ENCODING 5836
SWIDTH 264 0
DWIDTH 9 0
BBX 3 12 3 11
BITMAP
E0
E0
E0
E0
E0
E0
E0
E0
E0
E0
E0
E0
ENDCHAR
STARTCHAR 16CD
ENCODING 5837
SWIDTH 264 0
DWIDTH 9 0
BBX 7 16 1 8
BITMAP
38
38
38
38
38
38
38
38
38
7C
FE
FE
FE
FE
7C
10
ENDCHAR
STARTCHAR 16CE
ENCODING 5838
SWIDTH 470 0
DWIDTH 16 0
BBX 14 17 1 6
BITMAP
0380
0380
0380
0380
0380
0380
0380
0380
0380
C384
E39C
F3BC
7BF8
1FF0
0FC0
0780
0300
ENDCHAR
STARTCHAR 16CF
ENCODING 5839
SWIDTH 470 0
DWIDTH 16 0
BBX 14 24 1 1
BITMAP
0300
0780
0FE0
3FF0
7BF8
F3BC
C38C
8384
0380
0380
0380
0380
0380
0380
0380
0380
0380
0380
0380
0380
0380
0380
0380
0380
ENDCHAR
STARTCHAR 16D0
ENCODING 5840
SWIDTH 382 0
DWIDTH 13 0
BBX 9 24 1 0
BITMAP
0380
0780
0F80
3F80
7B80
F380
C380
8380
0380
0380
0380
0380
0380
0380
0380
0380
0380
0380
0380
0380
0380
0380
0380
0380
ENDCHAR
STARTCHAR 16D1
ENCODING 5841
SWIDTH 382 0
DWIDTH 13 0
BBX 11 24 1 0
BITMAP
0380
0780
0F80
3F80
7B80
F380
C380
8380
0380
0FC0
0FE0
1FE0
1FE0
0FC0
0FC0
0380
0380
0380
0380
0380
0380
0380
0380
0380
ENDCHAR
STARTCHAR 16D2
ENCODING 5842
SWIDTH 529 0
DWIDTH 18 0
BBX 13 24 3 0
BITMAP
F000
FC00
FE00
EF80
E3E0
E0F8
E038
E0F0
E3E0
E780
FE00
FC00
FE00
EF80
E3C0
E1F0
E078
E078
E0F0
E3C0
EF80
FE00
F800
F000
ENDCHAR
STARTCHAR 16D3
ENCODING 5843
SWIDTH 382 0
DWIDTH 13 0
BBX 8 24 3 0
BITMAP
E0
E0
E0
E0
E0
E3
EF
FF
FC
E0
E0
E1
EF
FF
FC
E0
E0
E0
E0
E0
E0
E0
E0
E0
ENDCHAR
STARTCHAR 16D4
ENCODING 5844
SWIDTH 529 0
DWIDTH 18 0
BBX 13 24 3 0
BITMAP
FF00
FFE0
FFF0
E070
E038
E638
E738
E738
E038
E070
E1F0
FFC0
FFE0
E3F0
E078
E038
E738
E738
E638
E038
E078
FFF0
FFE0
FF80
ENDCHAR
STARTCHAR 16D5
ENCODING 5845
SWIDTH 500 0
DWIDTH 17 0
BBX 14 24 3 0
BITMAP
E038
E078
E070
E0E0
E1E0
E1C0
E380
E380
E700
EE00
EE00
FC00
FC00
EE00
EF00
E700
E380
E3C0
E1C0
E0E0
E0F0
E078
E038
E03C
ENDCHAR
STARTCHAR 16D6
ENCODING 5846
SWIDTH 617 0
DWIDTH 21 0
BBX 15 24 3 0
BITMAP
E00E
F00E
F81E
FC3E
FC76
EEE6
E7E6
E3C6
E186
E006
E006
E006
E006
E006
E006
E006
E006
E006
E006
E006
E006
E006
E006
E006
ENDCHAR
STARTCHAR 16D7
ENCODING 5847
SWIDTH 617 0
DWIDTH 21 0
BBX 15 24 3 0
BITMAP
E00E
F00E
F81E
FC3E
FC76
EEE6
E7E6
E3C6
E3C6
E7E6
EEE6
FC76
FC3E
F81E
F00E
E006
E006
E006
E006
E006
E006
E006
E006
E006
ENDCHAR
STARTCHAR 16D8
ENCODING 5848
SWIDTH 558 0
DWIDTH 19 0
BBX 15 24 2 0
BITMAP
E386
E386
E38E
E38E
E38E
739C
7BBC
3FF8
1FF0
0380
0380
0380
0380
0380
0380
0380
0380
0380
0380
0380
0380
0380
0380
0380
ENDCHAR
STARTCHAR 16D9
ENCODING 5849
SWIDTH 264 0
DWIDTH 9 0
BBX 7 24 1 1
BITMAP
7C
FE
FE
FE
FE
FE
7C
38
38
38
38
38
38
38
38
38
38
38
38
38
38
38
38
38
ENDCHAR
STARTCHAR 16DA
ENCODING 5850
SWIDTH 382 0
DWIDTH 13 0
BBX 8 24 3 0
BITMAP
E0
F0
F8
FC
EF
E7
E3
E1
E0
E0
E0
E0
E0
E0
E0
E0
E0
E0
E0
E0
E0
E0
E0
E0
ENDCHAR
STARTCHAR 16DB
ENCODING 5851
SWIDTH 382 0
DWIDTH 13 0
BBX 10 24 1 0
BITMAP
3800
3C00
3E00
3F00
3BC0
39C0
38C0
3840
3800
7C00
FE00
FE00
FE00
FE00
7C00
3800
3800
3800
3800
3800
3800
3800
3800
3800
ENDCHAR
STARTCHAR 16DC
ENCODING 5852
SWIDTH 441 0
DWIDTH 15 0
BBX 15 16 0 3
BITMAP
0100
0380
07C0
0FE0
1EF0
1C78
383C
701E
F01E
783C
3C78
1EF0
0FE0
07C0
0380
0100
ENDCHAR
STARTCHAR 16DD
ENCODING 5853
SWIDTH 500 0
DWIDTH 17 0
BBX 15 24 1 0
BITMAP
F01C
7838
3C70
1EE0
0FC0
07C0
07C0
0FE0
1EF0
3C70
7838
F01C
F01E
783C
3C78
1EF0
0FE0
07C0
0780
0FC0
1EE0
3C70
7838
703C
ENDCHAR
STARTCHAR 16DE
ENCODING 5854
SWIDTH 617 0
DWIDTH 21 0
BBX 15 24 3 0
BITMAP
E006
F00E
F01E
F81E
F83E
FC36
EC76
EE66
E6E6
E7C6
E3C6
E386
E386
E3C6
E7C6
EEE6
EE76
FC76
FC3E
F83E
F81E
F00E
F00E
E006
ENDCHAR
STARTCHAR 16DF
ENCODING 5855
SWIDTH 470 0
DWIDTH 16 0
BBX 14 24 1 1
BITMAP
0300
0300
0780
0FC0
1FC0
1CE0
3870
7038
F038
E01C
E01C
7038
7878
3870
1CE0
0FC0
0FC0
0780
0780
0FC0
1FE0
1CE0
3870
7038
ENDCHAR
STARTCHAR 16E0
ENCODING 5856
SWIDTH 558 0
DWIDTH 19 0
BBX 17 24 1 1
BITMAP
808080
C1C180
E7F380
7FFF00
3FFE00
19CC00
01C000
01C000
01C000
01C000
01C000
01C000
01C000
01C000
01C000
01C000
01C000
01C000
01C000
01C000
01C000
01C000
01C000
01C000
ENDCHAR
STARTCHAR 16E1
ENCODING 5857
SWIDTH 470 0
DWIDTH 16 0
BBX 14 24 1 0
BITMAP
0300
0300
0300
0300
0300
8304
C30C
F33C
7B78
3FF0
0FE0
0780
0FC0
1FE0
3B78
F33C
E31C
C30C
8300
0300
0300
0300
0300
0300
ENDCHAR
STARTCHAR 16E2
ENCODING 5858
SWIDTH 558 0
DWIDTH 19 0
BBX 17 24 1 0
BITMAP
018080
01E180
01F380
01FF00
01FE00
01CC00
01C000
01C000
01C000
01C000
01C000
01C000
01C000
01C000
01C000
01C000
01C000
01C000
19C000
3DC000
7FC000
E7C000
C3C000
81C000
ENDCHAR
STARTCHAR 16E3
ENCODING 5859
SWIDTH 529 0
DWIDTH 18 0
BBX 18 24 0 0
BITMAP
00E000
00E000
00E000
00E000
00E000
00E000
00E000
00E000
00E000
00E000
00E000
00E000
01E000
01F000
03F000
07F800
07D800
0EDC00
0EEE00
1CEE00
38E700
38E380
70E380
F0E1C0
ENDCHAR
STARTCHAR 16E4
ENCODING 5860
SWIDTH 470 0
DWIDTH 16 0
BBX 15 24 1 0
BITMAP
E30E
F31C
731C
7338
3B38
3B70
1F70
1F70
3FF0
3FD8
67D8
638C
E38C
67D8
3FD8
3FF0
1F70
1F70
3B70
3B38
7338
731C
E31C
E31E
ENDCHAR
STARTCHAR 16E5
ENCODING 5861
SWIDTH 617 0
DWIDTH 21 0
BBX 15 24 3 0
BITMAP
E00E
F81E
FC3E
FEF6
E7E6
E7C6
EFE6
FE7E
F83E
F00E
E006
E006
E006
E006
E00E
F81E
FC7E
EFF6
E7C6
E7C6
EFF6
FC7E
F81E
E00E
ENDCHAR
STARTCHAR 16E6
ENCODING 5862
SWIDTH 558 0
DWIDTH 19 0
BBX 15 24 2 0
BITMAP
0380
0380
0380
0380
0380
0380
0380
0380
0380
0380
0380
0380
0380
0380
0380
0FE0
3FF8
7FFC
739C
E38E
E38E
E38E
E386
E386
ENDCHAR
STARTCHAR 16E7
ENCODING 5863
SWIDTH 264 0
DWIDTH 9 0
BBX 3 12 3 0
BITMAP
E0
E0
E0
E0
E0
E0
E0
E0
E0
E0
E0
E0
ENDCHAR
STARTCHAR 16E8
ENCODING 5864
SWIDTH 470 0
DWIDTH 16 0
BBX 14 24 1 0
BITMAP
0300
0780
0FE0
3FF0
7BF8
F3BC
C38C
8384
0380
0380
0380
0380
0380
0380
0380
0380
8384
C38C
F39C
7BF8
3FF0
1FE0
07C0
0300
ENDCHAR
STARTCHAR 16E9
ENCODING 5865
SWIDTH 529 0
DWIDTH 18 0
BBX 13 24 2 0
BITMAP
0078
01F8
07F8
0FB8
3E38
F838
E038
7838
3E38
0F38
07F8
01F8
0078
0038
0038
0038
0038
0038
0038
0038
0038
0038
0038
0038
ENDCHAR
STARTCHAR 16EA
ENCODING 5866
SWIDTH 617 0
DWIDTH 21 0
BBX 20 24 0 0
BITMAP
0E0000
0E0000
0E0000
0E0000
FFC000
FFC000
FFC000
0E0000
0E0000
0E0780
0E3F80
0FFF80
0FF380
0F8380
0C0380
000380
000380
000380
003FF0
003FF0
000380
000380
000380
000380
ENDCHAR
STARTCHAR 16EB
ENCODING 5867
SWIDTH 294 0
DWIDTH 10 0
BBX 8 8 1 8
BITMAP
38
7E
7E
FF
FF
7E
7E
18
ENDCHAR
STARTCHAR 16EC
ENCODING 5868
SWIDTH 205 0
DWIDTH 7 0
BBX 4 12 2 6
BITMAP
E0
F0
E0
00
00
00
00
00
00
E0
F0
E0
ENDCHAR
STARTCHAR 16ED
ENCODING 5869
SWIDTH 647 0
DWIDTH 22 0
BBX 16 16 3 4
BITMAP
03C0
03C0
03C0
0380
0180
0180
F18F
FFFF
FFFF
E187
0180
0180
0380
03C0
03C0
03C0
ENDCHAR
STARTCHAR 16EE
ENCODING 5870
SWIDTH 470 0
DWIDTH 16 0
BBX 14 24 1 0
BITMAP
0300
0380
03E0
03F0
03F8
03BC
038C
0384
0380
0380
0380
0F80
7F80
FF80
E380
0380
0380
0380
0380
0380
0380
0380
0380
0380
ENDCHAR
STARTCHAR 16EF
ENCODING 5871
SWIDTH 558 0
DWIDTH 19 0
BBX 15 24 2 0
BITMAP
E386
E386
E38E
E38E
E38E
739C
7BBC
3FF8
1FF0
0380
0380
0380
0380
0380
0380
0FE0
3FF8
7FFC
739C
E38E
E38E
E38E
E386
E386
ENDCHAR
STARTCHAR 16F0
ENCODING 5872
SWIDTH 558 0
DWIDTH 19 0
BBX 16 24 2 0
BITMAP
0380
0380
0380
07E0
1FF8
3FFC
739C
F38E
E38E
E387
E387
C387
C387
E387
E387
E38E
F38E
739C
3FFC
1FF0
07C0
0380
0380
0380
ENDCHAR
STARTCHAR 2000
ENCODING 8192
SWIDTH 500 0
DWIDTH 17 0
BBX 0 0 0 0
BITMAP
ENDCHAR
STARTCHAR 2001
ENCODING 8193
SWIDTH 1000 0
DWIDTH 34 0
BBX 0 0 0 0
BITMAP
ENDCHAR
STARTCHAR 2002
ENCODING 8194
SWIDTH 500 0
DWIDTH 17 0
BBX 0 0 0 0
BITMAP
ENDCHAR
STARTCHAR 2003
ENCODING 8195
SWIDTH 1000 0
DWIDTH 34 0
BBX 0 0 0 0
BITMAP
ENDCHAR
STARTCHAR 2004
ENCODING 8196
SWIDTH 323 0
DWIDTH 11 0
BBX 0 0 0 0
BITMAP
ENDCHAR
STARTCHAR 2005
ENCODING 8197
SWIDTH 264 0
DWIDTH 9 0
BBX 0 0 0 0
BITMAP
ENDCHAR
STARTCHAR 2006
ENCODING 8198
SWIDTH 176 0
DWIDTH 6 0
BBX 0 0 0 0
BITMAP
ENDCHAR
STARTCHAR 2007
ENCODING 8199
SWIDTH 529 0
DWIDTH 18 0
BBX 0 0 0 0
BITMAP
ENDCHAR
STARTCHAR 2008
ENCODING 8200
SWIDTH 205 0
DWIDTH 7 0
BBX 0 0 0 0
BITMAP
ENDCHAR
STARTCHAR 2009
ENCODING 8201
SWIDTH 205 0
DWIDTH 7 0
BBX 0 0 0 0
BITMAP
ENDCHAR
STARTCHAR 200A
ENCODING 8202
SWIDTH 117 0
DWIDTH 4 0
BBX 0 0 0 0
BITMAP
ENDCHAR
STARTCHAR 200B
ENCODING 8203
SWIDTH 0 0
DWIDTH 0 0
BBX 0 0 0 0
BITMAP
ENDCHAR
STARTCHAR 200C
ENCODING 8204
SWIDTH 0 0
DWIDTH 0 0
BBX 2 36 -1 -6
BITMAP
C0
C0
C0
C0
C0
C0
C0
C0
C0
C0
C0
C0
C0
C0
C0
C0
C0
C0
C0
C0
C0
C0
C0
C0
C0
C0
C0
C0
C0
C0
C0
C0
C0
C0
C0
C0
ENDCHAR
STARTCHAR 200D
ENCODING 8205
SWIDTH 0 0
DWIDTH 0 0
BBX 8 36 -4 -6
BITMAP
42
66
3C
18
3C
7E
DB
18
18
18
18
18
18
18
18
18
18
18
18
18
18
18
18
18
18
18
18
18
18
18
18
18
18
18
18
18
ENDCHAR
STARTCHAR 200E
ENCODING 8206
SWIDTH 0 0
DWIDTH 0 0
BBX 8 36 -1 -6
BITMAP
08
04
02
FF
C2
C4
C8
C0
C0
C0
C0
C0
C0
C0
C0
C0
C0
C0
C0
C0
C0
C0
C0
C0
C0
C0
C0
C0
C0
C0
C0
C0
C0
C0
C0
C0
ENDCHAR
STARTCHAR 200F
ENCODING 8207
SWIDTH 0 0
DWIDTH 0 0
BBX 8 36 -7 -6
BITMAP
10
30
40
FF
43
23
13
03
03
03
03
03
03
03
03
03
03
03
03
03
03
03
03
03
03
03
03
03
03
03
03
03
03
03
03
03
ENDCHAR
STARTCHAR 2010
ENCODING 8208
SWIDTH 411 0
DWIDTH 14 0
BBX 9 3 2 8
BITMAP
FF80
FF80
FF80
ENDCHAR
STARTCHAR 2011
ENCODING 8209
SWIDTH 411 0
DWIDTH 14 0
BBX 9 3 2 8
BITMAP
FF80
FF80
FF80
ENDCHAR
STARTCHAR 2012
ENCODING 8210
SWIDTH 676 0
DWIDTH 23 0
BBX 15 2 4 9
BITMAP
FFFE
FFFE
ENDCHAR
STARTCHAR 2013
ENCODING 8211
SWIDTH 500 0
DWIDTH 17 0
BBX 17 2 0 9
BITMAP
FFFF80
FFFF80
ENDCHAR
STARTCHAR 2014
ENCODING 8212
SWIDTH 1000 0
DWIDTH 34 0
BBX 34 2 0 9
BITMAP
FFFFFFFFC0
FFFFFFFFC0
ENDCHAR
STARTCHAR 2015
ENCODING 8213
SWIDTH 1000 0
DWIDTH 34 0
BBX 34 3 0 8
BITMAP
FFFFFFFFC0
FFFFFFFFC0
FFFFFFFFC0
ENDCHAR
STARTCHAR 2016
ENCODING 8214
SWIDTH 382 0
DWIDTH 13 0
BBX 8 34 3 -8
BITMAP
C7
C7
C7
C7
C7
C7
C7
C7
C7
C7
C7
C7
C7
C7
C7
C7
C7
C7
C7
C7
C7
C7
C7
C7
C7
C7
C7
C7
C7
C7
C7
C7
C7
C7
ENDCHAR
STARTCHAR 2017
ENCODING 8215
SWIDTH 411 0
DWIDTH 14 0
BBX 14 6 0 -8
BITMAP
FFFC
FFFC
0000
0000
FFFC
FFFC
ENDCHAR
STARTCHAR 2018
ENCODING 8216
SWIDTH 235 0
DWIDTH 8 0
BBX 4 7 2 17
BITMAP
30
30
60
60
60
E0
C0
ENDCHAR
STARTCHAR 2019
ENCODING 8217
SWIDTH 235 0
DWIDTH 8 0
BBX 4 7 2 17
BITMAP
30
70
60
60
60
C0
C0
ENDCHAR
STARTCHAR 201A
ENCODING 8218
SWIDTH 235 0
DWIDTH 8 0
BBX 4 7 1 -3
BITMAP
30
70
60
60
60
C0
C0
ENDCHAR
STARTCHAR 201B
ENCODING 8219
SWIDTH 235 0
DWIDTH 8 0
BBX 4 7 2 17
BITMAP
C0
E0
60
60
60
30
30
ENDCHAR
STARTCHAR 201C
ENCODING 8220
SWIDTH 382 0
DWIDTH 13 0
BBX 9 7 2 17
BITMAP
3180
3180
6300
6300
6300
E700
C600
ENDCHAR
STARTCHAR 201D
ENCODING 8221
SWIDTH 382 0
DWIDTH 13 0
BBX 9 7 2 17
BITMAP
3180
7380
6300
6300
6300
C600
C600
ENDCHAR
STARTCHAR 201E
ENCODING 8222
SWIDTH 382 0
DWIDTH 13 0
BBX 9 7 1 -3
BITMAP
3180
7380
6300
6300
6300
C600
C600
ENDCHAR
STARTCHAR 201F
ENCODING 8223
SWIDTH 382 0
DWIDTH 13 0
BBX 9 7 2 17
BITMAP
C600
E700
6300
6300
6300
7380
3180
ENDCHAR
STARTCHAR 2020
ENCODING 8224
SWIDTH 382 0
DWIDTH 13 0
BBX 11 20 1 4
BITMAP
0E00
0E00
0E00
0E00
0E00
0400
FFE0
FFE0
0E00
0E00
0E00
0E00
0E00
0E00
0E00
0E00
0400
0400
0400
0400
ENDCHAR
STARTCHAR 2021
ENCODING 8225
SWIDTH 382 0
DWIDTH 13 0
BBX 11 20 1 4
BITMAP
0E00
0E00
0E00
0E00
0400
FFE0
FFE0
0E00
0400
0400
0400
0400
0E00
FFE0
FFE0
0400
0E00
0E00
0E00
0E00
ENDCHAR
STARTCHAR 2022
ENCODING 8226
SWIDTH 411 0
DWIDTH 14 0
BBX 8 8 3 7
BITMAP
3C
7E
FF
FF
FF
FF
7E
3C
ENDCHAR
STARTCHAR 2023
ENCODING 8227
SWIDTH 411 0
DWIDTH 14 0
BBX 7 8 3 7
BITMAP
80
E0
F8
FE
FE
F8
E0
80
ENDCHAR
STARTCHAR 2024
ENCODING 8228
SWIDTH 235 0
DWIDTH 8 0
BBX 4 3 2 0
BITMAP
70
F0
70
ENDCHAR
STARTCHAR 2025
ENCODING 8229
SWIDTH 500 0
DWIDTH 17 0
BBX 12 3 2 0
BITMAP
7070
F070
7070
ENDCHAR
STARTCHAR 2026
ENCODING 8230
SWIDTH 735 0
DWIDTH 25 0
BBX 22 4 2 0
BITMAP
603018
F0783C
F0783C
603018
ENDCHAR
STARTCHAR 2027
ENCODING 8231
SWIDTH 205 0
DWIDTH 7 0
BBX 4 3 2 9
BITMAP
E0
F0
E0
ENDCHAR
STARTCHAR 2028
ENCODING 8232
SWIDTH 1264 0
DWIDTH 43 0
BBX 39 40 2 -8
BITMAP
FCFC7C7C7E
FCFC7C7C7E
FCFC7C7C7E
C000000006
C000000006
C000000006
C000000006
0000C00000
0000C00000
C000C00006
C000C00006
C000C00006
C000C00006
C000C00006
C000C00006
0000C00000
0000C00000
C000FE0006
C000FE0006
C000000006
C000000006
C078FC7C06
C1F8FC7F06
0180C06380
0180C06180
0180C06180
C1E0FC6186
C0F0FC7F06
C038C07E06
C01CC06006
C00CC06006
0118C06000
01F8FE6000
0000000000
C000000006
C000000006
C000000006
C000000006
FCFC7C7C7E
FCFC7C7C7E
ENDCHAR
STARTCHAR 2029
ENCODING 8233
SWIDTH 1264 0
DWIDTH 43 0
BBX 39 40 2 -8
BITMAP
FCFC7C7C7E
FCFC7C7C7E
FCFC7C7C7E
C000000006
C000000006
C000000006
C000000006
0000FE0000
0000C60000
C000C30006
C000C30006
C000C30006
C000CE0006
C000FC0006
C000C00006
0000C00000
0000C00000
C000C00006
C000C00006
C000000006
C000000006
C078FC7C06
C1F8FC7F06
0180C06380
0180C06180
0180C06180
C1E0FC6186
C0F0FC7F06
C038C07E06
C01CC06006
C00CC06006
0118C06000
01F8FE6000
0000000000
C000000006
C000000006
C000000006
C000000006
FCFC7C7C7E
FCFC7C7C7E
ENDCHAR
STARTCHAR 202A
ENCODING 8234
SWIDTH 1264 0
DWIDTH 43 0
BBX 39 40 2 -8
BITMAP
FCFC7C7C7E
FCFC7C7C7E
FCFC7C7C7E
C000000006
C000000006
C000000006
C000000006
0000000000
0000000000
C000000006
C000000006
C000000006
C000000006
C000000006
C181F83F06
0181FC3F00
0181863000
C181863006
C181863006
C1819C3F06
C181F83F06
C181983006
C1818C3006
01818C3000
01F9863F00
01F9863F00
C000000006
C000000006
C000000006
C000000006
C000000006
0000000000
0000000000
0000000000
C000000006
C000000006
C000000006
C000000006
FCFC7C7C7E
FCFC7C7C7E
ENDCHAR
STARTCHAR 202B
ENCODING 8235
SWIDTH 1264 0
DWIDTH 43 0
BBX 39 40 2 -8
BITMAP
FCFC7C7C7E
FCFC7C7C7E
FCFC7C7C7E
C000000006
C000000006
C000000006
C000000006
0000000000
0000000000
C000000006
C000000006
C000000006
C000000006
C000000006
C1F0603F06
01FC603F00
018C603000
C18C603006
C18C603006
C19C603F06
C1F0603F06
C1B8603006
C198603006
018C603000
018C7F3F00
018E7F3F00
C000000006
C000000006
C000000006
C000000006
C000000006
0000000000
0000000000
0000000000
C000000006
C000000006
C000000006
C000000006
FCFC7C7C7E
FCFC7C7C7E
ENDCHAR
STARTCHAR 202C
ENCODING 8236
SWIDTH 1264 0
DWIDTH 43 0
BBX 39 40 2 -8
BITMAP
FCFC7C7C7E
FCFC7C7C7E
FCFC7C7C7E
C000000006
C000000006
C000000006
C000000006
0000000000
0000000000
C000000006
C000000006
C000000006
C000000006
C000000006
C7E1F81FC6
07F9FF1FC0
0619831800
C619819806
C619819806
C619819F86
C7F1819F86
C7E1819806
C601819806
0601831800
0601FE1800
0601FC1800
C000000006
C000000006
C000000006
C000000006
C000000006
0000000000
0000000000
0000000000
C000000006
C000000006
C000000006
C000000006
FCFC7C7C7E
FCFC7C7C7E
ENDCHAR
STARTCHAR 202D
ENCODING 8237
SWIDTH 1264 0
DWIDTH 43 0
BBX 39 40 2 -8
BITMAP
FCFC7C7C7E
FCFC7C7C7E
FCFC7C7C7E
C000000006
C000000006
C000000006
C000000006
0000000000
0000000000
C000000006
C000000006
C000000006
C000000006
C000000006
C603F03E06
0603F87F80
06031CE1C0
C6030DC0C6
C6031D80C6
C6033980C6
C603E180C6
C6033180C6
C60339C0C6
060318C1C0
07F31CFF80
07F30C3F00
C000000006
C000000006
C000000006
C000000006
C000000006
0000000000
0000000000
0000000000
C000000006
C000000006
C000000006
C000000006
FCFC7C7C7E
FCFC7C7C7E
ENDCHAR
STARTCHAR 202E
ENCODING 8238
SWIDTH 1264 0
DWIDTH 43 0
BBX 39 40 2 -8
BITMAP
FCFC7C7C7E
FCFC7C7C7E
FCFC7C7C7E
C000000006
C000000006
C000000006
C000000006
0000000000
0000000000
C000000006
C000000006
C000000006
C000000006
C000000006
C7E0C03E06
07F8C0FF00
0618C1C180
C618C181C6
C618C180C6
C678C180C6
C7E0C180C6
C670C180C6
C630C181C6
0638C1C180
0618FCFF00
061CFC7E00
C000000006
C000000006
C000000006
C000000006
C000000006
0000000000
0000000000
0000000000
C000000006
C000000006
C000000006
C000000006
FCFC7C7C7E
FCFC7C7C7E
ENDCHAR
STARTCHAR 202F
ENCODING 8239
SWIDTH 264 0
DWIDTH 9 0
BBX 0 0 0 0
BITMAP
ENDCHAR
STARTCHAR 2030
ENCODING 8240
SWIDTH 1205 0
DWIDTH 41 0
BBX 39 24 1 0
BITMAP
1F001C0000
3FC0180000
71C0300000
E0E0700000
C060600000
C060C00000
C061C00000
C061800000
E0E3000000
71C7000000
3F86000000
1F0E000000
001C3E01F0
00187F83FC
0038E3871C
0031C1CE0E
006180CC06
00E180CC06
00C180CC06
018180CC06
0381C1CE0E
0300E3871C
06007F03F8
0E003E01F0
ENDCHAR
STARTCHAR 2031
ENCODING 8241
SWIDTH 1588 0
DWIDTH 54 0
BBX 52 24 1 0
BITMAP
1F801800000000
3FC03800000000
70E03000000000
60607000000000
E0606000000000
E060C000000000
E061C000000000
E0618000000000
60630000000000
70C70000000000
3FC60000000000
1F0C0000000000
001C3E01F00F80
0018FF03F81FE0
0039C3861C38E0
0031818E0C7070
0061818C0E6030
00E181CC066030
00C381CC066030
0181818C0E6030
0381818C0C7070
0301C38E0C3060
0600FF07F83FE0
0E007E03F01FC0
ENDCHAR
STARTCHAR 2032
ENCODING 8242
SWIDTH 235 0
DWIDTH 8 0
BBX 4 8 2 16
BITMAP
30
70
60
60
60
60
C0
C0
ENDCHAR
STARTCHAR 2033
ENCODING 8243
SWIDTH 382 0
DWIDTH 13 0
BBX 9 8 2 16
BITMAP
3380
7300
6300
6300
6300
6600
6600
C600
ENDCHAR
STARTCHAR 2034
ENCODING 8244
SWIDTH 529 0
DWIDTH 18 0
BBX 13 8 2 16
BITMAP
3398
7318
6318
6338
6330
6630
6630
C630
ENDCHAR
STARTCHAR 2035
ENCODING 8245
SWIDTH 235 0
DWIDTH 8 0
BBX 4 8 2 16
BITMAP
C0
C0
60
60
60
60
60
30
ENDCHAR
STARTCHAR 2036
ENCODING 8246
SWIDTH 382 0
DWIDTH 13 0
BBX 8 8 2 16
BITMAP
C6
E6
67
63
63
63
33
31
ENDCHAR
STARTCHAR 2037
ENCODING 8247
SWIDTH 529 0
DWIDTH 18 0
BBX 13 8 2 16
BITMAP
C630
E630
6730
6330
6318
6318
3318
3118
ENDCHAR
STARTCHAR 2038
ENCODING 8248
SWIDTH 323 0
DWIDTH 11 0
BBX 9 5 1 1
BITMAP
1C00
3600
6600
6300
C180
ENDCHAR
STARTCHAR 2039
ENCODING 8249
SWIDTH 323 0
DWIDTH 11 0
BBX 8 11 2 4
BITMAP
07
0E
1C
38
70
E0
70
38
1C
0E
07
ENDCHAR
STARTCHAR 203A
ENCODING 8250
SWIDTH 323 0
DWIDTH 11 0
BBX 8 11 2 4
BITMAP
E0
70
38
1C
0E
07
0E
1C
38
70
E0
ENDCHAR
STARTCHAR 203B
ENCODING 8251
SWIDTH 1000 0
DWIDTH 34 0
BBX 20 21 7 0
BITMAP
006000
C0F030
E0F070
7060E0
3801C0
1C0380
0E0700
070E00
039C00
E1F870
E0F070
E0F070
01F800
039C00
070E00
0E0700
1C0380
3861C0
70F0E0
E0F070
406020
ENDCHAR
STARTCHAR 203C
ENCODING 8252
SWIDTH 470 0
DWIDTH 16 0
BBX 10 24 3 -1
BITMAP
E1C0
E1C0
E1C0
E1C0
E1C0
E1C0
E1C0
61C0
61C0
61C0
61C0
61C0
61C0
61C0
61C0
61C0
61C0
0000
0000
0000
0000
E1C0
F1C0
E1C0
ENDCHAR
STARTCHAR 203D
ENCODING 8253
SWIDTH 441 0
DWIDTH 15 0
BBX 12 24 2 0
BITMAP
7F80
FFC0
FDE0
9CE0
1C70
1C70
1C70
1CE0
1CE0
0DC0
0F80
0F00
0E00
0C00
0C00
0C00
0C00
0000
0000
0000
0000
1E00
1E00
0E00
ENDCHAR
STARTCHAR 203E
ENCODING 8254
SWIDTH 411 0
DWIDTH 14 0
BBX 14 2 0 24
BITMAP
FFFC
FFFC
ENDCHAR
STARTCHAR 203F
ENCODING 8255
SWIDTH 794 0
DWIDTH 27 0
BBX 25 6 1 -6
BITMAP
E0000380
70000700
38000E00
1F807C00
07FFF000
00FF8000
ENDCHAR
STARTCHAR 2040
ENCODING 8256
SWIDTH 794 0
DWIDTH 27 0
BBX 27 7 0 24
BITMAP
001F0000
03FFF800
0FE0FE00
1E000F00
38000380
700001C0
E00000E0
ENDCHAR
STARTCHAR 2041
ENCODING 8257
SWIDTH 647 0
DWIDTH 22 0
BBX 14 19 4 0
BITMAP
001C
0018
0038
0070
0060
00E0
01C0
0180
0380
0700
0700
0F80
1D80
19C0
38E0
7070
6038
E01C
C00C
ENDCHAR
STARTCHAR 2042
ENCODING 8258
SWIDTH 882 0
DWIDTH 30 0
BBX 27 25 2 0
BITMAP
000C0000
000C0000
000C0000
008C2000
00F5E000
00FFC000
000E0000
001B0000
003B0000
00718000
00618000
00000000
00000000
0E000C00
0C000C00
0C000C00
0C000C00
C4E0CCE0
FFE1FFE0
1F001F00
1E001E00
1B003B00
33803380
71C06180
20802180
ENDCHAR
STARTCHAR 2043
ENCODING 8259
SWIDTH 411 0
DWIDTH 14 0
BBX 9 5 2 7
BITMAP
FF80
FF80
FF80
FF80
FF80
ENDCHAR
STARTCHAR 2044
ENCODING 8260
SWIDTH 176 0
DWIDTH 6 0
BBX 16 24 -5 0
BITMAP
0003
0007
0006
000C
001C
0018
0038
0030
0060
00E0
00C0
01C0
0180
0380
0700
0600
0E00
0C00
1C00
3800
3000
7000
6000
E000
ENDCHAR
STARTCHAR 2045
ENCODING 8261
SWIDTH 294 0
DWIDTH 10 0
BBX 6 29 3 -6
BITMAP
FC
FC
E0
E0
E0
E0
E0
E0
E0
E0
E0
E0
E0
E0
FC
FC
E0
E0
E0
E0
E0
E0
E0
E0
E0
E0
E0
FC
FC
ENDCHAR
STARTCHAR 2046
ENCODING 8262
SWIDTH 294 0
DWIDTH 10 0
BBX 6 29 1 -6
BITMAP
FC
FC
0C
0C
0C
0C
0C
0C
0C
0C
0C
0C
0C
0C
FC
FC
0C
0C
0C
0C
0C
0C
0C
0C
0C
0C
0C
FC
FC
ENDCHAR
STARTCHAR 2047
ENCODING 8263
SWIDTH 823 0
DWIDTH 28 0
BBX 25 24 2 0
BITMAP
3F81FC00
FFC7FE00
E1E70F00
80E40700
00700380
00700380
00600300
00E00700
01C00E00
03C00E00
07801C00
07003800
0E007000
1C00E000
1C00E000
1C00E000
1C00E000
00000000
00000000
00000000
00000000
1E007000
1E00F000
0E007000
ENDCHAR
STARTCHAR 2048
ENCODING 8264
SWIDTH 676 0
DWIDTH 23 0
BBX 18 24 2 0
BITMAP
3F8180
FFC180
E1E180
80E180
007180
007180
006180
00E180
01C180
03C180
078180
070180
0E0180
1C0180
1C0180
1C0180
1C0180
000000
000000
000000
000000
1E03C0
1E03C0
0E03C0
ENDCHAR
STARTCHAR 2049
ENCODING 8265
SWIDTH 647 0
DWIDTH 22 0
BBX 18 24 3 0
BITMAP
E0FE00
E3FF00
E38780
E20380
E001C0
E001C0
E00180
600380
600700
600F00
601E00
601C00
603800
607000
607000
607000
607000
000000
000000
000000
000000
E07800
F07800
E07800
ENDCHAR
STARTCHAR 204A
ENCODING 8266
SWIDTH 500 0
DWIDTH 17 0
BBX 15 19 1 1
BITMAP
F0FE
FFFE
FFFE
3F0E
000C
000C
001C
001C
0018
0018
0038
0038
0038
0030
0070
0070
0070
0060
00E0
ENDCHAR
STARTCHAR 204B
ENCODING 8267
SWIDTH 470 0
DWIDTH 16 0
BBX 12 24 2 0
BITMAP
FFC0
FFE0
33F0
33F0
33F0
33F0
33F0
33E0
33C0
3300
3300
3300
3300
3300
3300
3300
3300
3300
3300
3300
3300
3300
3300
3300
ENDCHAR
STARTCHAR 204C
ENCODING 8268
SWIDTH 411 0
DWIDTH 14 0
BBX 8 10 3 6
BITMAP
1F
7F
F9
F9
F9
F9
F9
F9
7F
1F
ENDCHAR
STARTCHAR 204D
ENCODING 8269
SWIDTH 411 0
DWIDTH 14 0
BBX 8 10 3 6
BITMAP
F8
FE
CF
CF
CF
CF
CF
CF
FE
F8
ENDCHAR
STARTCHAR 204E
ENCODING 8270
SWIDTH 411 0
DWIDTH 14 0
BBX 12 12 1 5
BITMAP
0600
0600
0600
0600
6670
FFF0
0F00
0F00
1D80
19C0
30C0
1080
ENDCHAR
STARTCHAR 204F
ENCODING 8271
SWIDTH 205 0
DWIDTH 7 0
BBX 5 21 2 -4
BITMAP
E0
E0
E0
00
00
00
00
00
00
00
00
00
00
E0
60
60
70
30
30
30
38
ENDCHAR
STARTCHAR 2050
ENCODING 8272
SWIDTH 794 0
DWIDTH 27 0
BBX 27 38 0 -7
BITMAP
001F0000
03FFF800
0FE0FE00
1E000F00
38000380
700001C0
E00000E0
00000000
00000000
00000000
00000000
00000000
00000000
00000000
00000000
00000000
00000000
00000000
00000000
00000000
00000000
00000000
00000000
00000000
00000000
00000000
00000000
00000000
00000000
00000000
00000000
00000000
700001C0
38000380
1C000700
0FC03E00
03FFF800
007FC000
ENDCHAR
STARTCHAR 2051
ENCODING 8273
SWIDTH 411 0
DWIDTH 14 0
BBX 12 25 1 0
BITMAP
0600
0600
0600
4600
76F0
7FE0
0700
0F00
1980
38C0
30C0
1000
0000
0600
0600
0600
0600
6670
FFF0
0F80
0F00
1D80
19C0
30C0
10C0
ENDCHAR
STARTCHAR 2052
ENCODING 8274
SWIDTH 617 0
DWIDTH 21 0
BBX 15 24 3 0
BITMAP
7006
F00E
F00C
7018
0038
0030
0070
0060
00E0
00C0
0180
0380
0300
0700
0600
0E00
0C00
1C00
1800
3000
701C
603E
E03E
C01C
ENDCHAR
STARTCHAR 2053
ENCODING 8275
SWIDTH 794 0
DWIDTH 27 0
BBX 21 5 3 8
BITMAP
1FC038
3FF030
707FF0
601FE0
E00380
ENDCHAR
STARTCHAR 2054
ENCODING 8276
SWIDTH 794 0
DWIDTH 27 0
BBX 25 6 1 -6
BITMAP
03FFE000
0FFFF800
3E003E00
78000F00
E0000380
C0000180
ENDCHAR
STARTCHAR 2055
ENCODING 8277
SWIDTH 676 0
DWIDTH 23 0
BBX 19 18 2 3
BITMAP
006000
006000
104100
184380
0C4600
064C00
035800
01F000
FEEFE0
FFFFE0
01F000
035800
064C00
0C4600
184300
104180
004000
006000
ENDCHAR
STARTCHAR 2056
ENCODING 8278
SWIDTH 470 0
DWIDTH 16 0
BBX 12 17 2 3
BITMAP
0060
00F0
00F0
0060
0000
0000
0000
E000
F000
E000
4000
0000
0000
0000
0070
00F0
00F0
ENDCHAR
STARTCHAR 2057
ENCODING 8279
SWIDTH 647 0
DWIDTH 22 0
BBX 18 8 2 16
BITMAP
3398C0
7318C0
6319C0
633980
633180
663180
663180
C63300
ENDCHAR
STARTCHAR 2058
ENCODING 8280
SWIDTH 647 0
DWIDTH 22 0
BBX 18 17 2 3
BITMAP
00C000
01E000
01E000
00C000
000000
000000
000000
E00180
F003C0
F003C0
400180
000000
000000
000000
01C000
01E000
01E000
ENDCHAR
STARTCHAR 2059
ENCODING 8281
SWIDTH 529 0
DWIDTH 18 0
BBX 14 14 2 6
BITMAP
6038
F03C
F03C
6010
0000
0700
0780
0780
0200
0000
E038
F03C
F038
4000
ENDCHAR
STARTCHAR 205A
ENCODING 8282
SWIDTH 235 0
DWIDTH 8 0
BBX 4 25 2 -1
BITMAP
60
F0
F0
60
00
00
00
00
00
00
00
00
00
00
00
00
00
00
00
00
00
40
F0
F0
E0
ENDCHAR
STARTCHAR 205B
ENCODING 8283
SWIDTH 647 0
DWIDTH 22 0
BBX 18 25 2 -1
BITMAP
00C000
01E000
01E000
00C000
000000
000000
000000
000000
000000
000000
000000
E00180
F003C0
F003C0
400180
000000
000000
000000
000000
000000
000000
000000
01E000
01E000
01C000
ENDCHAR
STARTCHAR 205C
ENCODING 8284
SWIDTH 1000 0
DWIDTH 34 0
BBX 28 27 3 -4
BITMAP
00060000
00060000
00060000
00060000
00060000
00060000
03861800
03C63C00
03C63C00
00060000
00060000
00060000
00060000
FFFFFFF0
FFFFFFF0
00060000
00060000
00060000
01861800
03C63C00
03C63C00
00060000
00060000
00060000
00060000
00060000
00060000
ENDCHAR
STARTCHAR 205D
ENCODING 8285
SWIDTH 235 0
DWIDTH 8 0
BBX 4 25 2 -1
BITMAP
60
F0
F0
60
00
00
00
00
00
00
00
E0
F0
F0
40
00
00
00
00
00
00
40
F0
F0
E0
ENDCHAR
STARTCHAR 205E
ENCODING 8286
SWIDTH 235 0
DWIDTH 8 0
BBX 4 25 2 -1
BITMAP
60
F0
F0
60
00
00
00
40
F0
F0
E0
00
00
00
40
F0
F0
E0
00
00
00
40
F0
F0
E0
ENDCHAR
STARTCHAR 205F
ENCODING 8287
SWIDTH 205 0
DWIDTH 7 0
BBX 0 0 0 0
BITMAP
ENDCHAR
STARTCHAR 2060
ENCODING 8288
SWIDTH 0 0
DWIDTH 0 0
BBX 0 0 0 0
BITMAP
ENDCHAR
STARTCHAR 2061
ENCODING 8289
SWIDTH 1264 0
DWIDTH 43 0
BBX 39 40 2 -8
BITMAP
FCFC7C7C7E
FCFC7C7C7E
FCFC7C7C7E
C000000006
C000000006
C000000006
C001F00006
0003F00000
0007000000
C007000006
C007000006
C006000006
C00E000006
C00E000006
C03FC00006
003FC00000
000E021800
C00C060C06
C00C0C0406
C01C0C0606
C01C080606
C01C180206
C01C180306
001C180300
001C180300
0018180200
C038080606
C0380C0606
C0380C0606
C038060C06
C070021806
02F0000000
03E0000000
03C0000000
C000000006
C000000006
C000000006
C000000006
FCFC7C7C7E
FCFC7C7C7E
ENDCHAR
STARTCHAR 2062
ENCODING 8290
SWIDTH 1264 0
DWIDTH 43 0
BBX 39 40 2 -8
BITMAP
FCFC7C7C7E
FCFC7C7C7E
FCFC7C7C7E
C000000006
C000000006
C000000006
C000000006
0000000000
0000000000
C000000006
C000000006
C000000006
C000000006
C00600C006
C00F01E006
000783C000
0003C78000
C001EF0006
C000FE0006
C0007C0006
C0007C0006
C000FE0006
C001EF0006
0003C78000
000783C000
000F01E000
C00E00C006
C004000006
C000000006
C000000006
C000000006
0000000000
0000000000
0000000000
C000000006
C000000006
C000000006
C000000006
FCFC7C7C7E
FCFC7C7C7E
ENDCHAR
STARTCHAR 2063
ENCODING 8291
SWIDTH 1264 0
DWIDTH 43 0
BBX 39 40 2 -8
BITMAP
FCFC7C7C7E
FCFC7C7C7E
FCFC7C7C7E
C000000006
C000000006
C000000006
C000000006
0000000000
0000000000
C000000006
C000000006
C000000006
C000000006
C000000006
C000000006
0000000000
0000000000
C000000006
C000000006
C000000006
C000000006
C000000006
C0003C0006
0000380000
0000780000
0000780000
C000700006
C000700006
C000700006
C000E00006
C000000006
0000000000
0000000000
0000000000
C000000006
C000000006
C000000006
C000000006
FCFC7C7C7E
FCFC7C7C7E
ENDCHAR
STARTCHAR 206A
ENCODING 8298
SWIDTH 1264 0
DWIDTH 43 0
BBX 39 40 2 -8
BITMAP
FCFC7C7C7E
FCFC7C7C7E
FCFC7C7C7E
C000000006
C000000006
C000000006
C000000006
00007C0000
0000300000
C000300006
C000300006
C000300006
C000300006
C000300006
C000300006
0000300000
0000300000
C0007C0006
C0007C0006
C000000006
C000000006
C00783E006
C01F87E006
00180E0000
00180C0000
00180E0000
C01E070006
C00F03C006
C00380E006
C001C06006
C000C06006
00118CE000
001F8FC000
0000000000
C000000006
C000000006
C000000006
C000000006
FCFC7C7C7E
FCFC7C7C7E
ENDCHAR
STARTCHAR 206B
ENCODING 8299
SWIDTH 1264 0
DWIDTH 43 0
BBX 39 40 2 -8
BITMAP
FCFC7C7C7E
FCFC7C7C7E
FCFC7C7C7E
C000000006
C000000006
C000000006
C000000006
0000380000
0000380000
C0006C0006
C0006C0006
C0004C0006
C000C60006
C000C60006
C001FF0006
0001FF0000
0001830000
C003018006
C003018006
C000000006
C000000006
C00783E006
C01F87E006
00180E0000
00180C0000
00180E0000
C01E070006
C00F03C006
C00380E006
C001C06006
C000C06006
00118CE000
001F8FC000
0000000000
C000000006
C000000006
C000000006
C000000006
FCFC7C7C7E
FCFC7C7C7E
ENDCHAR
STARTCHAR 206C
ENCODING 8300
SWIDTH 1264 0
DWIDTH 43 0
BBX 39 40 2 -8
BITMAP
FCFC7C7C7E
FCFC7C7C7E
FCFC7C7C7E
C000000006
C000000006
C000000006
C000000006
00007C0000
0000300000
C000300006
C000300006
C000300006
C000300006
C000300006
C000300006
0000300000
0000300000
C0007C0006
C0007C0006
C000000006
C000000006
C0707F1F06
C0707F3F06
0050607000
00D8606000
00D8607000
C18C603806
C18C7E1E06
C18C600706
C3FE600306
C306600306
0307606700
0603607E00
0000000000
C000000006
C000000006
C000000006
C000000006
FCFC7C7C7E
FCFC7C7C7E
ENDCHAR
STARTCHAR 206D
ENCODING 8301
SWIDTH 1264 0
DWIDTH 43 0
BBX 39 40 2 -8
BITMAP
FCFC7C7C7E
FCFC7C7C7E
FCFC7C7C7E
C000000006
C000000006
C000000006
C000000006
0000380000
0000380000
C0006C0006
C0006C0006
C0004C0006
C000C60006
C000C60006
C001FF0006
0001FF0000
0001830000
C003018006
C003018006
C000000006
C000000006
C0707F1F06
C0707F3F06
0050607000
00D8606000
00D8607000
C18C603806
C18C7E1E06
C18C600706
C3FE600306
C306600306
0307606700
0603607E00
0000000000
C000000006
C000000006
C000000006
C000000006
FCFC7C7C7E
FCFC7C7C7E
ENDCHAR
STARTCHAR 206E
ENCODING 8302
SWIDTH 1264 0
DWIDTH 43 0
BBX 39 40 2 -8
BITMAP
FCFC7C7C7E
FCFC7C7C7E
FCFC7C7C7E
C000000006
C000000006
C000000006
C000000006
00E0C07000
00F0C0F000
C0F0C0F006
C0D8C0D806
C0D8C19806
C0CCC19806
C0C6C30C06
C0C6C3FC06
00C3C3FE00
00C1C60600
C0C1C60606
C0C0C60306
C000000006
C000000006
C03E00F806
C03FC1F806
0030E38000
0030630000
0030738000
C03031C006
C03030F006
C030303806
C030601806
C030E01806
0037C33800
003F83F000
0000000000
C000000006
C000000006
C000000006
C000000006
FCFC7C7C7E
FCFC7C7C7E
ENDCHAR
STARTCHAR 206F
ENCODING 8303
SWIDTH 1264 0
DWIDTH 43 0
BBX 39 40 2 -8
BITMAP
FCFC7C7C7E
FCFC7C7C7E
FCFC7C7C7E
C000000006
C000000006
C000000006
C000002006
00E0C1FC00
00F0C38E00
C0F0C60606
C0D8C60706
C0D8CE0306
C0CCCC0306
C0C6CE0306
C0C6C60706
00C3C60600
00C1C70E00
C0C1C3FC06
C0C0C06006
C000000006
C000000006
C03E00F806
C03FC1F806
0030E38000
0030630000
0030738000
C03031C006
C03030F006
C030303806
C030601806
C030E01806
0037C33800
003F83F000
0000000000
C000000006
C000000006
C000000006
C000000006
FCFC7C7C7E
FCFC7C7C7E
ENDCHAR
STARTCHAR 2070
ENCODING 8304
SWIDTH 352 0
DWIDTH 12 0
BBX 10 15 1 15
BITMAP
1F00
3F80
7180
61C0
E0C0
E0C0
E0C0
E0C0
E0C0
E0C0
E0C0
61C0
7B80
3F00
0C00
ENDCHAR
STARTCHAR 2071
ENCODING 8305
SWIDTH 176 0
DWIDTH 6 0
BBX 2 17 2 12
BITMAP
C0
C0
00
00
00
C0
C0
C0
C0
C0
C0
C0
C0
C0
C0
C0
C0
ENDCHAR
STARTCHAR 2074
ENCODING 8308
SWIDTH 352 0
DWIDTH 12 0
BBX 10 14 1 14
BITMAP
0300
0700
0F00
0F00
1B00
3300
3300
6300
C300
FFC0
FFC0
0300
0300
0300
ENDCHAR
STARTCHAR 2075
ENCODING 8309
SWIDTH 352 0
DWIDTH 12 0
BBX 9 15 2 14
BITMAP
7F00
7F00
6000
6000
6000
6000
7E00
7F00
0380
0380
0380
0380
C700
FE00
3800
ENDCHAR
STARTCHAR 2076
ENCODING 8310
SWIDTH 352 0
DWIDTH 12 0
BBX 10 15 1 15
BITMAP
0F80
3F80
3000
6000
6000
C400
DF80
F1C0
E0C0
E0C0
60C0
60C0
73C0
3F80
0400
ENDCHAR
STARTCHAR 2077
ENCODING 8311
SWIDTH 352 0
DWIDTH 12 0
BBX 10 14 1 14
BITMAP
FFC0
FFC0
0180
0180
0380
0300
0700
0600
0E00
0C00
0C00
1C00
1800
3800
ENDCHAR
STARTCHAR 2078
ENCODING 8312
SWIDTH 352 0
DWIDTH 12 0
BBX 10 15 1 15
BITMAP
1F00
7F80
61C0
61C0
61C0
7380
3F00
3F80
73C0
E0C0
E0C0
E0C0
73C0
7F80
0C00
ENDCHAR
STARTCHAR 2079
ENCODING 8313
SWIDTH 352 0
DWIDTH 12 0
BBX 10 15 1 15
BITMAP
1E00
7F80
6180
E0C0
E0C0
E0C0
61C0
7FC0
3EC0
00C0
00C0
0180
6780
7F00
1C00
ENDCHAR
STARTCHAR 207A
ENCODING 8314
SWIDTH 352 0
DWIDTH 12 0
BBX 9 9 2 17
BITMAP
1800
1800
1800
1800
FF80
1800
1800
1800
1800
ENDCHAR
STARTCHAR 207B
ENCODING 8315
SWIDTH 352 0
DWIDTH 12 0
BBX 9 1 2 21
BITMAP
FF80
ENDCHAR
STARTCHAR 207C
ENCODING 8316
SWIDTH 352 0
DWIDTH 12 0
BBX 9 7 2 18
BITMAP
FF80
FF80
0000
0000
0000
FF80
FF80
ENDCHAR
STARTCHAR 207D
ENCODING 8317
SWIDTH 294 0
DWIDTH 10 0
BBX 5 17 3 13
BITMAP
18
30
30
60
60
60
60
E0
C0
C0
60
60
60
60
30
30
18
ENDCHAR
STARTCHAR 207E
ENCODING 8318
SWIDTH 294 0
DWIDTH 10 0
BBX 5 17 2 13
BITMAP
C0
60
60
30
30
38
18
18
18
18
18
38
30
30
70
60
C0
ENDCHAR
STARTCHAR 207F
ENCODING 8319
SWIDTH 382 0
DWIDTH 13 0
BBX 10 12 2 12
BITMAP
DF00
FF80
E180
C1C0
C0C0
C0C0
C0C0
C0C0
C0C0
C0C0
C0C0
C0C0
ENDCHAR
STARTCHAR 2080
ENCODING 8320
SWIDTH 352 0
DWIDTH 12 0
BBX 10 14 1 -4
BITMAP
3F00
3F80
61C0
60C0
E0C0
E0C0
E0C0
E0C0
E0C0
E0C0
60C0
6180
7F80
3F00
ENDCHAR
STARTCHAR 2081
ENCODING 8321
SWIDTH 352 0
DWIDTH 12 0
BBX 8 14 3 -4
BITMAP
38
F8
D8
18
18
18
18
18
18
18
18
18
FF
FF
ENDCHAR
STARTCHAR 2082
ENCODING 8322
SWIDTH 352 0
DWIDTH 12 0
BBX 9 14 2 -4
BITMAP
7E00
FF00
8380
0380
0380
0300
0700
0E00
1C00
3800
7000
E000
FF80
FF80
ENDCHAR
STARTCHAR 2083
ENCODING 8323
SWIDTH 352 0
DWIDTH 12 0
BBX 9 14 2 -4
BITMAP
7E00
7F00
0300
0300
0300
0700
3C00
3F00
0380
0180
0180
8380
FF00
FE00
ENDCHAR
STARTCHAR 2084
ENCODING 8324
SWIDTH 352 0
DWIDTH 12 0
BBX 10 14 1 -3
BITMAP
0700
0700
0F00
1B00
1B00
3300
7300
6300
C300
FFC0
FFC0
0300
0300
0300
ENDCHAR
STARTCHAR 2085
ENCODING 8325
SWIDTH 352 0
DWIDTH 12 0
BBX 9 14 2 -4
BITMAP
7F00
7F00
6000
6000
6000
7C00
7E00
0700
0380
0380
0380
0300
FF00
FE00
ENDCHAR
STARTCHAR 2086
ENCODING 8326
SWIDTH 352 0
DWIDTH 12 0
BBX 10 14 1 -4
BITMAP
1F80
3F80
7000
6000
6000
CF00
DF80
F1C0
E0C0
E0C0
60C0
61C0
3F80
1F00
ENDCHAR
STARTCHAR 2087
ENCODING 8327
SWIDTH 352 0
DWIDTH 12 0
BBX 10 14 1 -4
BITMAP
FFC0
FFC0
0180
0180
0380
0300
0700
0600
0E00
0C00
1C00
1C00
1800
3800
ENDCHAR
STARTCHAR 2088
ENCODING 8328
SWIDTH 352 0
DWIDTH 12 0
BBX 10 14 1 -4
BITMAP
3F80
7F80
61C0
61C0
71C0
7F80
1F00
3F80
61C0
E0C0
E0C0
E0C0
7FC0
3F80
ENDCHAR
STARTCHAR 2089
ENCODING 8329
SWIDTH 352 0
DWIDTH 12 0
BBX 10 14 1 -4
BITMAP
3F00
7F80
61C0
E0C0
E0C0
E0C0
61C0
7FC0
1CC0
00C0
01C0
0180
7F00
7E00
ENDCHAR
STARTCHAR 208A
ENCODING 8330
SWIDTH 352 0
DWIDTH 12 0
BBX 9 10 2 -2
BITMAP
1800
1800
1800
1800
FF80
FF80
1800
1800
1800
1800
ENDCHAR
STARTCHAR 208B
ENCODING 8331
SWIDTH 352 0
DWIDTH 12 0
BBX 9 2 2 2
BITMAP
FF80
FF80
ENDCHAR
STARTCHAR 208C
ENCODING 8332
SWIDTH 352 0
DWIDTH 12 0
BBX 9 6 2 0
BITMAP
FF80
FF80
0000
0000
0000
FF80
ENDCHAR
STARTCHAR 208D
ENCODING 8333
SWIDTH 294 0
DWIDTH 10 0
BBX 5 17 3 -6
BITMAP
18
30
30
60
60
60
E0
E0
C0
E0
60
60
60
60
30
30
18
ENDCHAR
STARTCHAR 208E
ENCODING 8334
SWIDTH 294 0
DWIDTH 10 0
BBX 5 17 2 -6
BITMAP
C0
60
30
30
30
18
18
18
18
18
18
38
30
30
70
60
C0
ENDCHAR
STARTCHAR 2090
ENCODING 8336
SWIDTH 323 0
DWIDTH 11 0
BBX 8 10 1 -5
BITMAP
3C
7E
43
03
3F
E3
C3
C7
FF
73
ENDCHAR
STARTCHAR 2091
ENCODING 8337
SWIDTH 323 0
DWIDTH 11 0
BBX 8 10 1 -5
BITMAP
1C
7E
63
C3
FF
FF
C0
E1
7F
1E
ENDCHAR
STARTCHAR 2092
ENCODING 8338
SWIDTH 352 0
DWIDTH 12 0
BBX 10 10 1 -5
BITMAP
1E00
7F00
6380
C180
C1C0
C1C0
C180
6380
7F00
1E00
ENDCHAR
STARTCHAR 2093
ENCODING 8339
SWIDTH 264 0
DWIDTH 9 0
BBX 9 10 0 -5
BITMAP
E380
6300
3600
3E00
1C00
1C00
3E00
3600
6300
E380
ENDCHAR
STARTCHAR 2094
ENCODING 8340
SWIDTH 323 0
DWIDTH 11 0
BBX 9 10 1 -5
BITMAP
3C00
7E00
0300
0300
FF80
FF80
C300
6300
7E00
3C00
ENDCHAR
STARTCHAR 20AC
ENCODING 8364
SWIDTH 529 0
DWIDTH 18 0
BBX 15 24 1 0
BITMAP
00FE
03FE
0782
0F00
0E00
1C00
1C00
1C00
FFF8
FFF8
3800
3800
3800
FFF8
FFF8
3800
1C00
1C00
1C00
0E00
0E00
0782
03FE
00FE
ENDCHAR
STARTCHAR 20DD
ENCODING 8413
SWIDTH 823 0
DWIDTH 28 0
BBX 24 24 2 0
BITMAP
00FF00
03C3C0
0E0070
180018
30000C
300006
600006
400003
C00003
C00003
C00001
800001
800001
C00001
C00003
C00003
400003
600006
600006
30000C
180018
0E0030
0781E0
01FF80
ENDCHAR
STARTCHAR 2100
ENCODING 8448
SWIDTH 794 0
DWIDTH 27 0
BBX 24 24 2 -1
BITMAP
0F3007
1FF00E
30E00C
706018
606030
606070
60E0E0
E0C1C0
60C180
61C300
7EC600
3DCC00
001C3E
0038FE
0071C2
006380
00C300
018700
030700
070700
0E0700
1C0300
1803F8
3001F8
ENDCHAR
STARTCHAR 2101
ENCODING 8449
SWIDTH 794 0
DWIDTH 27 0
BBX 24 24 2 -1
BITMAP
0F7007
1FE00E
30E01C
60E018
606030
E0E060
E0C0C0
C0C1C0
E1C380
61C700
7FC600
3D8C00
00183C
0030FE
0070C2
00E180
01C1C0
0180F0
030078
06001C
0C000C
1C020C
3803FC
7001F8
ENDCHAR
STARTCHAR 2102
ENCODING 8450
SWIDTH 647 0
DWIDTH 22 0
BBX 18 24 2 0
BITMAP
00FFC0
03FFC0
0F0000
1C0000
3C0000
3C0000
6C0000
6C0000
CC0000
CC0000
CC0000
CC0000
CC0000
CC0000
CC0000
CC0000
CC0000
6C0000
6C0000
3C0000
3C0000
1E0000
0FE3C0
03FFC0
ENDCHAR
STARTCHAR 2103
ENCODING 8451
SWIDTH 1000 0
DWIDTH 34 0
BBX 30 24 2 0
BITMAP
3E000FF8
7F003FFC
E3807C3C
C180F000
C181C000
C1838000
E3838000
7F070000
3E070000
00070000
000E0000
000E0000
000E0000
000E0000
000E0000
00070000
00070000
00070000
00038000
0003C000
0001E000
0000F81C
00007FFC
00001FF8
ENDCHAR
STARTCHAR 2104
ENCODING 8452
SWIDTH 588 0
DWIDTH 20 0
BBX 17 24 2 0
BITMAP
038000
038000
038000
07F800
1FF800
3FB800
738000
E38000
E38000
E38000
E38000
E38000
E38000
E38000
F38000
7B8000
3FF800
1FF800
07F000
038000
038000
03FF80
03FF80
03FF80
ENDCHAR
STARTCHAR 2105
ENCODING 8453
SWIDTH 794 0
DWIDTH 27 0
BBX 23 24 2 0
BITMAP
0FC00C
1FC01C
384038
700070
6000E0
6000C0
600180
E00300
600700
608E00
7F1C00
3F3800
0030F8
0063FC
00C70E
01C606
038E06
070C06
0E0C06
0C0C0E
180C0C
300C1C
7007F8
E003F0
ENDCHAR
STARTCHAR 2106
ENCODING 8454
SWIDTH 794 0
DWIDTH 27 0
BBX 24 24 2 0
BITMAP
0FC01C
3FC018
704030
600060
E000C0
E001C0
C00380
C00700
C00600
E10C00
7F1800
3E3000
007307
00E306
01C706
018606
030606
06060E
0C060C
1C0E0C
380C0C
700E1C
6007F8
C007D8
ENDCHAR
STARTCHAR 2107
ENCODING 8455
SWIDTH 529 0
DWIDTH 18 0
BBX 15 24 2 0
BITMAP
07F8
1FFC
3E3C
7800
7000
7000
7000
7000
7800
3C00
1FF0
07F0
1FF0
3C00
7000
E000
E000
E000
E000
E000
7000
7C0E
3FFE
0FFC
ENDCHAR
STARTCHAR 2108
ENCODING 8456
SWIDTH 617 0
DWIDTH 21 0
BBX 17 24 2 0
BITMAP
7FC000
FFF000
F0F800
003C00
000E00
000F00
000700
000380
000380
000380
000380
0FFF80
0FFF80
000380
000380
000380
000380
000780
000700
000F00
001E00
E07C00
FFF800
7FE000
ENDCHAR
STARTCHAR 2109
ENCODING 8457
SWIDTH 852 0
DWIDTH 29 0
BBX 26 24 2 1
BITMAP
3E03FFC0
7F03FFC0
E383FFC0
C1838000
C1838000
C1838000
E3838000
7F038000
3E038000
00038000
00038000
0003FF80
0003FF80
00038000
00038000
00038000
00038000
00038000
00038000
00038000
00038000
00038000
00038000
00038000
ENDCHAR
STARTCHAR 210A
ENCODING 8458
SWIDTH 647 0
DWIDTH 22 0
BBX 23 25 -1 -7
BITMAP
007F00
018180
030380
070380
060380
0E0382
0E0304
0E0704
0E0708
0E0710
0E0720
0E0640
060780
070E00
01FE00
0E0E00
380C00
700C00
601C00
601800
E01800
603000
602000
304000
1F8000
ENDCHAR
STARTCHAR 210B
ENCODING 8459
SWIDTH 1000 0
DWIDTH 34 0
BBX 33 25 1 0
BITMAP
03C0701F00
1C3FF03100
3002002180
2002006180
6006004180
600600C100
600C00C100
600C01C200
700C018600
389C018C00
1F1C01F000
001C3F8000
001FC38000
001E038000
0038030000
0038030000
0038070000
6030070000
E070070000
C060070000
C060070800
C0C0070800
4080039000
330003E000
0C00000000
ENDCHAR
STARTCHAR 210C
ENCODING 8460
SWIDTH 970 0
DWIDTH 33 0
BBX 31 26 1 0
BITMAP
0000001C
0000003E
03E000CE
0FF00084
10700180
20700380
40300380
C0380380
C0380380
E0380380
F0380380
78388380
3C39C780
1C3BEB80
0C3CF380
08386380
10380380
00380380
00380380
00300380
00300380
00700380
08600388
1C400390
1F8003E0
0F0003C0
ENDCHAR
STARTCHAR 210D
ENCODING 8461
SWIDTH 764 0
DWIDTH 26 0
BBX 20 24 3 0
BITMAP
F801F0
F801F0
C80130
C80130
C80130
C80130
C80130
C80130
C80130
C80130
C80130
CFFF30
CFFF30
C80130
C80130
C80130
C80130
C80130
C80130
C80130
C80130
C80130
F801F0
F801F0
ENDCHAR
STARTCHAR 210E
ENCODING 8462
SWIDTH 588 0
DWIDTH 20 0
BBX 16 25 1 1
BITMAP
0700
0700
0600
0E00
0E00
0E00
0E00
0C00
1C7E
1CFF
1D87
1F07
1E07
3C07
3807
3807
3007
7006
700E
700E
700E
600E
E00C
E01C
E01C
ENDCHAR
STARTCHAR 210F
ENCODING 8463
SWIDTH 588 0
DWIDTH 20 0
BBX 16 25 1 1
BITMAP
0700
0700
0600
3FF8
3FF8
0E00
0E00
0C00
1C7E
1CFF
1D87
1F07
1E07
3C07
3807
3807
3007
7006
700E
700E
700E
600E
E00C
E01C
E01C
ENDCHAR
STARTCHAR 2110
ENCODING 8464
SWIDTH 617 0
DWIDTH 21 0
BBX 20 25 1 0
BITMAP
03F070
1C0FF0
300100
300200
600600
600600
600E00
700C00
380C00
1F9C00
001C00
001C00
001C00
001800
003800
003800
003800
603000
E07000
C06000
C06000
C0C000
408000
330000
0C0000
ENDCHAR
STARTCHAR 2111
ENCODING 8465
SWIDTH 470 0
DWIDTH 16 0
BBX 13 24 1 0
BITMAP
03E0
0FF0
1070
2070
4030
C038
C038
E038
F038
7838
3C38
1C38
0C38
0838
1038
0038
0038
0030
0030
0070
0860
1C40
1F80
0F00
ENDCHAR
STARTCHAR 2112
ENCODING 8466
SWIDTH 676 0
DWIDTH 23 0
BBX 20 25 1 0
BITMAP
0201E0
0C0230
180430
180C30
100830
301830
181820
183860
1830C0
0E3180
03BE00
007000
007000
007000
006000
006000
00E000
00C000
00C000
198040
7F8020
83C020
86F020
4C3FC0
300000
ENDCHAR
STARTCHAR 2113
ENCODING 8467
SWIDTH 352 0
DWIDTH 12 0
BBX 10 25 1 -1
BITMAP
0700
0F80
1DC0
1CC0
18C0
18C0
19C0
1980
1B80
1B00
1F00
1E00
1C00
1C00
3800
3800
7800
F800
D800
1800
1800
1840
1CC0
1FC0
0F80
ENDCHAR
STARTCHAR 2114
ENCODING 8468
SWIDTH 852 0
DWIDTH 29 0
BBX 26 25 1 0
BITMAP
38380000
38380000
38380000
FFFFC000
FFFFC000
38380000
38380000
38380000
3839FC00
383BFF00
383F0700
383C0380
383C0380
383801C0
383801C0
383801C0
383801C0
383801C0
383801C0
38380180
383C0380
383C0780
383F0F00
383BFE00
3839FC00
ENDCHAR
STARTCHAR 2115
ENCODING 8469
SWIDTH 764 0
DWIDTH 26 0
BBX 20 24 3 0
BITMAP
C00010
E00010
B00010
980010
8C0010
C60010
E30010
F18010
B8C010
9C6010
8E3010
871810
838C10
81C610
80E310
807190
8038D0
801C70
800E30
800710
800390
8001D0
8000F0
800070
ENDCHAR
STARTCHAR 2116
ENCODING 8470
SWIDTH 1117 0
DWIDTH 38 0
BBX 34 24 3 1
BITMAP
F001C0FE00
F801C1FF00
F801C3C780
FC01C38380
FC01C70180
EE01C70180
EE01C701C0
E701C701C0
E381C70180
E381C70180
E1C1C30380
E1C1C3C700
E0E1C1FE00
E071C07C00
E071C00000
E039C00000
E039C00000
E01DC3FF80
E00DC3FF80
E00EC00000
E007C00000
E007C00000
E003C00000
E001C00000
ENDCHAR
STARTCHAR 2117
ENCODING 8471
SWIDTH 882 0
DWIDTH 30 0
BBX 25 24 3 0
BITMAP
00FF8000
0381E000
0E007000
18001800
30FE0C00
20FF8600
60C1C200
40C0C300
C0C0C300
80C0C100
80C0C100
80C1C180
80C78180
80FF0180
80C00100
C0C00100
C0C00300
60C00200
60C00600
30C00C00
18001800
0C003000
0780E000
01FF8000
ENDCHAR
STARTCHAR 2118
ENCODING 8472
SWIDTH 617 0
DWIDTH 21 0
BBX 18 25 1 -7
BITMAP
040700
080F80
181380
1021C0
3041C0
30C0C0
7080C0
7100C0
7100C0
7200C0
740080
340080
380100
380100
384200
3CFC00
3CF800
5C0000
4C0000
4E0000
CE0000
CC0000
CC0000
F80000
700000
ENDCHAR
STARTCHAR 2119
ENCODING 8473
SWIDTH 588 0
DWIDTH 20 0
BBX 16 24 3 0
BITMAP
FFE0
FFF8
C83C
C836
C832
C833
C833
C833
C833
C833
C836
C836
C83C
CFF8
CF80
C800
C800
C800
C800
C800
C800
C800
F800
F800
ENDCHAR
STARTCHAR 211A
ENCODING 8474
SWIDTH 764 0
DWIDTH 26 0
BBX 23 31 2 -6
BITMAP
01FE00
078780
1C00C0
3C00E0
3C00F0
6C00D8
4C00D8
CC00C8
CC00CC
CC00CC
8C00CC
8C00CC
8C00CC
8C00CC
8C00CC
CC00CC
CC00C8
CC00D8
6C00D8
6C00F0
3C00E0
1C00E0
0F0380
03FE00
003300
001980
0008E0
00063E
000302
0001FE
000010
ENDCHAR
STARTCHAR 211B
ENCODING 8475
SWIDTH 823 0
DWIDTH 28 0
BBX 27 25 1 0
BITMAP
007FF000
03809C00
04010600
18030300
10060300
30060380
600E0380
600E0300
600C0300
601C0600
301C0C00
3D9FF000
061C1000
00181800
00380C00
00380C00
00380C00
60301C00
E0301C00
C0701C00
C0601C00
C0E01C20
40C00C40
33000F80
0C000000
ENDCHAR
STARTCHAR 211C
ENCODING 8476
SWIDTH 852 0
DWIDTH 29 0
BBX 27 24 1 0
BITMAP
03E07800
0FF1FC00
10733C00
203A1E00
603C0E00
40380E00
E0380C00
F0381C00
78381800
7C383000
1C384000
0E39E000
0C3FF800
0C383C00
18381C00
00381C00
00381C00
00381C00
00301C00
00301C00
08601C60
1C401CC0
1E800F80
0F000F00
ENDCHAR
STARTCHAR 211D
ENCODING 8477
SWIDTH 647 0
DWIDTH 22 0
BBX 18 24 3 0
BITMAP
FFE000
FFF800
C82C00
C82600
C82200
C82300
C82300
C82300
C82300
C82600
C82600
C83C00
CFF800
CFD000
C99800
C8C800
C8CC00
C86600
C82200
C83300
C81980
C81980
C80CC0
F80FC0
ENDCHAR
STARTCHAR 211E
ENCODING 8478
SWIDTH 647 0
DWIDTH 22 0
BBX 18 24 3 0
BITMAP
FF8000
FFF000
FFF800
E03C00
E01C00
E01C00
E00C00
E01C00
E01C00
E01C00
E03800
FFF000
FFE000
FFC1C0
E0E380
E07380
E03F00
E03E00
E01C00
E01E00
E03F00
E07700
E0E380
E0E1C0
ENDCHAR
STARTCHAR 211F
ENCODING 8479
SWIDTH 617 0
DWIDTH 21 0
BBX 18 35 3 -5
BITMAP
080000
1E0000
0FC000
01F800
003800
003000
FFF000
FFF800
FFFC00
E07C00
E0CE00
E0CE00
E0CE00
E18E00
E18E00
E19C00
E33C00
E3F800
FFE000
FFE000
E6F000
E67800
EC3800
EC1C00
EC1C00
F80E00
F80F00
F80700
F00380
F003C0
300000
600000
600000
E00000
C00000
ENDCHAR
STARTCHAR 2120
ENCODING 8480
SWIDTH 764 0
DWIDTH 26 0
BBX 21 11 2 12
BITMAP
7C6018
FC7038
C07038
C07878
E07858
7868D8
1C6C98
0E6598
066798
8C6318
F86318
ENDCHAR
STARTCHAR 2121
ENCODING 8481
SWIDTH 764 0
DWIDTH 26 0
BBX 24 11 1 0
BITMAP
FFBF30
FFBF30
0C3030
0C3030
0C3030
0C3F30
0C3030
0C3030
0C3030
0C3F3F
0C3F3F
ENDCHAR
STARTCHAR 2122
ENCODING 8482
SWIDTH 764 0
DWIDTH 26 0
BBX 22 11 2 13
BITMAP
FF381C
FF381C
183C1C
183C3C
18342C
18366C
18324C
1833CC
1833CC
18318C
18318C
ENDCHAR
STARTCHAR 2123
ENCODING 8483
SWIDTH 617 0
DWIDTH 21 0
BBX 21 34 0 -4
BITMAP
03C000
01F800
003F00
000600
000600
F00638
700C70
700C70
380C70
3818E0
3818E0
1C18C0
1C31C0
1C31C0
0E3380
0E6380
0E6380
07E700
07C700
07C700
03CE00
038E00
018C00
03DC00
03DC00
03D800
07F800
06F800
067000
0E0000
0C0000
0C0000
180000
180000
ENDCHAR
STARTCHAR 2124
ENCODING 8484
SWIDTH 558 0
DWIDTH 19 0
BBX 18 24 1 0
BITMAP
FFFFC0
FFFFC0
000D80
001980
001300
003200
006600
004C00
00CC00
019800
019000
033000
026000
066000
0CC000
0C8000
198000
130000
330000
660000
6C0000
CC0000
FFFFC0
FFFFC0
ENDCHAR
STARTCHAR 2125
ENCODING 8485
SWIDTH 500 0
DWIDTH 17 0
BBX 15 32 1 -8
BITMAP
7FFC
7FF8
7FF0
0070
00E0
01C0
0380
0700
7FFC
7FF8
0038
0070
00E0
01C0
0380
0300
0700
0FC0
0FF0
00F8
003C
001C
000E
000E
000E
000E
001C
001C
8038
F3F0
FFE0
3F80
ENDCHAR
STARTCHAR 2126
ENCODING 8486
SWIDTH 764 0
DWIDTH 26 0
BBX 22 24 2 1
BITMAP
03FE00
0FFF80
1F87E0
3C01F0
780070
700038
F00038
E0001C
E0001C
E0001C
E0001C
E0001C
E0001C
E0001C
E0001C
E00038
700038
700070
380070
1C00E0
0E01C0
070300
FF07FC
FF07FC
ENDCHAR
STARTCHAR 2127
ENCODING 8487
SWIDTH 764 0
DWIDTH 26 0
BBX 22 24 2 -1
BITMAP
FF07FC
FF07FC
FF07FC
0E0380
1C00E0
3800E0
380070
700038
E00038
E0001C
E0001C
E0001C
E0001C
E0001C
E0001C
E0001C
E0001C
E00038
700038
780078
3C00F0
1F03E0
0FFFC0
03FF00
ENDCHAR
STARTCHAR 2128
ENCODING 8488
SWIDTH 500 0
DWIDTH 17 0
BBX 14 25 1 0
BITMAP
2000
3FFC
7FFC
7FF8
0010
0030
0060
00C0
0180
0380
07E0
0FF0
1078
003C
001C
001C
001C
000C
001C
0018
0018
4030
E060
F180
7E00
ENDCHAR
STARTCHAR 2129
ENCODING 8489
SWIDTH 294 0
DWIDTH 10 0
BBX 6 17 1 0
BITMAP
F0
F8
38
1C
1C
1C
1C
1C
1C
1C
1C
1C
1C
1C
1C
1C
1C
ENDCHAR
STARTCHAR 212A
ENCODING 8490
SWIDTH 588 0
DWIDTH 20 0
BBX 16 24 3 0
BITMAP
E00F
E01E
E03C
E038
E070
E0E0
E1C0
E380
E780
EF00
EE00
FC00
FE00
EE00
E700
E380
E3C0
E1E0
E0F0
E078
E03C
E01C
E00E
E00F
ENDCHAR
STARTCHAR 212B
ENCODING 8491
SWIDTH 647 0
DWIDTH 22 0
BBX 20 29 1 0
BITMAP
00F000
01F800
010800
030800
011800
01F000
00F000
00F000
01F800
01F800
039800
039C00
031C00
070E00
070E00
060E00
0E0700
0E0700
1C0300
1C0380
1FFF80
3FFFC0
3801C0
7001C0
7000E0
7000E0
E00070
E00070
E00070
ENDCHAR
STARTCHAR 212C
ENCODING 8492
SWIDTH 794 0
DWIDTH 27 0
BBX 25 25 1 0
BITMAP
007FF000
03809C00
04010700
18020300
30060380
20060380
600E0380
600C0300
600C0700
601C0E00
701F9800
3D9FF800
0C180C00
00380600
00380700
00380300
00300380
60300380
E0700700
C0630700
C0640700
C0C40E00
40841C00
33023000
0C01C000
ENDCHAR
STARTCHAR 212D
ENCODING 8493
SWIDTH 647 0
DWIDTH 22 0
BBX 19 24 2 0
BITMAP
007C20
01DE40
028F80
0C8700
190000
110000
310000
638000
638000
E1C000
E1E000
E0F000
E07800
E03C00
E01C00
E00C00
E00C00
701800
781000
380000
3E0040
1F8180
0FFF80
03FF00
ENDCHAR
STARTCHAR 212E
ENCODING 8494
SWIDTH 588 0
DWIDTH 20 0
BBX 18 19 1 0
BITMAP
03F800
0E0C00
180600
300300
700380
700380
7003C0
7003C0
FFFFC0
F00000
F00000
700000
700000
700000
300180
300300
1C0600
07F800
00C000
ENDCHAR
STARTCHAR 212F
ENCODING 8495
SWIDTH 647 0
DWIDTH 22 0
BBX 19 17 1 0
BITMAP
01F800
020C00
040600
0C0600
180E00
180C00
381C00
383020
7FC020
B80040
380080
380180
380300
380600
1C0C00
0FF800
07E000
ENDCHAR
STARTCHAR 2130
ENCODING 8496
SWIDTH 558 0
DWIDTH 19 0
BBX 16 24 1 0
BITMAP
01FC
0706
0E03
0C11
1C11
1C13
1C1E
0C00
0C00
0600
0200
03F8
1C00
3800
7000
7000
6006
E006
6006
6002
7002
7802
3C04
0FF8
ENDCHAR
STARTCHAR 2131
ENCODING 8497
SWIDTH 794 0
DWIDTH 27 0
BBX 26 27 1 -1
BITMAP
00000300
00000CC0
00FFE040
0700FFC0
0C010780
18030000
30060000
20060000
600E0000
600C0000
600C0000
601C0000
301C0000
3D9FF800
041C0000
00380000
00380000
00380000
00380000
60300000
E0700000
C0600000
C0600000
C0C00000
40800000
33000000
0C000000
ENDCHAR
STARTCHAR 2132
ENCODING 8498
SWIDTH 500 0
DWIDTH 17 0
BBX 12 24 1 0
BITMAP
0030
0030
0030
0030
0030
0030
0030
0030
0030
0030
0030
7FF0
7FF0
0030
0030
0030
0030
0030
0030
0030
0030
FFF0
FFF0
FFF0
ENDCHAR
STARTCHAR 2133
ENCODING 8499
SWIDTH 1088 0
DWIDTH 37 0
BBX 35 25 0 0
BITMAP
0000300020
00006000E0
0000600180
0000E00380
0000E00500
0001600900
0001601300
0001603200
0002602600
0002704600
000270C600
0006708600
0004318E00
0004310C00
00043B0C00
000C3A0C00
00083A0C00
70083C1C00
70101C1C00
E010181C00
C030181C00
4020101C20
6040300E40
3180300F80
0E00000000
ENDCHAR
STARTCHAR 2134
ENCODING 8500
SWIDTH 647 0
DWIDTH 22 0
BBX 21 17 0 0
BITMAP
01FC00
030600
060200
0C0300
0C0300
180300
380300
380308
780310
B80320
380340
380380
380E00
180C00
1C0400
0E0800
07F000
ENDCHAR
STARTCHAR 2135
ENCODING 8501
SWIDTH 705 0
DWIDTH 24 0
BBX 20 19 2 1
BITMAP
F00070
780070
3C0060
1E0060
0E00E0
0700E0
0F81C0
1FC3C0
38EF80
70FF00
707800
603C00
E01C00
E00E00
E00700
E00380
E001C0
E000E0
E000F0
ENDCHAR
STARTCHAR 2136
ENCODING 8502
SWIDTH 529 0
DWIDTH 18 0
BBX 16 19 1 1
BITMAP
7FC0
7FF0
7FF8
0038
0018
001C
001C
001C
001C
001C
001C
001C
001C
001C
001C
001C
FFFF
FFFF
FFFF
ENDCHAR
STARTCHAR 2137
ENCODING 8503
SWIDTH 382 0
DWIDTH 13 0
BBX 11 19 1 0
BITMAP
7800
7E00
3F00
0700
0700
0300
0300
0300
0300
0300
0700
0780
0780
0D80
1DC0
79C0
F1C0
E0E0
80E0
ENDCHAR
STARTCHAR 2138
ENCODING 8504
SWIDTH 500 0
DWIDTH 17 0
BBX 16 19 0 1
BITMAP
FFFF
FFFF
FFFF
0018
0018
0018
0018
0018
0018
0018
0018
0018
0018
0018
0018
0018
0018
0018
0018
ENDCHAR
STARTCHAR 2139
ENCODING 8505
SWIDTH 823 0
DWIDTH 28 0
BBX 4 18 12 3
BITMAP
60
F0
F0
70
00
00
F0
F0
F0
F0
F0
F0
F0
F0
F0
F0
F0
F0
ENDCHAR
STARTCHAR 213A
ENCODING 8506
SWIDTH 970 0
DWIDTH 33 0
BBX 30 23 2 0
BITMAP
0000001C
01FF801C
07FFE00C
0FC3F00C
3C00781C
38001C1C
70000E38
E0000E78
E00007F0
E00007E0
E00007C0
C0000780
C0000700
E0000700
E0000700
E0000600
F0000E00
70001E00
78003C00
3E007800
1F83F000
07FFE000
01FF8000
ENDCHAR
STARTCHAR 213B
ENCODING 8507
SWIDTH 1117 0
DWIDTH 38 0
BBX 34 24 3 0
BITMAP
FF0783C1C0
FF0781C380
FF0781C380
E00780E380
E00FC0E300
E00FC0E700
E00DC07700
E00CC07600
E00CC07E00
E01CE03E00
E01CE03C00
FF1CE03C00
FF18E03C00
E018603C00
E038703E00
E03FF07E00
E03FF07E00
E038706700
E03070E700
E07038E700
E07039C380
E07039C380
E07039C3C0
E0603B81C0
ENDCHAR
STARTCHAR 213D
ENCODING 8509
SWIDTH 588 0
DWIDTH 20 0
BBX 18 25 0 -8
BITMAP
FC0080
7E00C0
6600C0
3300C0
3300C0
1980C0
1980C0
0C8180
0CC180
044180
066300
066300
032200
033600
013C00
019C00
019800
019800
019000
019000
019000
019000
019000
01F000
01F000
ENDCHAR
STARTCHAR 213E
ENCODING 8510
SWIDTH 529 0
DWIDTH 18 0
BBX 14 24 3 0
BITMAP
FFFC
FFFC
C800
C800
C800
C800
C800
C800
C800
C800
C800
C800
C800
C800
C800
C800
C800
C800
C800
C800
C800
C800
C800
F800
ENDCHAR
STARTCHAR 213F
ENCODING 8511
SWIDTH 823 0
DWIDTH 28 0
BBX 22 32 3 -8
BITMAP
FFFFFC
FFFFFC
C800CC
C800CC
C800CC
C800CC
C800CC
C800CC
C800CC
C800CC
C800CC
C800CC
C800CC
C800CC
C800CC
C800CC
C800CC
C800CC
C800CC
C800CC
C800CC
C800CC
C800CC
C800CC
C800CC
C800CC
C800CC
C800CC
C800CC
C800CC
F800FC
F800FC
ENDCHAR
STARTCHAR 2140
ENCODING 8512
SWIDTH 647 0
DWIDTH 22 0
BBX 20 32 1 -8
BITMAP
FFFFF0
FFFFF0
660000
630000
330000
198000
08C000
0CC000
066000
033000
033000
019800
00CC00
00C400
006C00
003C00
003800
003000
006000
00C000
01C000
018000
030000
060000
0C0000
1C0000
180000
3FFFF0
600030
C00030
FFFFF0
FFFFF0
ENDCHAR
STARTCHAR 2141
ENCODING 8513
SWIDTH 676 0
DWIDTH 23 0
BBX 20 24 2 0
BITMAP
0FF800
7FFE00
FC3F00
E00780
E003C0
E001C0
E000E0
E000E0
E000E0
E00070
FF0070
FF0070
FF0070
000070
000070
0000E0
0000E0
0001E0
0001C0
000380
400780
701F00
7FFC00
3FF000
ENDCHAR
STARTCHAR 2142
ENCODING 8514
SWIDTH 470 0
DWIDTH 16 0
BBX 12 24 1 0
BITMAP
FFF0
FFF0
FFF0
0070
0070
0070
0070
0070
0070
0070
0070
0070
0070
0070
0070
0070
0070
0070
0070
0070
0070
0070
0070
0070
ENDCHAR
STARTCHAR 2143
ENCODING 8515
SWIDTH 470 0
DWIDTH 16 0
BBX 12 24 1 0
BITMAP
0070
0070
0070
0070
0070
0070
0070
0070
0070
0070
0070
0070
0070
0070
0070
0070
0070
0070
0070
0070
0070
FFF0
FFF0
FFF0
ENDCHAR
STARTCHAR 2144
ENCODING 8516
SWIDTH 558 0
DWIDTH 19 0
BBX 18 24 0 0
BITMAP
00E000
00E000
00E000
00E000
00E000
00E000
00E000
00E000
00E000
00E000
01F000
01F000
03B800
03B800
071C00
071C00
0E0E00
0E0E00
1C0700
1C0700
380380
300380
7001C0
E001C0
ENDCHAR
STARTCHAR 2145
ENCODING 8517
SWIDTH 705 0
DWIDTH 24 0
BBX 23 24 0 0
BITMAP
07FF00
07FFE0
064070
04C038
0CC03C
0CC06C
0C806C
0C8066
098066
198046
1980CE
1900CC
1300CC
13008C
33008C
330198
320198
2601B0
660170
6601E0
6403C0
640780
7FFE00
FFF000
ENDCHAR
STARTCHAR 2146
ENCODING 8518
SWIDTH 647 0
DWIDTH 22 0
BBX 21 25 1 0
BITMAP
0001F8
000198
000190
000130
000130
000330
000320
000320
01FE60
070260
0F0660
1A0640
320640
2604C0
660CC0
460CC0
440C80
CC0D80
CC0980
CC1980
C81980
583900
787300
39DF00
1F9F00
ENDCHAR
STARTCHAR 2147
ENCODING 8519
SWIDTH 588 0
DWIDTH 20 0
BBX 16 17 2 0
BITMAP
03FC
0E0E
1E0F
340B
6C1B
4C19
CC1B
C81B
8FFF
9800
9800
9800
D000
F000
7000
7878
1FF0
ENDCHAR
STARTCHAR 2148
ENCODING 8520
SWIDTH 323 0
DWIDTH 11 0
BBX 11 25 0 1
BITMAP
0380
06C0
0460
0640
07C0
0000
0000
0000
0F80
0F80
1980
1900
1B00
1300
1300
3300
3200
3600
2600
6600
6600
6400
4C00
7C00
FC00
ENDCHAR
STARTCHAR 2149
ENCODING 8521
SWIDTH 323 0
DWIDTH 11 0
BBX 17 33 -6 -7
BITMAP
000E00
001B00
001180
001900
001F00
000000
000000
000000
003E00
003E00
006600
006400
006400
004C00
004C00
00CC00
00C800
00D800
009800
019800
019800
019000
01B000
013000
033000
032000
036000
026000
024000
06C000
0F8000
FF0000
FC0000
ENDCHAR
STARTCHAR 214A
ENCODING 8522
SWIDTH 647 0
DWIDTH 22 0
BBX 17 25 3 1
BITMAP
038000
038000
FF8000
FFFC00
FFFF00
E38F00
E38380
E38380
E38380
E38380
E38380
E38380
E38700
E3FF00
E3FE00
E3F800
E38000
E38000
E38000
038000
038000
038000
03FF80
03FF80
03FF80
ENDCHAR
STARTCHAR 214B
ENCODING 8523
SWIDTH 794 0
DWIDTH 27 0
BBX 24 24 1 0
BITMAP
F80FF0
FC3FFC
9E7C3E
0FE00E
07C007
038007
07C007
07C007
0EE007
0C7007
1C780E
183C1C
180F78
3807F0
3807E0
381E70
383838
383018
387018
007018
003018
003838
001FF0
000FE0
ENDCHAR
STARTCHAR 2190
ENCODING 8592
SWIDTH 852 0
DWIDTH 29 0
BBX 23 10 3 5
BITMAP
080000
180000
300000
600000
FFFFFE
FFFFFE
600000
300000
180000
080000
ENDCHAR
STARTCHAR 2191
ENCODING 8593
SWIDTH 470 0
DWIDTH 16 0
BBX 10 22 3 0
BITMAP
0C00
1E00
3F00
EDC0
0C00
0C00
0C00
0C00
0C00
0C00
0C00
0C00
0C00
0C00
0C00
0C00
0C00
0C00
0C00
0C00
0C00
0C00
ENDCHAR
STARTCHAR 2192
ENCODING 8594
SWIDTH 852 0
DWIDTH 29 0
BBX 22 9 4 6
BITMAP
000020
000030
000018
FFFFFC
FFFFFC
00001C
000038
000030
000020
ENDCHAR
STARTCHAR 2193
ENCODING 8595
SWIDTH 470 0
DWIDTH 16 0
BBX 10 23 3 -1
BITMAP
0C00
0C00
0C00
0C00
0C00
0C00
0C00
0C00
0C00
0C00
0C00
0C00
0C00
0C00
0C00
0C00
0C00
0C00
EDC0
7D80
3F00
1E00
0C00
ENDCHAR
STARTCHAR 2194
ENCODING 8596
SWIDTH 852 0
DWIDTH 29 0
BBX 23 10 3 5
BITMAP
080000
180010
300018
60000C
FFFFFE
FFFFFE
60000E
30001C
180018
080010
ENDCHAR
STARTCHAR 2195
ENCODING 8597
SWIDTH 470 0
DWIDTH 16 0
BBX 10 24 3 -2
BITMAP
0C00
1E00
3F00
7F80
EDC0
0C00
0C00
0C00
0C00
0C00
0C00
0C00
0C00
0C00
0C00
0C00
0C00
0C00
0C00
CCC0
6D80
3F00
1E00
0C00
ENDCHAR
STARTCHAR 2196
ENCODING 8598
SWIDTH 735 0
DWIDTH 25 0
BBX 17 18 4 1
BITMAP
030000
FE0000
E00000
F00000
F80000
DC0000
CE0000
870000
038000
01C000
00E000
007000
003800
001C00
000E00
000700
000380
000100
ENDCHAR
STARTCHAR 2197
ENCODING 8599
SWIDTH 735 0
DWIDTH 25 0
BBX 17 18 4 1
BITMAP
006000
003F80
000780
000F80
001F80
003D80
007980
00F080
01E000
03C000
078000
0F0000
1E0000
3C0000
780000
F00000
E00000
400000
ENDCHAR
STARTCHAR 2198
ENCODING 8600
SWIDTH 735 0
DWIDTH 25 0
BBX 17 17 4 2
BITMAP
C00000
E00000
700000
380000
1C0000
0E0000
070000
038000
01C000
00E080
007180
003980
001D80
000F80
000780
003F80
007F80
ENDCHAR
STARTCHAR 2199
ENCODING 8601
SWIDTH 735 0
DWIDTH 25 0
BBX 17 18 4 1
BITMAP
000100
000380
000780
000F00
001E00
003C00
007800
00F000
01E000
03C000
878000
CF0000
DE0000
FC0000
F80000
F00000
FE0000
FF0000
ENDCHAR
STARTCHAR 219A
ENCODING 8602
SWIDTH 852 0
DWIDTH 29 0
BBX 23 11 3 5
BITMAP
0800C0
1801C0
300180
600380
FFFFFE
FFFFFE
600600
300C00
180C00
081800
003800
ENDCHAR
STARTCHAR 219B
ENCODING 8603
SWIDTH 852 0
DWIDTH 29 0
BBX 23 11 4 5
BITMAP
006020
00E030
00C030
01C018
FFFFFC
FFFFFE
07001C
060038
0E0030
0C0020
1C0000
ENDCHAR
STARTCHAR 219C
ENCODING 8604
SWIDTH 882 0
DWIDTH 30 0
BBX 22 7 4 6
BITMAP
FE0780
E00FC0
F03CE0
F87878
DFF03C
CFC01C
838008
ENDCHAR
STARTCHAR 219D
ENCODING 8605
SWIDTH 882 0
DWIDTH 30 0
BBX 22 8 4 5
BITMAP
000200
0781FC
0FC01C
1CF03C
78787C
F01FEC
E00FCC
400304
ENDCHAR
STARTCHAR 219E
ENCODING 8606
SWIDTH 852 0
DWIDTH 29 0
BBX 23 10 3 5
BITMAP
084000
18C000
318000
630000
FFFFFE
FFFFFE
630000
318000
18C000
084000
ENDCHAR
STARTCHAR 219F
ENCODING 8607
SWIDTH 470 0
DWIDTH 16 0
BBX 10 22 3 0
BITMAP
0C00
1E00
3F00
EDC0
0C00
0C00
1E00
3F00
6D80
ECC0
0C00
0C00
0C00
0C00
0C00
0C00
0C00
0C00
0C00
0C00
0C00
0C00
ENDCHAR
STARTCHAR 21A0
ENCODING 8608
SWIDTH 852 0
DWIDTH 29 0
BBX 22 10 4 5
BITMAP
000400
000620
000730
000318
FFFFFC
FFFFFC
00039C
000738
000630
000420
ENDCHAR
STARTCHAR 21A1
ENCODING 8609
SWIDTH 470 0
DWIDTH 16 0
BBX 10 23 3 -1
BITMAP
0C00
0C00
0C00
0C00
0C00
0C00
0C00
0C00
0C00
0C00
0C00
0C00
CCC0
6D80
3F00
1E00
0C00
0C00
EDC0
7D80
3F00
1E00
0C00
ENDCHAR
STARTCHAR 21A2
ENCODING 8610
SWIDTH 852 0
DWIDTH 29 0
BBX 22 11 3 5
BITMAP
08001C
180038
300070
6000E0
FFFFC0
FFFFC0
6000E0
300060
180030
080018
00000C
ENDCHAR
STARTCHAR 21A3
ENCODING 8611
SWIDTH 852 0
DWIDTH 29 0
BBX 22 11 4 5
BITMAP
600000
300020
180030
0C0018
07FFFC
07FFFC
0C001C
180038
300030
600020
C00000
ENDCHAR
STARTCHAR 21A4
ENCODING 8612
SWIDTH 852 0
DWIDTH 29 0
BBX 23 11 3 5
BITMAP
08000E
18000E
30000E
60000E
FFFFFE
FFFFFE
60000E
30000E
18000E
08000E
00000E
ENDCHAR
STARTCHAR 21A5
ENCODING 8613
SWIDTH 470 0
DWIDTH 16 0
BBX 12 22 2 0
BITMAP
0600
0F00
1F80
76E0
0600
0600
0600
0600
0600
0600
0600
0600
0600
0600
0600
0600
0600
0600
0600
0600
FFF0
FFF0
ENDCHAR
STARTCHAR 21A6
ENCODING 8614
SWIDTH 852 0
DWIDTH 29 0
BBX 22 11 4 5
BITMAP
C00000
C00020
C00030
C00018
FFFFFC
FFFFFC
C0001C
C00038
C00030
C00020
C00000
ENDCHAR
STARTCHAR 21A7
ENCODING 8615
SWIDTH 470 0
DWIDTH 16 0
BBX 12 23 2 -1
BITMAP
FFF0
FFF0
0600
0600
0600
0600
0600
0600
0600
0600
0600
0600
0600
0600
0600
0600
0600
0600
76E0
3EC0
1F80
0F00
0600
ENDCHAR
STARTCHAR 21A8
ENCODING 8616
SWIDTH 470 0
DWIDTH 16 0
BBX 12 26 2 0
BITMAP
0600
0F00
1F80
36C0
6660
0600
0600
0600
0600
0600
0600
0600
0600
0600
0600
0600
0600
0600
0600
76E0
3FC0
1F80
0F00
0600
FFF0
FFF0
ENDCHAR
STARTCHAR 21A9
ENCODING 8617
SWIDTH 852 0
DWIDTH 29 0
BBX 22 13 3 4
BITMAP
0001E0
0001F8
00003C
08000C
18000C
30000C
60001C
FFFFFC
FFFFF8
600000
300000
180000
080000
ENDCHAR
STARTCHAR 21AA
ENCODING 8618
SWIDTH 852 0
DWIDTH 29 0
BBX 22 13 4 4
BITMAP
1F0000
7F0000
F00000
C00000
C00020
C00030
E00018
7FFFFC
3FFFFC
00001C
000038
000030
000020
ENDCHAR
STARTCHAR 21AB
ENCODING 8619
SWIDTH 852 0
DWIDTH 29 0
BBX 22 14 3 4
BITMAP
0000E0
0003F8
0003FC
08070C
18060C
30060C
60061C
FFFFFC
FFFFF8
600600
300600
180600
080600
000600
ENDCHAR
STARTCHAR 21AC
ENCODING 8620
SWIDTH 852 0
DWIDTH 29 0
BBX 22 14 4 4
BITMAP
1C0000
7F0000
F78000
C18000
C18020
C18030
E18018
7FFFFC
3FFFFC
01801C
018038
018030
018020
018000
ENDCHAR
STARTCHAR 21AD
ENCODING 8621
SWIDTH 852 0
DWIDTH 29 0
BBX 23 10 3 5
BITMAP
080000
180010
303818
603C0C
FC6C7E
FE667E
67C7CE
33839C
190118
080010
ENDCHAR
STARTCHAR 21AE
ENCODING 8622
SWIDTH 852 0
DWIDTH 29 0
BBX 23 11 3 5
BITMAP
080600
180E10
300C18
601C0C
FFFFFE
FFFFFE
60300E
30701C
186018
08C010
00C000
ENDCHAR
STARTCHAR 21AF
ENCODING 8623
SWIDTH 676 0
DWIDTH 23 0
BBX 14 25 4 -2
BITMAP
0800
0C00
0C00
1C00
1C00
1800
1800
3800
300C
303C
30FC
77F8
7F18
7C38
7030
8030
0030
0070
0460
0660
0364
01FC
01F8
00E0
0080
ENDCHAR
STARTCHAR 21B0
ENCODING 8624
SWIDTH 558 0
DWIDTH 19 0
BBX 12 22 3 1
BITMAP
0800
1800
3000
6000
FFF0
FFF0
6030
3030
1830
0830
0030
0030
0030
0030
0030
0030
0030
0030
0030
0030
0030
0030
ENDCHAR
STARTCHAR 21B1
ENCODING 8625
SWIDTH 558 0
DWIDTH 19 0
BBX 12 22 2 1
BITMAP
0080
00C0
00E0
0070
FFF0
FFF0
E070
E0E0
E0C0
E080
E000
E000
E000
E000
E000
E000
E000
E000
E000
E000
E000
E000
ENDCHAR
STARTCHAR 21B2
ENCODING 8626
SWIDTH 558 0
DWIDTH 19 0
BBX 13 23 2 0
BITMAP
0018
0018
0018
0018
0018
0018
0018
0018
0018
0018
0018
0018
0418
0C18
1C18
3818
7FF8
FFF8
7FF8
3800
1C00
0C00
0400
ENDCHAR
STARTCHAR 21B3
ENCODING 8627
SWIDTH 558 0
DWIDTH 19 0
BBX 13 22 2 0
BITMAP
E000
E000
E000
E000
E000
E000
E000
E000
E000
E000
E000
E000
E000
E080
E0C0
E060
FFF0
FFF8
FFF0
0060
00C0
0080
ENDCHAR
STARTCHAR 21B4
ENCODING 8628
SWIDTH 852 0
DWIDTH 29 0
BBX 22 12 4 4
BITMAP
FFFFC0
FFFFC0
0000C0
0000C0
0000C0
0000C0
0000C0
000CDC
0006F8
0003F0
0001E0
0000C0
ENDCHAR
STARTCHAR 21B5
ENCODING 8629
SWIDTH 558 0
DWIDTH 19 0
BBX 13 16 2 1
BITMAP
0018
0018
0018
0018
0018
0418
0C18
1C18
3818
7FF8
FFF8
7FF8
3800
1C00
0C00
0400
ENDCHAR
STARTCHAR 21B6
ENCODING 8630
SWIDTH 852 0
DWIDTH 29 0
BBX 22 16 3 1
BITMAP
007F80
01FFE0
03C0F0
070038
060018
0E001C
0C000C
0C000C
0C000C
0C000C
0C000C
EDC000
7F8000
3F0000
1E0000
0C0000
ENDCHAR
STARTCHAR 21B7
ENCODING 8631
SWIDTH 852 0
DWIDTH 29 0
BBX 22 16 4 1
BITMAP
07F800
1FFE00
3C0F00
700380
600180
E00180
C001C0
C000C0
C000C0
C000C0
C000C0
000EDC
0006F8
0003F0
0001C0
000080
ENDCHAR
STARTCHAR 21B8
ENCODING 8632
SWIDTH 852 0
DWIDTH 29 0
BBX 22 22 4 1
BITMAP
FFFFFC
FFFFFC
FFFFFC
000000
000000
FE0000
FC0000
F00000
F80000
DC0000
CE0000
870000
038000
01C000
00E000
007000
003800
001C00
000E00
000700
000380
000100
ENDCHAR
STARTCHAR 21B9
ENCODING 8633
SWIDTH 911 0
DWIDTH 31 0
BBX 23 22 4 1
BITMAP
C00000
C20000
C60000
CC0000
DFFFFE
FFFFFE
D80000
CC0000
C60000
C20000
C00000
000106
000186
0001C6
0000E6
FFFFF6
FFFFFE
FFFFF6
0000E6
0001C6
000186
000106
ENDCHAR
STARTCHAR 21BA
ENCODING 8634
SWIDTH 852 0
DWIDTH 29 0
BBX 21 19 4 0
BITMAP
0007F8
0007F0
300780
3007C0
7006C0
E006E0
C00660
C00460
C00070
C00070
C00060
C00060
E00060
6000E0
7001C0
380380
1F0F00
0FFE00
01F800
ENDCHAR
STARTCHAR 21BB
ENCODING 8635
SWIDTH 852 0
DWIDTH 29 0
BBX 21 19 4 0
BITMAP
FF0000
7F0000
0F0040
1F00E0
3B0070
330030
330038
710018
700018
600018
700018
300038
300030
380070
1C0060
0E01E0
0787C0
03FF00
00FC00
ENDCHAR
STARTCHAR 21BC
ENCODING 8636
SWIDTH 852 0
DWIDTH 29 0
BBX 24 6 2 9
BITMAP
040000
0C0000
180000
300000
7FFFFF
FFFFFF
ENDCHAR
STARTCHAR 21BD
ENCODING 8637
SWIDTH 852 0
DWIDTH 29 0
BBX 24 6 2 5
BITMAP
FFFFFF
7FFFFF
300000
180000
0C0000
040000
ENDCHAR
STARTCHAR 21BE
ENCODING 8638
SWIDTH 382 0
DWIDTH 13 0
BBX 5 23 4 -1
BITMAP
80
C0
E0
F0
D8
C0
C0
C0
C0
C0
C0
C0
C0
C0
C0
C0
C0
C0
C0
C0
C0
C0
C0
ENDCHAR
STARTCHAR 21BF
ENCODING 8639
SWIDTH 382 0
DWIDTH 13 0
BBX 6 23 3 -1
BITMAP
04
0C
1C
3C
EC
0C
0C
0C
0C
0C
0C
0C
0C
0C
0C
0C
0C
0C
0C
0C
0C
0C
0C
ENDCHAR
STARTCHAR 21C0
ENCODING 8640
SWIDTH 852 0
DWIDTH 29 0
BBX 23 5 4 10
BITMAP
000020
000030
000018
FFFFFC
FFFFFE
ENDCHAR
STARTCHAR 21C1
ENCODING 8641
SWIDTH 852 0
DWIDTH 29 0
BBX 23 6 4 5
BITMAP
FFFFFE
FFFFFE
00001C
000038
000030
000020
ENDCHAR
STARTCHAR 21C2
ENCODING 8642
SWIDTH 382 0
DWIDTH 13 0
BBX 6 23 4 -1
BITMAP
C0
C0
C0
C0
C0
C0
C0
C0
C0
C0
C0
C0
C0
C0
C0
C0
C0
C0
DC
F8
F0
E0
C0
ENDCHAR
STARTCHAR 21C3
ENCODING 8643
SWIDTH 382 0
DWIDTH 13 0
BBX 6 23 3 -1
BITMAP
0C
0C
0C
0C
0C
0C
0C
0C
0C
0C
0C
0C
0C
0C
0C
0C
0C
0C
EC
7C
3C
1C
0C
ENDCHAR
STARTCHAR 21C4
ENCODING 8644
SWIDTH 911 0
DWIDTH 31 0
BBX 23 20 4 0
BITMAP
000020
000030
000018
FFFFFC
FFFFFE
FFFFFC
000018
000030
000020
000000
000000
080000
180000
300000
600000
FFFFFE
7FFFFE
300000
180000
080000
ENDCHAR
STARTCHAR 21C5
ENCODING 8645
SWIDTH 882 0
DWIDTH 30 0
BBX 20 23 5 -1
BITMAP
080380
1C0380
3E0380
7F0380
DD8380
1C0380
1C0380
1C0380
1C0380
1C0380
1C0380
1C0380
1C0380
1C0380
1C0380
1C0380
1C0380
1C0380
1C1BB0
1C0FE0
1C07C0
1C0380
1C0100
ENDCHAR
STARTCHAR 21C6
ENCODING 8646
SWIDTH 911 0
DWIDTH 31 0
BBX 23 20 4 0
BITMAP
080000
180000
300000
7FFFFE
FFFFFE
7FFFFE
300000
180000
080000
000000
000000
000020
000030
000018
00000C
FFFFFE
FFFFFC
000018
000030
000020
ENDCHAR
STARTCHAR 21C7
ENCODING 8647
SWIDTH 911 0
DWIDTH 31 0
BBX 23 21 4 0
BITMAP
080000
180000
300000
7FFFFE
FFFFFE
7FFFFE
300000
180000
080000
000000
000000
080000
180000
300000
600000
FFFFFE
7FFFFE
300000
180000
080000
080000
ENDCHAR
STARTCHAR 21C8
ENCODING 8648
SWIDTH 882 0
DWIDTH 30 0
BBX 20 23 5 -1
BITMAP
080100
1C0380
3E07C0
7F0FE0
DD9BB0
1C0380
1C0380
1C0380
1C0380
1C0380
1C0380
1C0380
1C0380
1C0380
1C0380
1C0380
1C0380
1C0380
1C0380
1C0380
1C0380
1C0380
1C0380
ENDCHAR
STARTCHAR 21C9
ENCODING 8649
SWIDTH 911 0
DWIDTH 31 0
BBX 23 20 4 0
BITMAP
000020
000030
000018
FFFFFC
FFFFFE
FFFFFC
000018
000030
000020
000000
000000
000020
000030
000038
00000C
FFFFFE
FFFFFC
000018
000030
000020
ENDCHAR
STARTCHAR 21CA
ENCODING 8650
SWIDTH 882 0
DWIDTH 30 0
BBX 21 23 4 -1
BITMAP
0E01C0
0E01C0
0E01C0
0E01C0
0E01C0
0E01C0
0E01C0
0E01C0
0E01C0
0E01C0
0E01C0
0E01C0
0E01C0
0E01C0
0E01C0
0E01C0
0E01C0
0E01C0
EECDD8
3F87F0
1F03E0
0E01C0
040080
ENDCHAR
STARTCHAR 21CB
ENCODING 8651
SWIDTH 911 0
DWIDTH 31 0
BBX 23 16 4 2
BITMAP
080000
180000
300000
7FFFFE
FFFFFE
FFFFFE
000000
000000
000000
000000
000000
FFFFFE
FFFFFC
000018
000030
000020
ENDCHAR
STARTCHAR 21CC
ENCODING 8652
SWIDTH 911 0
DWIDTH 31 0
BBX 23 17 4 2
BITMAP
000020
000030
000018
FFFFFC
FFFFFE
FFFFFE
000000
000000
000000
000000
000000
FFFFFE
7FFFFE
300000
180000
080000
080000
ENDCHAR
STARTCHAR 21CD
ENCODING 8653
SWIDTH 852 0
DWIDTH 29 0
BBX 23 14 3 3
BITMAP
020000
060000
0C00C0
1FFFFE
3FFFFE
600380
C00300
C00700
600600
3FFFFE
1FFFFE
0C1800
063800
020000
ENDCHAR
STARTCHAR 21CE
ENCODING 8654
SWIDTH 852 0
DWIDTH 29 0
BBX 23 14 3 3
BITMAP
020040
060060
0C0670
1FFFF0
3FFFF8
601C0C
C01806
C03806
60300E
3FFFFC
1FFFF8
0CE070
06C060
020040
ENDCHAR
STARTCHAR 21CF
ENCODING 8655
SWIDTH 852 0
DWIDTH 29 0
BBX 23 14 4 3
BITMAP
000080
0000C0
0060E0
FFFFE0
FFFFF0
01C018
01800C
03800E
03001C
FFFFF8
FFFFF0
0E00E0
0C00C0
000080
ENDCHAR
STARTCHAR 21D0
ENCODING 8656
SWIDTH 852 0
DWIDTH 29 0
BBX 23 14 3 3
BITMAP
020000
060000
0C0000
1FFFFE
3FFFFE
600000
C00000
C00000
600000
3FFFFE
1FFFFE
0C0000
060000
020000
ENDCHAR
STARTCHAR 21D1
ENCODING 8657
SWIDTH 588 0
DWIDTH 20 0
BBX 14 23 3 -1
BITMAP
0100
0380
07C0
0CE0
3870
7878
F87C
1860
1860
1860
1860
1860
1860
1860
1860
1860
1860
1860
1860
1860
1860
1860
1860
ENDCHAR
STARTCHAR 21D2
ENCODING 8658
SWIDTH 852 0
DWIDTH 29 0
BBX 23 14 4 3
BITMAP
000080
0000C0
0000E0
FFFFE0
FFFFF0
000018
00000C
00000E
00001C
FFFFF8
FFFFF0
0000E0
0000C0
000080
ENDCHAR
STARTCHAR 21D3
ENCODING 8659
SWIDTH 588 0
DWIDTH 20 0
BBX 14 23 3 -1
BITMAP
1860
1860
1860
1860
1860
1860
1860
1860
1860
1860
1860
1860
1860
1860
1860
1860
F86C
7878
3870
1C60
0EC0
0780
0300
ENDCHAR
STARTCHAR 21D4
ENCODING 8660
SWIDTH 852 0
DWIDTH 29 0
BBX 22 15 3 3
BITMAP
020100
060180
0C00C0
1FFFE0
3FFFF0
600018
C0000C
C0000C
600018
3FFFF0
1FFFE0
0C00C0
060180
020100
000100
ENDCHAR
STARTCHAR 21D5
ENCODING 8661
SWIDTH 588 0
DWIDTH 20 0
BBX 14 23 3 -1
BITMAP
0100
0380
07C0
0CE0
3870
7878
F87C
1860
1860
1860
1860
1860
1860
1860
1860
1860
F86C
7878
3870
1C60
0EC0
0780
0300
ENDCHAR
STARTCHAR 21D6
ENCODING 8662
SWIDTH 764 0
DWIDTH 26 0
BBX 19 20 4 0
BITMAP
FFC000
FF8000
C70000
C38000
C1C000
E0E000
F07000
F83800
FC1C00
9E0E00
0F0700
078380
03C1C0
01E0E0
00F060
007800
003C00
001E00
000E00
000400
ENDCHAR
STARTCHAR 21D7
ENCODING 8663
SWIDTH 764 0
DWIDTH 26 0
BBX 19 19 3 0
BITMAP
00FFE0
007FE0
001C60
003860
007060
00E0E0
01C1E0
0383E0
070760
0E0E60
1C1C20
383800
707000
E0E000
C1C000
038000
070000
0E0000
0C0000
ENDCHAR
STARTCHAR 21D8
ENCODING 8664
SWIDTH 764 0
DWIDTH 26 0
BBX 19 19 3 1
BITMAP
0C0000
0E0000
070000
038000
C1C000
E0E000
707000
383800
1C1C20
0E0E60
070760
0383E0
01C1E0
00E0E0
007060
003860
001C60
007FE0
00F000
ENDCHAR
STARTCHAR 21D9
ENCODING 8665
SWIDTH 764 0
DWIDTH 26 0
BBX 19 20 4 0
BITMAP
000400
000E00
001C00
003800
007000
00E060
01C0E0
0381C0
070380
0E0700
9C0E00
F81C00
F03800
E07000
C0E000
C1C000
C38000
C70000
FFC000
07E000
ENDCHAR
STARTCHAR 21DA
ENCODING 8666
SWIDTH 852 0
DWIDTH 29 0
BBX 23 16 3 2
BITMAP
020000
060000
0FFFFE
1FFFFE
3FFFFE
300000
600000
FFFFFE
FFFFFE
600000
300000
300000
1FFFFE
0FFFFE
060000
020000
ENDCHAR
STARTCHAR 21DB
ENCODING 8667
SWIDTH 852 0
DWIDTH 29 0
BBX 23 18 4 1
BITMAP
000100
000100
000180
FFFFC0
FFFFE0
FFFFF0
000018
00001C
FFFFFC
FFFFFE
00000C
000018
000030
FFFFE0
FFFFC0
000180
000180
000100
ENDCHAR
STARTCHAR 21DC
ENCODING 8668
SWIDTH 852 0
DWIDTH 29 0
BBX 23 10 3 5
BITMAP
080000
180400
304460
60CE60
FCEEFE
FFBB9E
633980
331100
181100
080000
ENDCHAR
STARTCHAR 21DD
ENCODING 8669
SWIDTH 852 0
DWIDTH 29 0
BBX 22 9 4 6
BITMAP
080020
088C30
1CCC18
F5DEFC
F77BFC
07339C
023138
020130
000020
ENDCHAR
STARTCHAR 21DE
ENCODING 8670
SWIDTH 470 0
DWIDTH 16 0
BBX 12 22 2 0
BITMAP
0600
0F00
1F80
76E0
0600
0600
0600
0600
FFF0
FFF0
0600
0600
FFF0
FFF0
FFF0
0600
0600
0600
0600
0600
0600
0600
ENDCHAR
STARTCHAR 21DF
ENCODING 8671
SWIDTH 470 0
DWIDTH 16 0
BBX 12 23 2 -1
BITMAP
0600
0600
0600
0600
0600
0600
0600
0600
FFF0
FFF0
0600
0600
FFF0
FFF0
0600
0600
0600
0600
76E0
3EC0
1F80
0F00
0600
ENDCHAR
STARTCHAR 21E0
ENCODING 8672
SWIDTH 852 0
DWIDTH 29 0
BBX 23 10 3 5
BITMAP
080000
180000
300000
600000
FCE39E
FCE39E
600000
300000
180000
080000
ENDCHAR
STARTCHAR 21E1
ENCODING 8673
SWIDTH 470 0
DWIDTH 16 0
BBX 10 22 3 0
BITMAP
0C00
1E00
7F80
EDC0
0C00
0000
0000
0000
0C00
0C00
0C00
0000
0000
0C00
0C00
0C00
0C00
0000
0000
0C00
0C00
0C00
ENDCHAR
STARTCHAR 21E2
ENCODING 8674
SWIDTH 852 0
DWIDTH 29 0
BBX 22 9 4 6
BITMAP
000020
000030
000018
E79C7C
E79C7C
00001C
000038
000030
000020
ENDCHAR
STARTCHAR 21E3
ENCODING 8675
SWIDTH 470 0
DWIDTH 16 0
BBX 10 23 3 -1
BITMAP
0C00
0C00
0C00
0000
0000
0000
0C00
0C00
0C00
0000
0000
0C00
0C00
0C00
0C00
0000
0000
0C00
EDC0
7D80
3F00
1E00
0C00
ENDCHAR
STARTCHAR 21E4
ENCODING 8676
SWIDTH 911 0
DWIDTH 31 0
BBX 23 11 4 5
BITMAP
C20000
C20000
C60000
CC0000
DFFFFE
DFFFFE
DC0000
CE0000
C60000
C20000
C00000
ENDCHAR
STARTCHAR 21E5
ENCODING 8677
SWIDTH 911 0
DWIDTH 31 0
BBX 23 11 4 5
BITMAP
000106
000186
0000C6
000066
FFFFF6
FFFFF6
000066
0000C6
000186
000106
000006
ENDCHAR
STARTCHAR 21E6
ENCODING 8678
SWIDTH 823 0
DWIDTH 28 0
BBX 22 17 2 0
BITMAP
020000
020000
060000
0A0000
120000
13FFFC
200004
400004
800004
400004
200004
13FFFC
120000
0A0000
060000
020000
020000
ENDCHAR
STARTCHAR 21E7
ENCODING 8679
SWIDTH 647 0
DWIDTH 22 0
BBX 16 21 3 0
BITMAP
03C0
0420
0810
300C
4002
F81F
0820
0820
0820
0820
0820
0820
0820
0820
0820
0820
0820
0820
0820
0820
07E0
ENDCHAR
STARTCHAR 21E8
ENCODING 8680
SWIDTH 823 0
DWIDTH 28 0
BBX 22 17 4 0
BITMAP
000100
000100
000180
000140
000120
FFFF20
800010
800008
800004
800008
800010
FFFF10
000120
000140
000180
000180
000100
ENDCHAR
STARTCHAR 21E9
ENCODING 8681
SWIDTH 647 0
DWIDTH 22 0
BBX 16 22 3 -1
BITMAP
07E0
0820
0820
0820
0820
0820
0820
0820
0820
0820
0820
0820
0820
0820
0820
0820
F81F
2004
1008
0C30
0240
0180
ENDCHAR
STARTCHAR 21EA
ENCODING 8682
SWIDTH 647 0
DWIDTH 22 0
BBX 16 21 3 0
BITMAP
03C0
0420
0810
300C
4002
F81F
0820
0820
0820
0820
0820
0820
0820
07E0
0000
07E0
0820
0820
0820
0820
07E0
ENDCHAR
STARTCHAR 21EB
ENCODING 8683
SWIDTH 647 0
DWIDTH 22 0
BBX 16 21 3 0
BITMAP
03C0
0420
0810
300C
4002
F81F
0820
0820
0820
0820
0820
0820
0820
0820
0820
0820
0820
0820
781E
8002
7FFE
ENDCHAR
STARTCHAR 21EC
ENCODING 8684
SWIDTH 647 0
DWIDTH 22 0
BBX 16 21 3 0
BITMAP
03C0
0420
0FF0
300C
4002
F81F
0820
0820
0820
0820
0820
0820
0820
0820
0820
0820
0820
0820
781E
8002
7FFE
ENDCHAR
STARTCHAR 21ED
ENCODING 8685
SWIDTH 647 0
DWIDTH 22 0
BBX 16 21 3 0
BITMAP
03C0
0520
0910
310C
4102
F91F
0920
0920
0920
0920
0920
0920
0920
0920
0920
0920
0920
0920
791E
8102
7FFE
ENDCHAR
STARTCHAR 21EE
ENCODING 8686
SWIDTH 647 0
DWIDTH 22 0
BBX 17 21 2 0
BITMAP
01E000
021000
040800
19E600
221100
7C0F80
100600
200100
FC0F80
041000
041000
041000
041000
041000
041000
041000
041000
041000
041000
041000
03F000
ENDCHAR
STARTCHAR 21EF
ENCODING 8687
SWIDTH 647 0
DWIDTH 22 0
BBX 17 21 2 0
BITMAP
01E000
021000
040800
19E600
221100
7C0F80
100600
200100
FC0F80
041000
041000
041000
041000
041000
041000
041000
041000
041000
3C0F00
400100
3FFF00
ENDCHAR
STARTCHAR 21F0
ENCODING 8688
SWIDTH 823 0
DWIDTH 28 0
BBX 22 17 4 3
BITMAP
000100
E00180
A00180
A00140
A00120
BFFF10
800010
800008
800004
800008
800010
BFFF20
A00120
A00140
A00180
E00100
000100
ENDCHAR
STARTCHAR 21F1
ENCODING 8689
SWIDTH 852 0
DWIDTH 29 0
BBX 22 23 4 0
BITMAP
FFFFFC
FFFFFC
FFFFFC
C00000
C00000
C7F000
C7E000
C78000
C7C000
C5E000
C4F000
C47800
C03C00
C01E00
C00F00
C00780
C003C0
C001E0
C000F0
C00078
C00038
C00010
C00000
ENDCHAR
STARTCHAR 21F2
ENCODING 8690
SWIDTH 852 0
DWIDTH 29 0
BBX 22 23 4 0
BITMAP
00001C
00001C
60001C
F0001C
78001C
3C001C
1E001C
0F001C
07801C
03C01C
01E09C
00F09C
00799C
003D9C
001F9C
000F9C
001F9C
003F9C
00001C
00001C
00001C
FFFFFC
FFFFFC
ENDCHAR
STARTCHAR 21F3
ENCODING 8691
SWIDTH 647 0
DWIDTH 22 0
BBX 16 21 3 0
BITMAP
03C0
0420
0810
300C
4002
F81F
0820
0820
0820
0820
0820
0820
0820
0820
0820
F81F
2004
1008
0C30
0240
0180
ENDCHAR
STARTCHAR 21F4
ENCODING 8692
SWIDTH 852 0
DWIDTH 29 0
BBX 22 10 4 5
BITMAP
03E000
07F820
0E1830
0C1C18
FFFFFC
FFFFFC
0C1C1C
0E1838
07F830
03E020
ENDCHAR
STARTCHAR 21F5
ENCODING 8693
SWIDTH 794 0
DWIDTH 27 0
BBX 21 23 3 -1
BITMAP
0C0080
0C01C0
0C03E0
0C07F0
0C0DB8
0C0180
0C0180
0C0180
0C0180
0C0180
0C0180
0C0180
0C0180
0C0180
0C0180
0C0180
0C0180
0C0180
EDC180
7D8180
3F0180
1E0180
0C0180
ENDCHAR
STARTCHAR 21F6
ENCODING 8694
SWIDTH 911 0
DWIDTH 31 0
BBX 23 26 4 -3
BITMAP
000020
000030
000038
FFFFFC
FFFFFC
000038
000030
000020
000000
000020
000030
000038
FFFFFC
FFFFFC
000018
000030
000020
000000
000000
000030
000038
FFFFFC
FFFFFE
000018
000030
000020
ENDCHAR
STARTCHAR 21F7
ENCODING 8695
SWIDTH 852 0
DWIDTH 29 0
BBX 23 11 3 5
BITMAP
081C00
181C00
301C00
601C00
FFFFFE
FFFFFE
601C00
301C00
181C00
081C00
001C00
ENDCHAR
STARTCHAR 21F8
ENCODING 8696
SWIDTH 852 0
DWIDTH 29 0
BBX 23 11 2 5
BITMAP
007020
007030
007018
00700C
FFFFFE
FFFFFE
00700C
007018
007030
007020
007000
ENDCHAR
STARTCHAR 21F9
ENCODING 8697
SWIDTH 852 0
DWIDTH 29 0
BBX 23 11 3 5
BITMAP
081800
181810
301818
60180C
FFFFFE
FFFFFE
60180E
30181C
181818
081810
001800
ENDCHAR
STARTCHAR 21FA
ENCODING 8698
SWIDTH 852 0
DWIDTH 29 0
BBX 23 11 3 5
BITMAP
086300
186300
306300
606300
FFFFFE
FFFFFE
606300
306300
186300
086300
006300
ENDCHAR
STARTCHAR 21FB
ENCODING 8699
SWIDTH 852 0
DWIDTH 29 0
BBX 22 11 4 5
BITMAP
019800
019820
019830
019818
FFFFFC
FFFFFC
01981C
019838
019830
019820
019800
ENDCHAR
STARTCHAR 21FC
ENCODING 8700
SWIDTH 852 0
DWIDTH 29 0
BBX 23 11 3 5
BITMAP
08E600
18E610
30E618
60E60C
FFFFFE
FFFFFE
60E60E
30E61C
18E618
08E610
00E600
ENDCHAR
STARTCHAR 21FD
ENCODING 8701
SWIDTH 852 0
DWIDTH 29 0
BBX 23 10 3 5
BITMAP
080000
180000
280000
680000
CFFFFE
8FFFFE
480000
280000
180000
080000
ENDCHAR
STARTCHAR 21FE
ENCODING 8702
SWIDTH 852 0
DWIDTH 29 0
BBX 22 9 4 6
BITMAP
000020
000030
000028
FFFFE4
FFFFE4
00002C
000038
000030
000020
ENDCHAR
STARTCHAR 21FF
ENCODING 8703
SWIDTH 823 0
DWIDTH 28 0
BBX 22 10 3 5
BITMAP
080040
180060
280050
680058
CFFFCC
8FFFC4
480048
280050
180060
080040
ENDCHAR
STARTCHAR 2200
ENCODING 8704
SWIDTH 852 0
DWIDTH 29 0
BBX 21 24 4 0
BITMAP
E00038
E00078
700070
700070
7000E0
3800E0
3800E0
1FFFC0
1FFFC0
1C0380
0E0380
0E0380
060700
070700
070700
030E00
038E00
039C00
01DC00
01DC00
00F800
00F800
00F000
007000
ENDCHAR
STARTCHAR 2201
ENCODING 8705
SWIDTH 558 0
DWIDTH 19 0
BBX 11 24 4 0
BITMAP
1F00
3F80
71C0
E0C0
E0E0
C0E0
C0E0
C000
C000
C000
C000
C000
C000
C000
C000
C000
C000
C0E0
C0E0
C0E0
E0C0
61C0
7F80
3F00
ENDCHAR
STARTCHAR 2202
ENCODING 8706
SWIDTH 676 0
DWIDTH 23 0
BBX 16 25 4 -1
BITMAP
00E0
07F8
07FC
001E
000E
000E
0006
0006
07E7
0FF7
1E1F
380F
780E
7006
E00E
E00E
E00E
E00C
E01C
E01C
E038
E038
70F0
7FE0
1FC0
ENDCHAR
STARTCHAR 2203
ENCODING 8707
SWIDTH 647 0
DWIDTH 22 0
BBX 14 24 4 0
BITMAP
FFFC
FFFC
FFFC
001C
001C
001C
001C
001C
001C
001C
001C
7FFC
7FFC
001C
001C
001C
001C
001C
001C
001C
001C
FFFC
FFFC
FFFC
ENDCHAR
STARTCHAR 2204
ENCODING 8708
SWIDTH 647 0
DWIDTH 22 0
BBX 14 30 4 -4
BITMAP
00C0
01C0
01C0
FFFC
FFFC
FFFC
019C
039C
031C
031C
031C
031C
071C
061C
7FFC
7FFC
061C
0E1C
0C1C
0C1C
0C1C
0C1C
1C1C
1C1C
FFFC
FFFC
FFFC
1800
3800
3000
ENDCHAR
STARTCHAR 2205
ENCODING 8709
SWIDTH 970 0
DWIDTH 33 0
BBX 25 24 4 0
BITMAP
00FF8700
03FFE600
0F00FC00
1C003800
38003C00
30007E00
7000E600
6001C300
E0038300
C0070380
C00E0380
C01C0180
C0180180
C0300380
C0600380
E0C00300
61C00300
73800700
37000600
3E000C00
1C001800
3F007000
33FFE000
60FF8000
ENDCHAR
STARTCHAR 2206
ENCODING 8710
SWIDTH 823 0
DWIDTH 28 0
BBX 20 24 4 0
BITMAP
00E000
00F000
00F000
01F800
01B800
039800
039C00
031C00
070E00
070E00
0E0E00
0E0700
0E0700
1C0380
1C0380
1C0380
3801C0
3801C0
7001C0
7000E0
7000E0
FFFFF0
FFFFF0
FFFFF0
ENDCHAR
STARTCHAR 2207
ENCODING 8711
SWIDTH 823 0
DWIDTH 28 0
BBX 20 24 4 0
BITMAP
FFFFF0
FFFFF0
FFFFF0
7000E0
7000E0
7000E0
3801C0
3801C0
1C0380
1C0380
1C0380
0E0700
0E0700
0E0600
070E00
070E00
038C00
039C00
039C00
01F800
01F800
00F000
00F000
00F000
ENDCHAR
STARTCHAR 2208
ENCODING 8712
SWIDTH 705 0
DWIDTH 24 0
BBX 17 16 4 1
BITMAP
07FF80
1FFF80
3C0000
700000
600000
E00000
C00000
FFFF80
FFFF80
C00000
E00000
E00000
700000
3C0000
1FFF80
0FFF80
ENDCHAR
STARTCHAR 2209
ENCODING 8713
SWIDTH 705 0
DWIDTH 24 0
BBX 17 22 4 -2
BITMAP
000C00
000C00
001C00
07FF80
1FFF80
3C3800
703000
603000
E07000
C06000
FFFF80
FFFF80
C0C000
E1C000
E1C000
718000
3B8000
1FFF80
0FFF80
070000
060000
060000
ENDCHAR
STARTCHAR 220A
ENCODING 8714
SWIDTH 588 0
DWIDTH 20 0
BBX 12 12 4 3
BITMAP
0FF0
3FF0
7800
E000
E000
FFF0
FFF0
C000
E000
7000
7FF0
1FF0
ENDCHAR
STARTCHAR 220B
ENCODING 8715
SWIDTH 705 0
DWIDTH 24 0
BBX 17 16 4 1
BITMAP
FFE000
FFF800
003C00
000E00
000700
000300
000300
FFFF00
FFFF80
000300
000300
000700
000E00
001E00
FFFC00
FFF000
ENDCHAR
STARTCHAR 220C
ENCODING 8716
SWIDTH 705 0
DWIDTH 24 0
BBX 17 22 4 -2
BITMAP
007000
006000
006000
FFE000
FFF800
00FC00
01CE00
018700
018300
038300
FFFF00
FFFF80
060300
060300
0E0700
0C0E00
0C1E00
FFFC00
FFF000
180000
380000
300000
ENDCHAR
STARTCHAR 220D
ENCODING 8717
SWIDTH 588 0
DWIDTH 20 0
BBX 12 12 4 3
BITMAP
FF00
FFC0
01E0
0070
0070
FFF0
FFF0
0070
0070
00E0
FFC0
FF80
ENDCHAR
STARTCHAR 220E
ENCODING 8718
SWIDTH 676 0
DWIDTH 23 0
BBX 15 22 4 1
BITMAP
FFFE
FFFE
FFFE
FFFE
FFFE
FFFE
FFFE
FFFE
FFFE
FFFE
FFFE
FFFE
FFFE
FFFE
FFFE
FFFE
FFFE
FFFE
FFFE
FFFE
FFFE
FFFE
ENDCHAR
STARTCHAR 220F
ENCODING 8719
SWIDTH 794 0
DWIDTH 27 0
BBX 19 32 4 -8
BITMAP
FFFFE0
FFFFE0
FFFFE0
E00060
E00060
E00060
E00060
E00060
E00060
E00060
E00060
E00060
E00060
E00060
E00060
E00060
E00060
E00060
E00060
E00060
E00060
E00060
E00060
E00060
E00060
E00060
E00060
E00060
E00060
E00060
E00060
E00060
ENDCHAR
STARTCHAR 2210
ENCODING 8720
SWIDTH 794 0
DWIDTH 27 0
BBX 19 32 4 -8
BITMAP
E00060
E00060
E00060
E00060
E00060
E00060
E00060
E00060
E00060
E00060
E00060
E00060
E00060
E00060
E00060
E00060
E00060
E00060
E00060
E00060
E00060
E00060
E00060
E00060
E00060
E00060
E00060
E00060
E00060
FFFFE0
FFFFE0
FFFFE0
ENDCHAR
STARTCHAR 2211
ENCODING 8721
SWIDTH 705 0
DWIDTH 24 0
BBX 22 33 0 -7
BITMAP
7FFFFC
7FFFFC
3C007C
3E001C
1E001C
0F001C
0F800C
078000
03C000
03C000
01E000
01F000
00F000
007800
007C00
003C00
003C00
003800
003800
007000
00E000
00C000
01C000
038000
070000
07000C
0E000C
1C001C
18001C
38003C
7FFFFC
7FFFFC
FFFFFC
ENDCHAR
STARTCHAR 2212
ENCODING 8722
SWIDTH 676 0
DWIDTH 23 0
BBX 15 2 4 9
BITMAP
FFFE
FFFE
ENDCHAR
STARTCHAR 2213
ENCODING 8723
SWIDTH 676 0
DWIDTH 23 0
BBX 15 20 4 0
BITMAP
FFFE
FFFE
0000
0000
0180
0180
0180
0180
0180
0180
0180
FFFE
FFFE
0180
0180
0180
0180
0180
0180
0180
ENDCHAR
STARTCHAR 2214
ENCODING 8724
SWIDTH 676 0
DWIDTH 23 0
BBX 15 20 4 1
BITMAP
0380
0380
0380
0000
0000
0180
0180
0180
0180
0180
0180
FFFE
FFFE
0180
0180
0180
0180
0180
0180
0180
ENDCHAR
STARTCHAR 2215
ENCODING 8725
SWIDTH 705 0
DWIDTH 24 0
BBX 16 24 4 0
BITMAP
0003
0007
0006
000C
001C
0018
0038
0030
0060
00E0
00C0
01C0
0180
0380
0700
0600
0E00
0C00
1C00
3800
3000
7000
6000
E000
ENDCHAR
STARTCHAR 2216
ENCODING 8726
SWIDTH 794 0
DWIDTH 27 0
BBX 17 16 5 1
BITMAP
C00000
600000
300000
180000
0C0000
060000
030000
018000
00C000
006000
003000
001800
000C00
000600
000300
000180
ENDCHAR
STARTCHAR 2217
ENCODING 8727
SWIDTH 558 0
DWIDTH 19 0
BBX 11 11 4 5
BITMAP
0600
0600
0600
8620
F4E0
FFE0
0E00
1F00
1B80
3180
70C0
ENDCHAR
STARTCHAR 2218
ENCODING 8728
SWIDTH 500 0
DWIDTH 17 0
BBX 9 9 4 6
BITMAP
3E00
7F00
C380
C180
C180
C180
E700
7F00
1C00
ENDCHAR
STARTCHAR 2219
ENCODING 8729
SWIDTH 323 0
DWIDTH 11 0
BBX 4 4 4 9
BITMAP
E0
F0
E0
40
ENDCHAR
STARTCHAR 221A
ENCODING 8730
SWIDTH 852 0
DWIDTH 29 0
BBX 21 25 4 1
BITMAP
000018
000038
000030
000030
000060
000060
0000C0
0000C0
000180
000180
000380
F80300
F80300
180600
1C0600
0C0C00
0E0C00
061800
071800
033800
033000
03B000
01E000
01E000
00C000
ENDCHAR
STARTCHAR 221B
ENCODING 8731
SWIDTH 852 0
DWIDTH 29 0
BBX 21 25 4 1
BITMAP
01F018
013838
001830
001830
007060
01E060
0038C0
0018C0
001980
021980
03F380
F80300
F80300
180600
1C0600
0C0C00
0E0C00
061800
071800
033800
033000
03B000
01E000
01E000
00C000
ENDCHAR
STARTCHAR 221C
ENCODING 8732
SWIDTH 852 0
DWIDTH 29 0
BBX 21 25 4 1
BITMAP
007018
007038
00F030
01B030
013060
033060
0630C0
07F8C0
07F980
003180
003380
F80300
F80300
180600
1C0600
0C0C00
0E0C00
061800
071800
033800
033000
03B000
01E000
01E000
00C000
ENDCHAR
STARTCHAR 221D
ENCODING 8733
SWIDTH 794 0
DWIDTH 27 0
BBX 19 13 4 4
BITMAP
1F80E0
3FC3E0
70E300
E03600
C03C00
C01C00
C01C00
C03C00
E03600
606700
7FC3E0
3F81E0
000020
ENDCHAR
STARTCHAR 221E
ENCODING 8734
SWIDTH 970 0
DWIDTH 33 0
BBX 25 13 4 4
BITMAP
1F80FC00
3FC3FE00
70E30700
E0360300
C03C0380
C01C0180
C01C0180
C03C0380
E0360300
60670700
7FC3FE00
3F81FC00
00002000
ENDCHAR
STARTCHAR 221F
ENCODING 8735
SWIDTH 676 0
DWIDTH 23 0
BBX 15 16 4 0
BITMAP
C000
C000
C000
C000
C000
C000
C000
C000
C000
C000
C000
C000
C000
C000
FFFE
FFFE
ENDCHAR
STARTCHAR 2220
ENCODING 8736
SWIDTH 676 0
DWIDTH 23 0
BBX 15 13 4 1
BITMAP
0018
0038
0070
00E0
01C0
0380
0700
0E00
1C00
3800
7000
FFFE
FFFE
ENDCHAR
STARTCHAR 2221
ENCODING 8737
SWIDTH 676 0
DWIDTH 23 0
BBX 15 17 4 -3
BITMAP
0018
0C38
0F70
03E0
01C0
03C0
07E0
0E60
1C60
3870
7030
FFFE
FFFE
0030
0060
0060
0060
ENDCHAR
STARTCHAR 2222
ENCODING 8738
SWIDTH 647 0
DWIDTH 22 0
BBX 14 17 4 -2
BITMAP
0100
0380
01DC
00FC
01F0
07E0
1F60
7C60
F060
7C60
1F60
03E0
00F8
00DC
01C4
0180
0180
ENDCHAR
STARTCHAR 2223
ENCODING 8739
SWIDTH 294 0
DWIDTH 10 0
BBX 2 24 4 0
BITMAP
C0
C0
C0
C0
C0
C0
C0
C0
C0
C0
C0
C0
C0
C0
C0
C0
C0
C0
C0
C0
C0
C0
C0
C0
ENDCHAR
STARTCHAR 2224
ENCODING 8740
SWIDTH 470 0
DWIDTH 16 0
BBX 8 24 4 0
BITMAP
18
18
18
18
18
18
18
18
19
1B
1F
1E
38
F8
D8
98
18
18
18
18
18
18
18
18
ENDCHAR
STARTCHAR 2225
ENCODING 8741
SWIDTH 441 0
DWIDTH 15 0
BBX 8 24 4 0
BITMAP
C7
C7
C7
C7
C7
C7
C7
C7
C7
C7
C7
C7
C7
C7
C7
C7
C7
C7
C7
C7
C7
C7
C7
C7
ENDCHAR
STARTCHAR 2226
ENCODING 8742
SWIDTH 617 0
DWIDTH 21 0
BBX 13 24 4 0
BITMAP
18C0
18C0
18C0
18C0
18C0
18D8
18F8
18F0
19E0
1BC0
1FC0
1EC0
38C0
F8C0
D8C0
98C0
18C0
18C0
18C0
18C0
18C0
18C0
18C0
18C0
ENDCHAR
STARTCHAR 2227
ENCODING 8743
SWIDTH 794 0
DWIDTH 27 0
BBX 19 18 4 1
BITMAP
00C000
00E000
01E000
01F000
03B000
033800
071800
061C00
0E0C00
0C0E00
1C0600
180600
380300
300300
300180
600180
6000C0
C000E0
ENDCHAR
STARTCHAR 2228
ENCODING 8744
SWIDTH 794 0
DWIDTH 27 0
BBX 18 18 4 1
BITMAP
E000C0
6001C0
600180
300380
300300
180700
180600
0C0E00
0C0C00
060C00
061800
031800
033000
01B000
01E000
01E000
00C000
00C000
ENDCHAR
STARTCHAR 2229
ENCODING 8745
SWIDTH 705 0
DWIDTH 24 0
BBX 16 16 4 2
BITMAP
0FF0
1FF8
381C
700E
6006
E007
C003
C003
C003
C003
C003
C003
C003
C003
C003
C003
ENDCHAR
STARTCHAR 222A
ENCODING 8746
SWIDTH 705 0
DWIDTH 24 0
BBX 16 17 4 1
BITMAP
C003
C003
C003
C003
C003
C003
C003
C003
C003
C003
C007
E006
600E
701C
3FF8
0FF0
0180
ENDCHAR
STARTCHAR 222B
ENCODING 8747
SWIDTH 588 0
DWIDTH 20 0
BBX 12 33 4 -8
BITMAP
01F0
03F0
0700
0600
0E00
0E00
0E00
0E00
0E00
0E00
0E00
0E00
0E00
0E00
0E00
0E00
0E00
0E00
0E00
0E00
0E00
0E00
0E00
0E00
0E00
0E00
0E00
0E00
0E00
0E00
9C00
FC00
F000
ENDCHAR
STARTCHAR 222C
ENCODING 8748
SWIDTH 823 0
DWIDTH 28 0
BBX 20 33 4 -8
BITMAP
01F1F0
03F3F0
070700
060700
0E0600
0E0600
0E0600
0E0600
0E0600
0E0600
0E0600
0E0600
0E0600
0E0600
0E0600
0E0600
0E0600
0E0600
0E0600
0E0600
0E0600
0E0600
0E0600
0E0600
0E0600
0E0600
0E0600
0E0600
0E0600
0E0E00
9C9E00
FCFC00
F0F000
ENDCHAR
STARTCHAR 222D
ENCODING 8749
SWIDTH 1058 0
DWIDTH 36 0
BBX 28 33 4 -8
BITMAP
01F1F1F0
03F3F3F0
07070780
06070700
0E060700
0E060700
0E060700
0E060700
0E060700
0E060700
0E060700
0E060700
0E060700
0E060700
0E060700
0E060700
0E060700
0E060700
0E060700
0E060700
0E060700
0E060700
0E060700
0E060700
0E060700
0E060700
0E060700
0E060700
0E060700
0E0E0E00
9C9E9E00
FCFCFC00
F0F0F800
ENDCHAR
STARTCHAR 222E
ENCODING 8750
SWIDTH 705 0
DWIDTH 24 0
BBX 16 33 4 -8
BITMAP
007C
00FC
01C0
01C0
01C0
0180
0180
0180
0180
0FF0
3FFC
7DBE
718F
E187
E183
E183
E183
E187
E187
798E
3FFC
1FF8
03C0
0180
0180
0180
0180
0180
0180
0380
2780
3F00
3E00
ENDCHAR
STARTCHAR 222F
ENCODING 8751
SWIDTH 941 0
DWIDTH 32 0
BBX 24 33 4 -8
BITMAP
007C7C
00FCFC
01C1C0
01C1C0
0181C0
0181C0
0181C0
0181C0
0181C0
03FFC0
1FFFF8
3D81FC
7181CE
E181C7
E181C7
E181C7
E181C7
E181C7
F181CF
7981DE
3FC3FC
0FFFF0
01FFC0
0181C0
0181C0
0181C0
0181C0
0181C0
038180
038380
27A780
3F3F00
3C3E00
ENDCHAR
STARTCHAR 2230
ENCODING 8752
SWIDTH 1176 0
DWIDTH 40 0
BBX 33 34 4 -9
BITMAP
0000000800
007C7C7C00
00FCFCFC00
01C1C0E000
01C1C1C000
0181C1C000
0181C1C000
0181C1C000
0181C1C000
0181C1C000
01FFFFC000
0FFFFFF800
3F81C1FE00
7981C1CF00
E181C1C700
E181C1C300
E181C1C380
E181C1C380
E181C1C700
7181C1CF00
7D81C1FE00
1FFDFFF800
07FFFFE000
018FF1C000
0181C1C000
0181C1C000
0181C1C000
0181C1C000
0181C1C000
018181C000
0383818000
27A7A78000
3F3F3F0000
3C3E3E0000
ENDCHAR
STARTCHAR 2231
ENCODING 8753
SWIDTH 647 0
DWIDTH 22 0
BBX 15 34 4 -9
BITMAP
0020
01F0
03F0
0380
0700
0700
0700
0700
0700
0700
0FC0
3FE0
7770
673A
C71C
C71C
C71C
0700
0700
0700
0700
0700
0700
0700
0700
0700
0700
0700
0700
0700
0600
9E00
FC00
F800
ENDCHAR
STARTCHAR 2232
ENCODING 8754
SWIDTH 764 0
DWIDTH 26 0
BBX 18 33 4 -8
BITMAP
007C00
00FC00
01C000
01C000
018000
018000
018000
018000
018000
0FF000
1FF800
718E00
618600
C18700
C19FC0
C18780
C18300
C18300
E18600
718E00
3DBC00
1FF000
018000
018000
018000
018000
018000
018000
038000
038000
270000
3F0000
3C0000
ENDCHAR
STARTCHAR 2233
ENCODING 8755
SWIDTH 764 0
DWIDTH 26 0
BBX 18 33 4 -8
BITMAP
007C00
00FC00
01C000
01C000
018000
018000
018000
018000
018000
0FF000
3FF800
718C00
618600
C18200
C18300
C18780
C18FC0
C18300
E18600
718E00
3DBC00
1FF800
018000
018000
018000
018000
018000
018000
038000
038000
270000
3F0000
3C0000
ENDCHAR
STARTCHAR 2234
ENCODING 8756
SWIDTH 705 0
DWIDTH 24 0
BBX 16 16 4 1
BITMAP
0180
03C0
03C0
0180
0000
0000
0000
0000
0000
0000
0000
0000
4000
E00F
F00F
E006
ENDCHAR
STARTCHAR 2235
ENCODING 8757
SWIDTH 705 0
DWIDTH 24 0
BBX 16 16 4 1
BITMAP
E006
E00F
E00F
6006
0000
0000
0000
0000
0000
0000
0000
0000
0100
03C0
03C0
0380
ENDCHAR
STARTCHAR 2236
ENCODING 8758
SWIDTH 323 0
DWIDTH 11 0
BBX 4 16 4 1
BITMAP
E0
E0
E0
60
00
00
00
00
00
00
00
00
40
E0
F0
E0
ENDCHAR
STARTCHAR 2237
ENCODING 8759
SWIDTH 705 0
DWIDTH 24 0
BBX 16 16 4 1
BITMAP
E006
E00F
E00F
6006
0000
0000
0000
0000
0000
0000
0000
0000
4000
E00F
F00F
E006
ENDCHAR
STARTCHAR 2238
ENCODING 8760
SWIDTH 676 0
DWIDTH 23 0
BBX 15 9 4 8
BITMAP
0380
0380
0380
0100
0000
0000
0000
FFFE
FFFE
ENDCHAR
STARTCHAR 2239
ENCODING 8761
SWIDTH 676 0
DWIDTH 23 0
BBX 16 16 4 1
BITMAP
0006
000F
000F
0006
0000
0000
0000
FF80
FF80
0000
0000
0000
0004
000E
000F
000E
ENDCHAR
STARTCHAR 223A
ENCODING 8762
SWIDTH 705 0
DWIDTH 24 0
BBX 16 16 4 1
BITMAP
E006
E00F
E00F
6006
0000
0000
0000
FFFF
FFFF
0000
0000
0000
4000
E00F
F00F
E006
ENDCHAR
STARTCHAR 223B
ENCODING 8763
SWIDTH 705 0
DWIDTH 24 0
BBX 16 16 4 1
BITMAP
0180
03C0
03C0
0180
0000
0000
3F03
7F87
E3FE
C0FE
C018
0000
0000
03C0
03C0
0180
ENDCHAR
STARTCHAR 223C
ENCODING 8764
SWIDTH 705 0
DWIDTH 24 0
BBX 16 5 4 8
BITMAP
3F03
7F87
E3FE
C0FE
C018
ENDCHAR
STARTCHAR 223D
ENCODING 8765
SWIDTH 705 0
DWIDTH 24 0
BBX 16 5 4 8
BITMAP
C0FC
E1FE
7F87
7F03
1803
ENDCHAR
STARTCHAR 223E
ENCODING 8766
SWIDTH 676 0
DWIDTH 23 0
BBX 15 7 4 7
BITMAP
7C0C
FE0E
C706
C3C6
E0FE
707C
1010
ENDCHAR
STARTCHAR 223F
ENCODING 8767
SWIDTH 705 0
DWIDTH 24 0
BBX 16 13 4 1
BITMAP
3C00
7E00
E700
C300
C380
0180
0180
0180
01C3
00C3
00E7
007E
003C
ENDCHAR
STARTCHAR 2240
ENCODING 8768
SWIDTH 352 0
DWIDTH 12 0
BBX 4 16 4 1
BITMAP
60
70
30
30
30
30
30
60
60
E0
C0
C0
C0
C0
E0
70
ENDCHAR
STARTCHAR 2241
ENCODING 8769
SWIDTH 705 0
DWIDTH 24 0
BBX 16 10 4 4
BITMAP
0070
0060
00E0
3FC3
7F87
E3FE
C3FE
C738
0600
0C00
ENDCHAR
STARTCHAR 2242
ENCODING 8770
SWIDTH 705 0
DWIDTH 24 0
BBX 16 10 4 5
BITMAP
FFFF
FFFF
FFFF
0000
0000
3E03
7F87
E3EE
C0FE
C038
ENDCHAR
STARTCHAR 2243
ENCODING 8771
SWIDTH 705 0
DWIDTH 24 0
BBX 16 9 4 5
BITMAP
1C03
7F03
E7C7
C1FE
C07C
0000
0000
FFFF
FFFF
ENDCHAR
STARTCHAR 2244
ENCODING 8772
SWIDTH 705 0
DWIDTH 24 0
BBX 16 20 4 0
BITMAP
0030
0030
0060
0060
00E0
1CC3
7FC3
E7C7
C1FE
C1FC
0300
0300
FFFF
FFFF
0600
0E00
0C00
0C00
1800
1800
ENDCHAR
STARTCHAR 2245
ENCODING 8773
SWIDTH 705 0
DWIDTH 24 0
BBX 16 14 4 2
BITMAP
3E03
7F03
E3C7
C1FE
C07C
0000
0000
FFFF
FFFF
0000
0000
0000
FFFF
FFFF
ENDCHAR
STARTCHAR 2246
ENCODING 8774
SWIDTH 705 0
DWIDTH 24 0
BBX 16 17 4 0
BITMAP
3E03
7F03
E3C7
C1FE
C07C
0000
0000
FFFF
FFFF
0180
0180
0180
FFFF
FFFF
0700
0600
0600
ENDCHAR
STARTCHAR 2247
ENCODING 8775
SWIDTH 705 0
DWIDTH 24 0
BBX 16 20 4 0
BITMAP
0030
0070
0060
3E63
7FC3
E3C7
C1FE
C1FC
0180
0380
FFFF
FFFF
0600
0600
0E00
FFFF
FFFF
1C00
1800
1800
ENDCHAR
STARTCHAR 2248
ENCODING 8776
SWIDTH 705 0
DWIDTH 24 0
BBX 16 12 4 3
BITMAP
3C03
7F03
E3C7
C1FE
C07C
0000
0000
3E03
7F83
E3C7
C0FE
C07C
ENDCHAR
STARTCHAR 2249
ENCODING 8777
SWIDTH 705 0
DWIDTH 24 0
BBX 16 20 4 0
BITMAP
0030
0030
0070
0060
3C63
7FC3
E7C7
C1FE
C1FC
0180
0380
3F03
7F83
E7C7
C6FE
CE7C
0C00
0C00
1C00
1800
ENDCHAR
STARTCHAR 224A
ENCODING 8778
SWIDTH 705 0
DWIDTH 24 0
BBX 16 14 4 2
BITMAP
3E03
7F03
E3C7
C1FE
C07C
0803
7F03
7F87
E1FE
C0FE
C010
0000
FFFF
FFFF
ENDCHAR
STARTCHAR 224B
ENCODING 8779
SWIDTH 705 0
DWIDTH 24 0
BBX 16 16 4 2
BITMAP
3E03
7F87
E3EF
C0FE
C038
3C03
7F03
F7C7
C1FE
C07C
0803
3F03
7F87
E1FE
C0FE
C010
ENDCHAR
STARTCHAR 224C
ENCODING 8780
SWIDTH 705 0
DWIDTH 24 0
BBX 16 14 4 2
BITMAP
C07C
C0FE
E3C7
7F83
3E03
0000
0000
FFFF
FFFF
0000
0000
0000
FFFF
FFFF
ENDCHAR
STARTCHAR 224D
ENCODING 8781
SWIDTH 676 0
DWIDTH 23 0
BBX 15 12 4 4
BITMAP
E006
600E
7C3C
1FF8
07C0
0000
0000
07C0
1FF0
3C7C
700E
E006
ENDCHAR
STARTCHAR 224E
ENCODING 8782
SWIDTH 676 0
DWIDTH 23 0
BBX 15 14 4 3
BITMAP
0100
07E0
0FE0
0C70
FC3E
FC3E
0000
0000
FC3E
FC3E
FC7E
0EE0
07E0
0380
ENDCHAR
STARTCHAR 224F
ENCODING 8783
SWIDTH 676 0
DWIDTH 23 0
BBX 15 11 4 6
BITMAP
0100
07E0
0FE0
0C70
FC3E
FC3E
0000
0000
FFFE
FFFE
FFFE
ENDCHAR
STARTCHAR 2250
ENCODING 8784
SWIDTH 676 0
DWIDTH 23 0
BBX 15 12 4 4
BITMAP
0380
0380
0380
0000
0000
FFFE
FFFE
FFFE
0000
0000
FFFE
FFFE
ENDCHAR
STARTCHAR 2251
ENCODING 8785
SWIDTH 676 0
DWIDTH 23 0
BBX 15 18 4 1
BITMAP
0380
03C0
0380
0100
0000
0000
FFFE
FFFE
0000
0000
FFFE
FFFE
FFFE
0000
0000
0380
03C0
0380
ENDCHAR
STARTCHAR 2252
ENCODING 8786
SWIDTH 676 0
DWIDTH 23 0
BBX 15 18 4 1
BITMAP
E000
E000
E000
4000
0000
0000
FFFE
FFFE
0000
0000
FFFE
FFFE
FFFE
0000
0004
000E
000E
000E
ENDCHAR
STARTCHAR 2253
ENCODING 8787
SWIDTH 676 0
DWIDTH 23 0
BBX 15 18 4 1
BITMAP
000E
000E
000E
0004
0000
0000
FFFE
FFFE
0000
0000
FFFE
FFFE
FFFE
0000
0000
E000
F000
E000
ENDCHAR
STARTCHAR 2254
ENCODING 8788
SWIDTH 794 0
DWIDTH 27 0
BBX 19 8 4 6
BITMAP
E00000
F7FFE0
E7FFE0
000000
000000
E7FFE0
F7FFE0
E7FFE0
ENDCHAR
STARTCHAR 2255
ENCODING 8789
SWIDTH 794 0
DWIDTH 27 0
BBX 19 8 4 6
BITMAP
0000E0
FFF9E0
FFF9E0
000000
000000
FFF9E0
FFF9E0
FFF9E0
ENDCHAR
STARTCHAR 2256
ENCODING 8790
SWIDTH 676 0
DWIDTH 23 0
BBX 15 7 4 7
BITMAP
FFFE
FFFE
0C60
0C60
FEFE
FFFE
FFFE
ENDCHAR
STARTCHAR 2257
ENCODING 8791
SWIDTH 676 0
DWIDTH 23 0
BBX 15 16 4 2
BITMAP
07C0
0FE0
0C60
0C60
0C60
07E0
03C0
0000
0000
FFFE
FFFE
FFFE
0000
0000
FFFE
FFFE
ENDCHAR
STARTCHAR 2258
ENCODING 8792
SWIDTH 676 0
DWIDTH 23 0
BBX 15 14 4 3
BITMAP
07C0
1FF0
3838
701C
600C
0000
0000
FFFE
FFFE
0000
0000
0000
FFFE
FFFE
ENDCHAR
STARTCHAR 2259
ENCODING 8793
SWIDTH 676 0
DWIDTH 23 0
BBX 15 18 4 0
BITMAP
0100
0380
03C0
06C0
0E60
0C60
1830
1838
0000
0000
0000
FFFE
FFFE
0000
0000
0000
FFFE
FFFE
ENDCHAR
STARTCHAR 225A
ENCODING 8794
SWIDTH 676 0
DWIDTH 23 0
BBX 15 18 4 0
BITMAP
3018
1830
1C30
0C60
06E0
06C0
0380
0380
0000
0000
0000
FFFE
FFFE
0000
0000
0000
FFFE
FFFE
ENDCHAR
STARTCHAR 225B
ENCODING 8795
SWIDTH 676 0
DWIDTH 23 0
BBX 15 19 4 1
BITMAP
0100
0100
0180
1FF0
07E0
03C0
07C0
0640
0020
0000
0000
FFFE
FFFE
FFFE
0000
0000
FFFE
FFFE
FFFE
ENDCHAR
STARTCHAR 225C
ENCODING 8796
SWIDTH 676 0
DWIDTH 23 0
BBX 15 18 4 1
BITMAP
0100
0380
02C0
06C0
0C60
0C20
1830
1FF8
0000
0000
0000
FFFE
FFFE
0000
0000
0000
FFFE
FFFE
ENDCHAR
STARTCHAR 225D
ENCODING 8797
SWIDTH 676 0
DWIDTH 23 0
BBX 16 17 4 2
BITMAP
0807
0804
69CE
D924
8BE4
CB04
F9E4
0000
0000
0000
FFFE
FFFE
0000
0000
0000
FFFE
FFFE
ENDCHAR
STARTCHAR 225E
ENCODING 8798
SWIDTH 676 0
DWIDTH 23 0
BBX 15 14 4 3
BITMAP
1FF0
1930
1930
1930
1930
0000
0000
FFFE
FFFE
FFFE
0000
0000
FFFE
FFFE
ENDCHAR
STARTCHAR 225F
ENCODING 8799
SWIDTH 676 0
DWIDTH 23 0
BBX 15 17 4 1
BITMAP
03C0
00C0
00C0
0180
0100
0000
0180
0100
0000
0000
FFFE
FFFE
0000
0000
0000
FFFE
FFFE
ENDCHAR
STARTCHAR 2260
ENCODING 8800
SWIDTH 676 0
DWIDTH 23 0
BBX 15 20 4 0
BITMAP
001C
0018
0038
0030
0070
FFFE
FFFE
FFFE
01C0
0180
0300
0300
0600
FFFE
FFFE
0C00
1800
1800
3000
7000
ENDCHAR
STARTCHAR 2261
ENCODING 8801
SWIDTH 676 0
DWIDTH 23 0
BBX 15 16 4 1
BITMAP
FFFE
FFFE
0000
0000
0000
0000
0000
FFFE
FFFE
0000
0000
0000
0000
0000
FFFE
FFFE
ENDCHAR
STARTCHAR 2262
ENCODING 8802
SWIDTH 676 0
DWIDTH 23 0
BBX 15 24 4 -2
BITMAP
0018
0030
0030
0070
FFFE
FFFE
00E0
00C0
00C0
01C0
0180
FFFE
FFFE
0300
0300
0700
0600
0E00
FFFE
FFFE
1C00
1800
1800
3800
ENDCHAR
STARTCHAR 2263
ENCODING 8803
SWIDTH 676 0
DWIDTH 23 0
BBX 15 22 4 -2
BITMAP
FFFE
FFFE
0000
0000
0000
0000
0000
FFFE
FFFE
0000
0000
0000
0000
FFFE
FFFE
0000
0000
0000
0000
0000
FFFE
FFFE
ENDCHAR
STARTCHAR 2264
ENCODING 8804
SWIDTH 676 0
DWIDTH 23 0
BBX 15 20 4 0
BITMAP
0002
000E
003E
00F8
03E0
0F80
3E00
F800
F000
7C00
1F00
07C0
01F0
007C
001E
0006
0000
0000
FFFE
FFFE
ENDCHAR
STARTCHAR 2265
ENCODING 8805
SWIDTH 676 0
DWIDTH 23 0
BBX 15 20 4 0
BITMAP
8000
E000
F800
3E00
0F80
03E0
00F8
003E
001E
007C
01F0
07C0
1F00
7C00
F000
C000
0000
0000
FFFE
FFFE
ENDCHAR
STARTCHAR 2266
ENCODING 8806
SWIDTH 676 0
DWIDTH 23 0
BBX 15 21 4 0
BITMAP
000E
003E
01F8
07E0
3F00
F800
F800
3F00
07E0
01F8
003E
000E
0000
0000
FFFE
FFFE
0000
0000
0000
FFFE
FFFE
ENDCHAR
STARTCHAR 2267
ENCODING 8807
SWIDTH 676 0
DWIDTH 23 0
BBX 15 22 4 -1
BITMAP
8000
E000
FC00
3F00
07E0
01F8
003E
003E
01F8
07C0
3F00
FC00
E000
8000
0000
FFFE
FFFE
0000
0000
0000
FFFE
FFFE
ENDCHAR
STARTCHAR 2268
ENCODING 8808
SWIDTH 676 0
DWIDTH 23 0
BBX 15 24 4 -3
BITMAP
000E
003E
01F8
07E0
3F00
F800
F800
3F00
07E0
01F8
003E
000E
0000
0000
FFFE
FFFE
0180
0380
0300
FFFE
FFFE
0600
0600
0E00
ENDCHAR
STARTCHAR 2269
ENCODING 8809
SWIDTH 676 0
DWIDTH 23 0
BBX 15 25 4 -4
BITMAP
8000
E000
FC00
3F00
07E0
01F8
003E
003E
01F8
07C0
3F00
FC00
E000
8000
0000
FFFE
FFFE
0180
0380
0300
FFFE
FFFE
0600
0600
0E00
ENDCHAR
STARTCHAR 226A
ENCODING 8810
SWIDTH 911 0
DWIDTH 31 0
BBX 23 16 4 2
BITMAP
000C02
001C0E
00783E
01F0F8
07C3E0
0F0780
3C1E00
F07C00
F07800
3C1E00
1F0780
07C3E0
01E0F8
00783C
001C0E
000C02
ENDCHAR
STARTCHAR 226B
ENCODING 8811
SWIDTH 911 0
DWIDTH 31 0
BBX 23 16 4 2
BITMAP
806000
E07000
783C00
3E0F00
0F87C0
03C1F0
00F078
003C1E
003C1E
00F078
03E1F0
0F87C0
1E0F00
783C00
E07800
C06000
ENDCHAR
STARTCHAR 226C
ENCODING 8812
SWIDTH 441 0
DWIDTH 15 0
BBX 7 24 4 -1
BITMAP
C6
6C
38
38
38
7C
6C
EE
E6
C6
C6
C6
C6
C6
C6
C6
EE
6E
6C
7C
38
38
7C
6E
ENDCHAR
STARTCHAR 226D
ENCODING 8813
SWIDTH 676 0
DWIDTH 23 0
BBX 15 18 4 1
BITMAP
0060
0060
0060
E0C6
70CE
7CFC
1FF8
07C0
0180
0300
07C0
1FF0
3E7C
760E
E606
0C00
0C00
0C00
ENDCHAR
STARTCHAR 226E
ENCODING 8814
SWIDTH 647 0
DWIDTH 22 0
BBX 14 20 4 0
BITMAP
0030
0030
003C
007C
0078
01F0
07C0
0FC0
3CC0
F180
F180
3D80
1F80
07C0
03E0
0378
061C
060C
0600
0C00
ENDCHAR
STARTCHAR 226F
ENCODING 8815
SWIDTH 647 0
DWIDTH 22 0
BBX 14 20 4 0
BITMAP
00C0
00C0
8180
E180
7980
3F00
0F80
03C0
06F0
063C
063C
0EF0
0FE0
0F80
1E00
7800
F800
D800
3000
3000
ENDCHAR
STARTCHAR 2270
ENCODING 8816
SWIDTH 676 0
DWIDTH 23 0
BBX 15 24 4 -2
BITMAP
0030
0030
0062
006E
007E
00F8
03E0
0FC0
3F80
F980
F180
7F80
1F00
07C0
03F0
067C
061E
0606
0C00
0C00
FFFE
FFFE
1800
1800
ENDCHAR
STARTCHAR 2271
ENCODING 8817
SWIDTH 676 0
DWIDTH 23 0
BBX 15 24 4 -2
BITMAP
0030
0030
8060
E060
F860
3EC0
0FC0
03E0
01F8
01BE
019E
03FC
03F0
07C0
1F00
7E00
F600
C600
0C00
0C00
FFFE
FFFE
1800
1800
ENDCHAR
STARTCHAR 2272
ENCODING 8818
SWIDTH 705 0
DWIDTH 24 0
BBX 16 20 4 1
BITMAP
0003
000F
007E
01F8
0FC0
3F00
F800
7C00
1F80
03F0
00FC
001F
0007
0000
0000
3E03
7F83
E3C7
C0FE
C07C
ENDCHAR
STARTCHAR 2273
ENCODING 8819
SWIDTH 705 0
DWIDTH 24 0
BBX 16 20 4 1
BITMAP
C000
F000
7E00
1F80
03F0
00FC
001F
003E
01F8
0FC0
3F00
F800
E000
0000
0000
3E03
7F83
E3C7
C0FE
C07C
ENDCHAR
STARTCHAR 2274
ENCODING 8820
SWIDTH 705 0
DWIDTH 24 0
BBX 16 24 4 -2
BITMAP
0030
0030
0033
007F
007E
03F0
0FC0
7EC0
F8C0
3FC0
0FC0
03F0
01FE
031F
0303
0300
0600
3E03
7F83
EFE7
CCFE
CC7C
1800
1800
ENDCHAR
STARTCHAR 2275
ENCODING 8821
SWIDTH 705 0
DWIDTH 24 0
BBX 16 24 4 -2
BITMAP
0030
0030
C030
F860
7E60
0FE0
03F0
00FE
00DF
01FC
03F0
0FC0
7F80
FB00
C300
0300
0600
3E03
7F83
EFE7
CCFE
CC7C
1800
1800
ENDCHAR
STARTCHAR 2276
ENCODING 8822
SWIDTH 676 0
DWIDTH 23 0
BBX 15 23 4 -1
BITMAP
000E
003E
01F8
07E0
3F00
FC00
F800
3F00
07C0
81F8
E03E
FC0E
3F02
07E0
01F8
003E
003E
01F8
07E0
3F00
FC00
E000
8000
ENDCHAR
STARTCHAR 2277
ENCODING 8823
SWIDTH 676 0
DWIDTH 23 0
BBX 15 22 4 -1
BITMAP
E000
F800
3F00
07C0
01F8
003E
003E
01F8
07E0
3F00
FC0E
E03E
81F8
07E0
3F00
F800
F800
3F00
07E0
01F8
003E
000E
ENDCHAR
STARTCHAR 2278
ENCODING 8824
SWIDTH 676 0
DWIDTH 23 0
BBX 15 24 4 -2
BITMAP
0180
018E
01BE
01F8
07E0
3F80
FD80
F980
3F80
07C0
81F8
E1BE
FD8E
3F82
07E0
01F8
01BE
01BE
01F8
07E0
3F80
FD80
E180
8180
ENDCHAR
STARTCHAR 2279
ENCODING 8825
SWIDTH 676 0
DWIDTH 23 0
BBX 15 24 4 -2
BITMAP
0180
E180
F980
3F80
07C0
01F8
01BE
01BE
01F8
07E0
3F80
FD8E
E1BE
81F8
07E0
3F80
F980
F980
3F80
07E0
01F8
01BE
018E
0180
ENDCHAR
STARTCHAR 227A
ENCODING 8826
SWIDTH 647 0
DWIDTH 22 0
BBX 14 16 4 2
BITMAP
0004
000C
001C
0078
01E0
07C0
1F00
FC00
F800
3F00
07C0
01E0
0078
003C
000C
0004
ENDCHAR
STARTCHAR 227B
ENCODING 8827
SWIDTH 647 0
DWIDTH 22 0
BBX 14 16 4 2
BITMAP
8000
C000
E000
7800
3E00
0F80
03E0
00FC
007C
03E0
0F80
1E00
7800
F000
C000
8000
ENDCHAR
STARTCHAR 227C
ENCODING 8828
SWIDTH 647 0
DWIDTH 22 0
BBX 14 20 4 0
BITMAP
0004
000C
001C
0078
01E0
07C0
1F00
FC00
FC00
1F80
03E0
E0F0
F83C
3E1C
0784
01E0
00F0
0038
001C
000C
ENDCHAR
STARTCHAR 227D
ENCODING 8829
SWIDTH 647 0
DWIDTH 22 0
BBX 14 20 4 0
BITMAP
8000
C000
E000
7800
3E00
0F00
03E0
00FC
00FC
07E0
1F00
3C1C
F07C
E3F0
8780
1E00
3C00
7000
E000
C000
ENDCHAR
STARTCHAR 227E
ENCODING 8830
SWIDTH 705 0
DWIDTH 24 0
BBX 16 18 4 2
BITMAP
0003
0007
001E
00FC
07E0
FF00
FF80
07F0
007C
001F
0007
0001
0000
3E03
7F83
E3C7
C0FE
C07C
ENDCHAR
STARTCHAR 227F
ENCODING 8831
SWIDTH 705 0
DWIDTH 24 0
BBX 16 18 4 2
BITMAP
C000
E000
7800
3F00
07E0
00FF
01FF
0FE0
3E00
F800
E000
8000
0000
3E03
7F83
E3C7
C0FE
C07C
ENDCHAR
STARTCHAR 2280
ENCODING 8832
SWIDTH 647 0
DWIDTH 22 0
BBX 14 20 4 0
BITMAP
0030
0030
0034
006C
007C
0078
00F0
03C0
1FC0
7D80
FD80
1F80
07C0
03F0
0378
031C
060C
0600
0600
0C00
ENDCHAR
STARTCHAR 2281
ENCODING 8833
SWIDTH 647 0
DWIDTH 22 0
BBX 14 20 4 0
BITMAP
00C0
00C0
8180
C180
E180
7B00
3F00
0F00
07E0
06F8
06FC
0FE0
0F80
3C00
FC00
F800
9800
1800
3000
3000
ENDCHAR
STARTCHAR 2282
ENCODING 8834
SWIDTH 705 0
DWIDTH 24 0
BBX 17 16 4 1
BITMAP
07FF80
1FFF80
3C0000
700000
600000
E00000
C00000
C00000
C00000
C00000
E00000
E00000
700000
3C0000
1FFF80
0FFF80
ENDCHAR
STARTCHAR 2283
ENCODING 8835
SWIDTH 705 0
DWIDTH 24 0
BBX 17 16 4 1
BITMAP
FFE000
FFF800
003C00
000E00
000700
000300
000300
000300
000380
000300
000300
000700
000E00
001E00
FFFC00
FFF000
ENDCHAR
STARTCHAR 2284
ENCODING 8836
SWIDTH 705 0
DWIDTH 24 0
BBX 17 22 4 -2
BITMAP
000C00
000C00
001C00
07FF80
1FFF80
3C3800
703000
603000
E07000
C06000
C06000
C0E000
C0C000
E1C000
E1C000
718000
3F8000
1FFF80
0FFF80
070000
060000
060000
ENDCHAR
STARTCHAR 2285
ENCODING 8837
SWIDTH 705 0
DWIDTH 24 0
BBX 17 22 4 -2
BITMAP
007000
006000
006000
FFE000
FFF800
00FC00
01CE00
018700
018300
038300
030300
070380
060300
060300
0E0700
0C0E00
0C1E00
FFFC00
FFF000
180000
380000
300000
ENDCHAR
STARTCHAR 2286
ENCODING 8838
SWIDTH 705 0
DWIDTH 24 0
BBX 17 21 4 0
BITMAP
03FF80
1FFF80
3F0000
700000
600000
E00000
C00000
C00000
C00000
C00000
E00000
E00000
700000
780000
3FFF80
0FFF80
000000
000000
000000
7FFF80
7FFF80
ENDCHAR
STARTCHAR 2287
ENCODING 8839
SWIDTH 705 0
DWIDTH 24 0
BBX 17 21 4 0
BITMAP
FFC000
FFF800
007C00
000E00
000700
000300
000300
000300
000380
000300
000300
000700
000700
001E00
FFFC00
FFF000
000000
000000
000000
FFFE00
FFFE00
ENDCHAR
STARTCHAR 2288
ENCODING 8840
SWIDTH 705 0
DWIDTH 24 0
BBX 17 27 4 -3
BITMAP
000E00
000C00
000C00
03FF80
1FFF80
3F1800
703800
603000
E07000
C06000
C06000
C0E000
C0C000
E0C000
E1C000
718000
798000
3FFF80
0FFF80
030000
070000
060000
7FFF80
7FFF80
0C0000
1C0000
180000
ENDCHAR
STARTCHAR 2289
ENCODING 8841
SWIDTH 705 0
DWIDTH 24 0
BBX 17 27 4 -3
BITMAP
003000
003000
007000
FFE000
FFF800
00FC00
00CE00
00C700
01C300
018300
018300
038380
030300
070300
070700
060700
0E1E00
FFFC00
FFF000
1C0000
180000
180000
FFFE00
FFFE00
300000
700000
600000
ENDCHAR
STARTCHAR 228A
ENCODING 8842
SWIDTH 705 0
DWIDTH 24 0
BBX 17 24 4 -3
BITMAP
03FF80
1FFF80
3F0000
700000
600000
E00000
C00000
C00000
C00000
C00000
E00000
E00000
700000
780000
3FFF80
0FFF80
00E000
00C000
00C000
7FFF80
7FFF80
018000
038000
030000
ENDCHAR
STARTCHAR 228B
ENCODING 8843
SWIDTH 705 0
DWIDTH 24 0
BBX 17 24 4 -3
BITMAP
FFC000
FFF800
007C00
000E00
000700
000300
000300
000300
000380
000300
000300
000700
000700
001E00
FFFC00
FFF000
038000
030000
030000
FFFE00
FFFE00
060000
0E0000
0C0000
ENDCHAR
STARTCHAR 228C
ENCODING 8844
SWIDTH 705 0
DWIDTH 24 0
BBX 16 22 4 1
BITMAP
C003
C003
C003
C003
C003
C003
C003
C083
C183
C303
C603
CFF3
CFF3
C603
C303
C183
C087
E006
700E
383C
1FF8
07E0
ENDCHAR
STARTCHAR 228D
ENCODING 8845
SWIDTH 705 0
DWIDTH 24 0
BBX 16 22 4 1
BITMAP
C003
C003
C003
C003
C003
C003
C003
C003
C003
C003
C003
C003
C183
C3C3
C3C3
C3C3
C007
E006
700E
383C
1FF8
07E0
ENDCHAR
STARTCHAR 228E
ENCODING 8846
SWIDTH 705 0
DWIDTH 24 0
BBX 16 22 4 1
BITMAP
C003
C003
C003
C003
C003
C003
C003
C003
C003
C183
C183
C183
C183
DFF3
DFF3
C183
C187
E186
718E
383C
1FF8
07E0
ENDCHAR
STARTCHAR 228F
ENCODING 8847
SWIDTH 705 0
DWIDTH 24 0
BBX 16 16 4 1
BITMAP
FFFF
FFFF
C000
C000
C000
C000
C000
C000
C000
C000
C000
C000
C000
C000
FFFF
FFFF
ENDCHAR
STARTCHAR 2290
ENCODING 8848
SWIDTH 705 0
DWIDTH 24 0
BBX 16 16 4 1
BITMAP
FFFF
FFFF
0003
0003
0003
0003
0003
0003
0003
0003
0003
0003
0003
0003
FFFF
FFFF
ENDCHAR
STARTCHAR 2291
ENCODING 8849
SWIDTH 705 0
DWIDTH 24 0
BBX 16 21 4 0
BITMAP
FFFF
FFFF
C000
C000
C000
C000
C000
C000
C000
C000
C000
C000
C000
C000
FFFF
FFFF
0000
0000
0000
FFFF
FFFF
ENDCHAR
STARTCHAR 2292
ENCODING 8850
SWIDTH 705 0
DWIDTH 24 0
BBX 16 21 4 0
BITMAP
FFFF
FFFF
0003
0003
0003
0003
0003
0003
0003
0003
0003
0003
0003
0003
FFFF
FFFF
0000
0000
0000
FFFF
FFFF
ENDCHAR
STARTCHAR 2293
ENCODING 8851
SWIDTH 705 0
DWIDTH 24 0
BBX 16 16 4 1
BITMAP
FFFF
FFFF
C003
C003
C003
C003
C003
C003
C003
C003
C003
C003
C003
C003
C003
C003
ENDCHAR
STARTCHAR 2294
ENCODING 8852
SWIDTH 705 0
DWIDTH 24 0
BBX 16 16 4 1
BITMAP
C003
C003
C003
C003
C003
C003
C003
C003
C003
C003
C003
C003
C003
C003
FFFF
FFFF
ENDCHAR
STARTCHAR 2295
ENCODING 8853
SWIDTH 852 0
DWIDTH 29 0
BBX 21 20 4 0
BITMAP
03FC00
0FFF00
1E67C0
3861C0
7060E0
706070
E06030
E06038
C06038
FFFFF8
FFFFF8
C06038
E06038
E06030
706070
7060E0
3861E0
1E63C0
0FFF00
03FE00
ENDCHAR
STARTCHAR 2296
ENCODING 8854
SWIDTH 852 0
DWIDTH 29 0
BBX 21 20 4 0
BITMAP
03FC00
0FFF00
1E07C0
3801C0
7000E0
700070
E00030
E00038
C00038
FFFFF8
FFFFF8
C00038
E00038
E00030
700070
7000E0
3801E0
1E03C0
0FFF00
03FE00
ENDCHAR
STARTCHAR 2297
ENCODING 8855
SWIDTH 852 0
DWIDTH 29 0
BBX 21 20 4 0
BITMAP
03FC00
0FFF00
1E07C0
3801C0
7C03E0
7E0770
E70E30
E39C38
C1F838
C0F038
C0F038
C1F838
E39C38
E70E30
7E0770
7C03E0
3801E0
1E03C0
0FFF00
03FE00
ENDCHAR
STARTCHAR 2298
ENCODING 8856
SWIDTH 852 0
DWIDTH 29 0
BBX 21 20 4 0
BITMAP
03FC00
0FFF00
1E07C0
3C01C0
7003E0
700770
E00E30
E01C38
C03838
C07038
C0E038
C1C038
E38038
E70030
7E0070
7C00E0
3801E0
1E03C0
0FFF00
03FE00
ENDCHAR
STARTCHAR 2299
ENCODING 8857
SWIDTH 852 0
DWIDTH 29 0
BBX 21 20 4 0
BITMAP
03FC00
0FFF00
1E07C0
3C01C0
7000E0
700070
E00030
E00038
C06038
C07038
C07038
C06038
E00038
E00030
700070
7000E0
3801E0
1E03C0
0FFF00
03FE00
ENDCHAR
STARTCHAR 229A
ENCODING 8858
SWIDTH 852 0
DWIDTH 29 0
BBX 21 20 4 0
BITMAP
03FC00
0FFF00
1E07C0
3C01C0
7000E0
700070
E00030
E0F838
C19838
C18C38
C18C38
C19C38
E0F838
E02030
700070
7000E0
3801E0
1E03C0
0FFF00
03FE00
ENDCHAR
STARTCHAR 229B
ENCODING 8859
SWIDTH 852 0
DWIDTH 29 0
BBX 21 20 4 0
BITMAP
03FC00
0FFF00
1E07C0
3C01C0
7060E0
706070
E06030
E46138
C72F38
C7FE38
C07038
C0D838
E1D838
E18C30
730E70
7000E0
3801E0
1E03C0
0FFF00
03FE00
ENDCHAR
STARTCHAR 229C
ENCODING 8860
SWIDTH 852 0
DWIDTH 29 0
BBX 21 20 4 0
BITMAP
03FC00
0FFF00
1E07C0
3C01C0
7000E0
700070
E00030
E7FF38
C7FF38
C00038
C00038
C7FF38
E7FF38
E00030
700070
7000E0
3801E0
1E03C0
0FFF00
03FE00
ENDCHAR
STARTCHAR 229D
ENCODING 8861
SWIDTH 852 0
DWIDTH 29 0
BBX 21 20 4 0
BITMAP
03FC00
0FFF00
1E07C0
3C01C0
7000E0
700070
E00030
E00038
C00038
C7FF38
C7FF38
C00038
E00038
E00030
700070
7000E0
3801E0
1E03C0
0FFF00
03FE00
ENDCHAR
STARTCHAR 229E
ENCODING 8862
SWIDTH 823 0
DWIDTH 28 0
BBX 20 20 4 0
BITMAP
FFFFF0
FFFFF0
C06070
C06070
C06070
C06070
C06070
C06070
C06070
FFFFF0
FFFFF0
C06070
C06070
C06070
C06070
C06070
C06070
C06070
FFFFF0
FFFFF0
ENDCHAR
STARTCHAR 229F
ENCODING 8863
SWIDTH 823 0
DWIDTH 28 0
BBX 20 20 4 0
BITMAP
FFFFF0
FFFFF0
C00070
C00070
C00070
C00070
C00070
C00070
C00070
FFFFF0
FFFFF0
C00070
C00070
C00070
C00070
C00070
C00070
C00070
FFFFF0
FFFFF0
ENDCHAR
STARTCHAR 22A0
ENCODING 8864
SWIDTH 823 0
DWIDTH 28 0
BBX 20 20 4 0
BITMAP
FFFFF0
FFFFF0
F000F0
F801F0
DC03F0
CE0770
C70E70
C39C70
C1F870
C0F070
C0F070
C1F870
C39C70
C70E70
CE0770
DC03F0
F801F0
F000F0
FFFFF0
FFFFF0
ENDCHAR
STARTCHAR 22A1
ENCODING 8865
SWIDTH 823 0
DWIDTH 28 0
BBX 20 20 4 0
BITMAP
FFFFF0
FFFFF0
C00070
C00070
C00070
C00070
C00070
C00070
C06070
C0E070
C0F070
C06070
C00070
C00070
C00070
C00070
C00070
C00070
FFFFF0
FFFFF0
ENDCHAR
STARTCHAR 22A2
ENCODING 8866
SWIDTH 823 0
DWIDTH 28 0
BBX 20 20 4 0
BITMAP
C00000
C00000
C00000
C00000
C00000
C00000
C00000
C00000
C00000
FFFFF0
FFFFF0
C00000
C00000
C00000
C00000
C00000
C00000
C00000
C00000
C00000
ENDCHAR
STARTCHAR 22A3
ENCODING 8867
SWIDTH 823 0
DWIDTH 28 0
BBX 20 20 4 0
BITMAP
000070
000070
000070
000070
000070
000070
000070
000070
000070
FFFFF0
FFFFF0
000070
000070
000070
000070
000070
000070
000070
000070
000070
ENDCHAR
STARTCHAR 22A4
ENCODING 8868
SWIDTH 794 0
DWIDTH 27 0
BBX 20 20 4 0
BITMAP
FFFFF0
FFFFF0
006000
006000
006000
006000
006000
006000
006000
006000
006000
006000
006000
006000
006000
006000
006000
006000
006000
006000
ENDCHAR
STARTCHAR 22A5
ENCODING 8869
SWIDTH 794 0
DWIDTH 27 0
BBX 20 20 4 0
BITMAP
006000
006000
006000
006000
006000
006000
006000
006000
006000
006000
006000
006000
006000
006000
006000
006000
006000
006000
FFFFF0
FFFFF0
ENDCHAR
STARTCHAR 22A6
ENCODING 8870
SWIDTH 529 0
DWIDTH 18 0
BBX 10 20 4 0
BITMAP
C000
C000
C000
C000
C000
C000
C000
C000
C000
FFC0
FFC0
C000
C000
C000
C000
C000
C000
C000
C000
C000
ENDCHAR
STARTCHAR 22A7
ENCODING 8871
SWIDTH 529 0
DWIDTH 18 0
BBX 10 20 4 0
BITMAP
C000
C000
C000
C000
C000
FFC0
FFC0
FFC0
C000
C000
C000
C000
C000
FFC0
FFC0
C000
C000
C000
C000
C000
ENDCHAR
STARTCHAR 22A8
ENCODING 8872
SWIDTH 823 0
DWIDTH 28 0
BBX 20 20 4 0
BITMAP
C00000
C00000
C00000
C00000
C00000
FFFFF0
FFFFF0
FFFFF0
C00000
C00000
C00000
C00000
C00000
FFFFF0
FFFFF0
C00000
C00000
C00000
C00000
C00000
ENDCHAR
STARTCHAR 22A9
ENCODING 8873
SWIDTH 823 0
DWIDTH 28 0
BBX 20 20 4 0
BITMAP
C60000
C60000
C60000
C60000
C60000
C60000
C60000
C60000
C60000
C7FFF0
C7FFF0
C60000
C60000
C60000
C60000
C60000
C60000
C60000
C60000
C60000
ENDCHAR
STARTCHAR 22AA
ENCODING 8874
SWIDTH 823 0
DWIDTH 28 0
BBX 20 20 4 0
BITMAP
C63000
C63000
C63000
C63000
C63000
C63000
C63000
C63000
C63000
C63FF0
C63FF0
C63000
C63000
C63000
C63000
C63000
C63000
C63000
C63000
C63000
ENDCHAR
STARTCHAR 22AB
ENCODING 8875
SWIDTH 823 0
DWIDTH 28 0
BBX 20 20 4 0
BITMAP
C60000
C60000
C60000
C60000
C60000
C7FFF0
C7FFF0
C7FFF0
C60000
C60000
C60000
C60000
C60000
C7FFF0
C7FFF0
C60000
C60000
C60000
C60000
C60000
ENDCHAR
STARTCHAR 22AC
ENCODING 8876
SWIDTH 823 0
DWIDTH 28 0
BBX 20 20 4 0
BITMAP
C00E00
C00C00
C00C00
C01C00
C01800
C03800
C03000
C03000
C07000
FFFFF0
FFFFF0
C0E000
C0C000
C0C000
C1C000
C18000
C18000
C38000
C30000
C30000
ENDCHAR
STARTCHAR 22AD
ENCODING 8877
SWIDTH 823 0
DWIDTH 28 0
BBX 20 20 4 0
BITMAP
C00E00
C00C00
C00C00
C01C00
C01800
FFFFF0
FFFFF0
FFFFF0
C07000
C06000
C06000
C0E000
C0C000
FFFFF0
FFFFF0
C18000
C18000
C38000
C30000
C30000
ENDCHAR
STARTCHAR 22AE
ENCODING 8878
SWIDTH 823 0
DWIDTH 28 0
BBX 20 20 4 0
BITMAP
C600C0
C601C0
C60180
C60180
C60380
C60300
C60700
C60600
C60600
C7FFF0
C7FFF0
C60C00
C61C00
C61800
C61800
C63800
C63000
C63000
C67000
C66000
ENDCHAR
STARTCHAR 22AF
ENCODING 8879
SWIDTH 823 0
DWIDTH 28 0
BBX 20 20 4 0
BITMAP
C600C0
C601C0
C60180
C60380
C60380
C7FFF0
C7FFF0
C7FFF0
C60600
C60E00
C60C00
C60C00
C61C00
C7FFF0
C7FFF0
C63800
C63000
C63000
C67000
C66000
ENDCHAR
STARTCHAR 22B0
ENCODING 8880
SWIDTH 676 0
DWIDTH 23 0
BBX 16 19 4 1
BITMAP
007E
00FE
00C7
0007
0006
000E
003C
01F8
7FC0
FF00
0FF0
007C
000E
0006
0007
0047
00E6
007E
003C
ENDCHAR
STARTCHAR 22B1
ENCODING 8881
SWIDTH 676 0
DWIDTH 23 0
BBX 16 19 4 1
BITMAP
7C00
EE00
C600
C000
C000
E000
7800
1F80
07FC
01FF
1FE0
3C00
7000
E000
C000
C000
C600
7E00
3C00
ENDCHAR
STARTCHAR 22B2
ENCODING 8882
SWIDTH 676 0
DWIDTH 23 0
BBX 15 11 4 4
BITMAP
000E
007E
03FE
1FC6
FC06
F806
3F06
07E6
01FE
003E
000E
ENDCHAR
STARTCHAR 22B3
ENCODING 8883
SWIDTH 676 0
DWIDTH 23 0
BBX 15 11 4 4
BITMAP
E000
FC00
DF80
C3F0
C07E
C03E
C1F8
C7E0
FF00
F800
E000
ENDCHAR
STARTCHAR 22B4
ENCODING 8884
SWIDTH 676 0
DWIDTH 23 0
BBX 15 16 4 1
BITMAP
000E
003E
01FE
0FC6
7E06
F806
3F06
0FC6
01FE
003E
000E
0000
0000
0000
FFFE
FFFE
ENDCHAR
STARTCHAR 22B5
ENCODING 8885
SWIDTH 676 0
DWIDTH 23 0
BBX 15 16 4 1
BITMAP
E000
FC00
FF80
C7F0
C0FC
C03E
C0FC
C7E0
FF00
FC00
E000
0000
0000
0000
FFFE
FFFE
ENDCHAR
STARTCHAR 22B6
ENCODING 8886
SWIDTH 852 0
DWIDTH 29 0
BBX 21 7 4 7
BITMAP
7C01F0
CE01F8
C7FFF8
C7FFF8
C603F8
7C01F8
3800E0
ENDCHAR
STARTCHAR 22B7
ENCODING 8887
SWIDTH 852 0
DWIDTH 29 0
BBX 21 7 4 7
BITMAP
7C01F0
FE0198
FFFF08
FFFF08
FE0318
7C01F8
3800E0
ENDCHAR
STARTCHAR 22B8
ENCODING 8888
SWIDTH 647 0
DWIDTH 22 0
BBX 14 7 4 7
BITMAP
00F8
01CC
FF84
FF84
018C
00FC
0070
ENDCHAR
STARTCHAR 22B9
ENCODING 8889
SWIDTH 676 0
DWIDTH 23 0
BBX 15 16 4 2
BITMAP
0180
0180
0180
0180
0180
0000
0000
F83E
F83E
0000
0000
0180
0180
0180
0180
0180
ENDCHAR
STARTCHAR 22BA
ENCODING 8890
SWIDTH 588 0
DWIDTH 20 0
BBX 12 20 4 0
BITMAP
FFF0
FFF0
0600
0600
0600
0600
0600
0600
0600
0600
0600
0600
0600
0600
0600
0600
0600
0600
0600
0600
ENDCHAR
STARTCHAR 22BB
ENCODING 8891
SWIDTH 676 0
DWIDTH 23 0
BBX 15 19 4 1
BITMAP
E00E
600C
701C
3018
3838
1830
1C70
0C60
0EE0
06C0
07C0
0380
0380
0100
0000
0000
0000
FFFE
FFFE
ENDCHAR
STARTCHAR 22BC
ENCODING 8892
SWIDTH 676 0
DWIDTH 23 0
BBX 15 19 4 1
BITMAP
FFFE
FFFE
0000
0000
0000
0180
0380
03C0
07C0
06E0
0E60
0C70
1C30
1838
3818
301C
700C
600E
E006
ENDCHAR
STARTCHAR 22BD
ENCODING 8893
SWIDTH 676 0
DWIDTH 23 0
BBX 15 19 4 1
BITMAP
FFFE
FFFE
0000
0000
0000
E006
600E
700C
301C
3818
1830
1C30
0C60
0E60
06C0
07C0
0380
0380
0100
ENDCHAR
STARTCHAR 22BE
ENCODING 8894
SWIDTH 676 0
DWIDTH 23 0
BBX 15 16 4 0
BITMAP
C000
C000
C000
C000
C000
F800
FE00
C700
C180
C0C0
C0C0
C060
C060
C060
FFFE
FFFE
ENDCHAR
STARTCHAR 22BF
ENCODING 8895
SWIDTH 735 0
DWIDTH 25 0
BBX 17 17 4 0
BITMAP
000080
000180
000380
000780
000F80
001D80
003980
007180
00E180
01C180
038180
070180
0E0180
1C0180
380180
7FFF80
FFFF80
ENDCHAR
STARTCHAR 22C0
ENCODING 8896
SWIDTH 882 0
DWIDTH 30 0
BBX 22 22 4 1
BITMAP
003000
003000
007800
007800
00DC00
00CC00
01CE00
018600
038700
030300
070380
060180
0E01C0
0C00C0
1C00E0
180060
380070
300030
300030
600018
600018
E0001C
ENDCHAR
STARTCHAR 22C1
ENCODING 8897
SWIDTH 882 0
DWIDTH 30 0
BBX 22 22 4 1
BITMAP
E0001C
600018
600038
300038
300030
380070
180060
1C00E0
0C00C0
0E01C0
060180
070380
030300
038700
018600
01CE00
00CC00
00DC00
007800
007800
003000
003000
ENDCHAR
STARTCHAR 22C2
ENCODING 8898
SWIDTH 705 0
DWIDTH 24 0
BBX 16 22 4 1
BITMAP
07E0
1FF8
383C
700E
E006
C007
C003
C003
C003
C003
C003
C003
C003
C003
C003
C003
C003
C003
C003
C003
C003
C003
ENDCHAR
STARTCHAR 22C3
ENCODING 8899
SWIDTH 705 0
DWIDTH 24 0
BBX 16 22 4 1
BITMAP
C003
C003
C003
C003
C003
C003
C003
C003
C003
C003
C003
C003
C003
C003
C003
C003
C007
E006
700E
383C
1FF8
07E0
ENDCHAR
STARTCHAR 22C4
ENCODING 8900
SWIDTH 558 0
DWIDTH 19 0
BBX 15 16 2 3
BITMAP
0100
0380
07C0
0EE0
1C70
3838
701C
E00E
E00E
701C
3838
1C70
0EE0
07C0
0380
0100
ENDCHAR
STARTCHAR 22C5
ENCODING 8901
SWIDTH 323 0
DWIDTH 11 0
BBX 4 4 4 7
BITMAP
40
E0
F0
E0
ENDCHAR
STARTCHAR 22C6
ENCODING 8902
SWIDTH 529 0
DWIDTH 18 0
BBX 9 8 4 7
BITMAP
0800
0C00
FF80
3F00
1E00
1E00
3200
2100
ENDCHAR
STARTCHAR 22C7
ENCODING 8903
SWIDTH 676 0
DWIDTH 23 0
BBX 15 16 4 1
BITMAP
0380
6384
F38E
799C
3C38
1E70
0FE0
FFFE
FFFE
07E0
0EF0
1C78
393C
739E
638C
0380
ENDCHAR
STARTCHAR 22C8
ENCODING 8904
SWIDTH 823 0
DWIDTH 28 0
BBX 20 20 4 0
BITMAP
C00030
E00070
F000F0
F801F0
DC03F0
CE0770
C70E70
C39C70
C1F870
C0F070
C0F070
C1F870
C39C70
C70E70
CE0770
DC03F0
F801F0
F000F0
E00070
C00030
ENDCHAR
STARTCHAR 22C9
ENCODING 8905
SWIDTH 823 0
DWIDTH 28 0
BBX 20 20 4 0
BITMAP
C00020
E00070
F000E0
F801C0
DC0380
CE0700
C70E00
C39C00
C1F800
C0F000
C0F000
C1F800
C39C00
C70E00
CE0700
DC0380
F801C0
F000E0
E00070
C00020
ENDCHAR
STARTCHAR 22CA
ENCODING 8906
SWIDTH 823 0
DWIDTH 28 0
BBX 20 20 4 0
BITMAP
400030
E00070
7000F0
3801F0
1C03B0
0E0730
070E30
039C30
01F830
00F030
00F030
01F830
039C30
070E30
0E0730
1C03B0
3801F0
7000F0
E00070
400030
ENDCHAR
STARTCHAR 22CB
ENCODING 8907
SWIDTH 823 0
DWIDTH 28 0
BBX 20 20 4 -1
BITMAP
400000
E00000
700000
380000
1C0000
0E0000
070000
038000
01C000
00E000
00F000
01F800
039C00
070E00
0E0700
1C0380
3801C0
7000E0
E00070
400020
ENDCHAR
STARTCHAR 22CC
ENCODING 8908
SWIDTH 823 0
DWIDTH 28 0
BBX 20 20 4 -1
BITMAP
000020
000070
0000E0
0001C0
000380
000700
000E00
001C00
003800
007000
00F000
01F800
039C00
070E00
0E0700
1C0380
3801C0
7000E0
E00070
C00020
ENDCHAR
STARTCHAR 22CD
ENCODING 8909
SWIDTH 705 0
DWIDTH 24 0
BBX 16 9 4 5
BITMAP
C038
C0FE
E3EE
7F83
3E03
0000
0000
FFFF
FFFF
ENDCHAR
STARTCHAR 22CE
ENCODING 8910
SWIDTH 794 0
DWIDTH 27 0
BBX 18 18 4 1
BITMAP
E001C0
700180
300380
180700
1C0600
0C0E00
0E0C00
061C00
071800
033800
033000
01B000
01E000
01E000
00E000
00C000
00C000
004000
ENDCHAR
STARTCHAR 22CF
ENCODING 8911
SWIDTH 794 0
DWIDTH 27 0
BBX 18 18 4 1
BITMAP
004000
00C000
00E000
00E000
01E000
01F000
01B000
033000
031800
071800
061C00
0E0C00
0C0E00
1C0600
380300
300380
7001C0
E000C0
ENDCHAR
STARTCHAR 22D0
ENCODING 8912
SWIDTH 705 0
DWIDTH 24 0
BBX 17 16 4 1
BITMAP
03FF80
1FFF80
3E0000
780000
71FF80
E3FF80
E78000
C60000
C60000
C70000
E7FF80
E1FF80
700000
3C0000
1FFF80
07FF80
ENDCHAR
STARTCHAR 22D1
ENCODING 8913
SWIDTH 705 0
DWIDTH 24 0
BBX 17 16 4 1
BITMAP
FFE000
FFF800
003C00
000E00
FF8700
FFE700
00E300
007300
007380
007300
FFE300
FFC700
000E00
003E00
FFF800
FFF000
ENDCHAR
STARTCHAR 22D2
ENCODING 8914
SWIDTH 705 0
DWIDTH 24 0
BBX 16 16 4 2
BITMAP
0FF0
1FF8
3C3C
700E
6186
E7E7
CFE3
CE73
CC33
CC33
CC33
CC33
CC33
CC33
CC33
CC33
ENDCHAR
STARTCHAR 22D3
ENCODING 8915
SWIDTH 705 0
DWIDTH 24 0
BBX 16 17 4 1
BITMAP
CC33
CC33
CC33
CC33
CC33
CC33
CC33
CC33
CC73
CEE3
C7E7
E3C6
700E
381C
3FF8
0FF0
0180
ENDCHAR
STARTCHAR 22D4
ENCODING 8916
SWIDTH 705 0
DWIDTH 24 0
BBX 16 20 4 1
BITMAP
0180
0180
0180
0180
0FE0
1FF8
3DBC
718E
6186
E187
C183
C183
C183
C183
C183
C183
C183
C183
C183
C183
ENDCHAR
STARTCHAR 22D5
ENCODING 8917
SWIDTH 676 0
DWIDTH 23 0
BBX 15 24 4 0
BITMAP
0C60
0C60
0C60
0C60
0C60
0C60
0C60
FFFE
FFFE
0C60
0C60
0C60
0C60
0C60
FFFE
FFFE
FFFE
0C60
0C60
0C60
0C60
0C60
0C60
0C60
ENDCHAR
STARTCHAR 22D6
ENCODING 8918
SWIDTH 647 0
DWIDTH 22 0
BBX 14 16 4 3
BITMAP
0004
001C
007C
01F0
03C0
0F00
3C30
F878
F078
7C30
1F00
07C0
01F0
007C
001C
0004
ENDCHAR
STARTCHAR 22D7
ENCODING 8919
SWIDTH 647 0
DWIDTH 22 0
BBX 14 16 4 3
BITMAP
8000
E000
F800
3E00
0F00
03C0
30F0
787C
783C
30F8
03E0
0F80
3E00
F800
E000
8000
ENDCHAR
STARTCHAR 22D8
ENCODING 8920
SWIDTH 1176 0
DWIDTH 40 0
BBX 32 16 4 3
BITMAP
00080601
00380E07
00F03C0F
01E0F03C
0781E0F8
1F0781E0
3C1F0780
F03C0F00
F07C1F00
7C1F0780
1E0781E0
0781E078
03E0783E
00F03E0F
00300E03
00100200
ENDCHAR
STARTCHAR 22D9
ENCODING 8921
SWIDTH 1176 0
DWIDTH 40 0
BBX 32 16 4 3
BITMAP
80201800
E0301C00
F03C0F00
3C0F0780
0F0781E0
0781E078
01E0F83C
00F83C0F
00783E0F
01E0783E
0781E078
1F0781F0
7C1F07C0
F03C0F00
C0300C00
80000800
ENDCHAR
STARTCHAR 22DA
ENCODING 8922
SWIDTH 676 0
DWIDTH 23 0
BBX 15 31 4 -5
BITMAP
000E
003E
01F8
07E0
1F00
FC00
F800
3F00
07C0
01F8
007E
000E
0002
0000
FFFE
FFFE
0000
0000
E000
F800
3F00
07C0
01F8
003E
003E
01F8
07E0
3F00
FC00
E000
8000
ENDCHAR
STARTCHAR 22DB
ENCODING 8923
SWIDTH 676 0
DWIDTH 23 0
BBX 15 31 4 -5
BITMAP
E000
F800
3F00
0FC0
01F8
003E
003E
01F8
07E0
3F00
FC00
E000
8000
0000
FFFE
FFFE
0000
0000
000E
003E
01F8
07E0
3F00
FC00
F800
3F00
07C0
01F8
003E
000E
0002
ENDCHAR
STARTCHAR 22DC
ENCODING 8924
SWIDTH 676 0
DWIDTH 23 0
BBX 15 20 4 1
BITMAP
FFFE
FFFE
0000
0000
0006
001E
007C
01F0
07C0
1F00
7C00
E000
7800
1E00
0780
01E0
0078
001E
0006
0002
ENDCHAR
STARTCHAR 22DD
ENCODING 8925
SWIDTH 676 0
DWIDTH 23 0
BBX 15 20 4 1
BITMAP
FFFE
FFFE
0000
8000
E000
F000
3C00
0F00
03C0
00F0
003C
000E
003C
00F8
03E0
0F80
3E00
F800
E000
8000
ENDCHAR
STARTCHAR 22DE
ENCODING 8926
SWIDTH 647 0
DWIDTH 22 0
BBX 14 20 4 0
BITMAP
0004
000C
001C
0078
00F0
03C4
0F8C
FE1C
F078
81F0
07C0
3F00
F800
7E00
0F80
03E0
00F0
0038
001C
000C
ENDCHAR
STARTCHAR 22DF
ENCODING 8927
SWIDTH 647 0
DWIDTH 22 0
BBX 14 20 4 0
BITMAP
8000
C000
E000
7800
3C00
8F00
C7C0
E1F8
783C
3E04
0F80
03F0
007C
01F8
07C0
1F00
3C00
7000
E000
8000
ENDCHAR
STARTCHAR 22E0
ENCODING 8928
SWIDTH 647 0
DWIDTH 22 0
BBX 14 24 4 -2
BITMAP
0030
0030
0064
006C
007C
00F8
01E0
07C0
1F80
FD80
FD80
1F80
03E0
E3F0
FB3C
3E1C
0784
07E0
0CF0
0C38
0C1C
180C
1800
1800
ENDCHAR
STARTCHAR 22E1
ENCODING 8929
SWIDTH 647 0
DWIDTH 22 0
BBX 14 24 4 -2
BITMAP
0030
0030
8060
C060
E060
78C0
3EC0
0FC0
03E0
01FC
01FC
07E0
1F00
3F1C
F37C
E7F0
8780
1E00
3C00
7C00
EC00
D800
1800
1800
ENDCHAR
STARTCHAR 22E2
ENCODING 8930
SWIDTH 705 0
DWIDTH 24 0
BBX 16 27 4 -3
BITMAP
001C
0018
0038
FFFF
FFFF
C070
C060
C060
C0E0
C0C0
C0C0
C1C0
C180
C180
C380
C300
C300
FFFF
FFFF
0E00
0C00
0C00
FFFF
FFFF
1800
3800
3000
ENDCHAR
STARTCHAR 22E3
ENCODING 8931
SWIDTH 705 0
DWIDTH 24 0
BBX 16 27 4 -3
BITMAP
0030
0030
0070
FFFF
FFFF
00E3
00C3
00C3
01C3
0183
0183
0383
0303
0703
0603
0603
0E03
FFFF
FFFF
1C00
1800
1800
FFFF
FFFF
3000
7000
6000
ENDCHAR
STARTCHAR 22E4
ENCODING 8932
SWIDTH 705 0
DWIDTH 24 0
BBX 16 24 4 -3
BITMAP
FFFF
FFFF
C000
C000
C000
C000
C000
C000
C000
C000
C000
C000
C000
C000
FFFF
FFFF
01C0
0180
0180
FFFF
FFFF
0300
0700
0600
ENDCHAR
STARTCHAR 22E5
ENCODING 8933
SWIDTH 705 0
DWIDTH 24 0
BBX 16 24 4 -3
BITMAP
FFFF
FFFF
0003
0003
0003
0003
0003
0003
0003
0003
0003
0003
0003
0003
FFFF
FFFF
0180
0180
0380
FFFF
FFFF
0700
0600
0600
ENDCHAR
STARTCHAR 22E6
ENCODING 8934
SWIDTH 705 0
DWIDTH 24 0
BBX 16 22 4 -2
BITMAP
0003
000F
007E
01F8
0FC0
3F00
F800
7C00
1F80
03F0
00FC
001F
0007
0060
00C0
3FC3
7F83
E3C7
C3FE
C67C
0E00
0C00
ENDCHAR
STARTCHAR 22E7
ENCODING 8935
SWIDTH 705 0
DWIDTH 24 0
BBX 16 22 4 -2
BITMAP
C000
F000
7E00
1F80
03F0
00FC
001F
003E
01F8
0FC0
3F00
F800
E000
0060
00C0
3FC3
7F83
E3C7
C3FE
C67C
0E00
0C00
ENDCHAR
STARTCHAR 22E8
ENCODING 8936
SWIDTH 705 0
DWIDTH 24 0
BBX 16 22 4 -2
BITMAP
0001
0003
000F
003E
01F8
1FC0
FE00
7FC0
03F8
003E
000F
0003
0001
0060
00E0
3EC3
7FC3
E3C7
C3FE
C77C
0600
0E00
ENDCHAR
STARTCHAR 22E9
ENCODING 8937
SWIDTH 705 0
DWIDTH 24 0
BBX 16 22 4 -2
BITMAP
8000
C000
F000
7C00
1F80
03F8
007F
03FE
1FC0
7C00
F000
C000
8000
0060
00E0
3EC3
7FC3
E3C7
C3FE
C77C
0600
0E00
ENDCHAR
STARTCHAR 22EA
ENCODING 8938
SWIDTH 676 0
DWIDTH 23 0
BBX 15 20 4 0
BITMAP
0018
0018
0018
0030
0030
003E
007E
03FE
1FE6
FC66
F8C6
3FC6
07E6
01FE
01BE
018E
0300
0300
0300
0700
ENDCHAR
STARTCHAR 22EB
ENCODING 8939
SWIDTH 676 0
DWIDTH 23 0
BBX 15 20 4 0
BITMAP
00C0
0180
0180
0180
0100
E300
FF00
DF80
C7F0
C67E
C63E
CDF8
CFE0
FF00
F800
F800
1800
3800
3000
3000
ENDCHAR
STARTCHAR 22EC
ENCODING 8940
SWIDTH 676 0
DWIDTH 23 0
BBX 15 23 4 -3
BITMAP
0018
0018
0018
0030
003E
003E
01FE
0FE6
7E66
F866
3EC6
0FC6
01FE
01BE
018E
0180
0300
0300
FFFE
FFFE
0600
0600
0600
ENDCHAR
STARTCHAR 22ED
ENCODING 8941
SWIDTH 676 0
DWIDTH 23 0
BBX 15 23 4 -3
BITMAP
0180
0180
0180
0180
E300
FF00
FF80
C7F0
C6FC
C63E
CCFC
CFE0
FF00
FC00
F800
1800
3800
3000
FFFE
FFFE
6000
6000
6000
ENDCHAR
STARTCHAR 22EE
ENCODING 8942
SWIDTH 323 0
DWIDTH 11 0
BBX 4 24 4 0
BITMAP
E0
F0
E0
40
00
00
00
00
00
00
60
E0
E0
E0
00
00
00
00
00
00
00
E0
F0
E0
ENDCHAR
STARTCHAR 22EF
ENCODING 8943
SWIDTH 941 0
DWIDTH 32 0
BBX 24 4 4 8
BITMAP
601802
E03C07
F03C07
601807
ENDCHAR
STARTCHAR 22F0
ENCODING 8944
SWIDTH 941 0
DWIDTH 32 0
BBX 24 24 4 0
BITMAP
000007
000007
000007
000002
000000
000000
000000
000000
000000
000000
001800
003C00
003C00
001800
000000
000000
000000
000000
000000
000000
000000
E00000
F00000
E00000
ENDCHAR
STARTCHAR 22F1
ENCODING 8945
SWIDTH 941 0
DWIDTH 32 0
BBX 24 24 4 0
BITMAP
E00000
F00000
E00000
000000
000000
000000
000000
000000
000000
000000
001800
003C00
003C00
001800
000000
000000
000000
000000
000000
000000
000000
000007
000007
000007
ENDCHAR
STARTCHAR 22F2
ENCODING 8946
SWIDTH 764 0
DWIDTH 26 0
BBX 18 16 4 1
BITMAP
00FFC0
03FFC0
078000
0E0000
0C0000
1C0000
1C0000
FFFFC0
FFFFC0
180000
1C0000
0C0000
0E0000
078000
03FFC0
01FFC0
ENDCHAR
STARTCHAR 22F3
ENCODING 8947
SWIDTH 705 0
DWIDTH 24 0
BBX 17 16 4 1
BITMAP
07FF80
1FFF80
3C0000
700000
600000
E00380
C00380
FFFF80
FFFF80
C00380
E00380
E00380
700000
3C0000
1FFF80
0FFF80
ENDCHAR
STARTCHAR 22F4
ENCODING 8948
SWIDTH 588 0
DWIDTH 20 0
BBX 12 12 4 3
BITMAP
0FF0
3FF0
7800
E000
E030
FFF0
FFF0
C030
E030
7000
7FF0
1FF0
ENDCHAR
STARTCHAR 22F5
ENCODING 8949
SWIDTH 705 0
DWIDTH 24 0
BBX 17 22 4 0
BITMAP
00C000
01E000
00E000
00C000
000000
000000
07FF80
1FFF80
380000
700000
E00000
E00000
C00000
FFFF80
FFFF80
C00000
E00000
E00000
700000
3C0000
1FFF80
07FF80
ENDCHAR
STARTCHAR 22F6
ENCODING 8950
SWIDTH 705 0
DWIDTH 24 0
BBX 17 21 4 0
BITMAP
7FFF80
7FFF80
000000
000000
000000
07FF80
1FFF80
380000
700000
E00000
E00000
C00000
FFFF80
FFFF80
C00000
E00000
E00000
700000
3C0000
1FFF80
07FF80
ENDCHAR
STARTCHAR 22F7
ENCODING 8951
SWIDTH 588 0
DWIDTH 20 0
BBX 12 17 4 2
BITMAP
7FF0
7FF0
7FF0
0000
0000
1FF0
7FF0
7000
E000
C000
FFF0
FFF0
E000
E000
7800
3FF0
0FF0
ENDCHAR
STARTCHAR 22F8
ENCODING 8952
SWIDTH 705 0
DWIDTH 24 0
BBX 17 21 4 0
BITMAP
03FF80
1FFF80
3F0000
700000
600000
E00000
C00000
FFFF80
FFFF80
C00000
E00000
E00000
700000
780000
3FFF80
0FFF80
000000
000000
000000
7FFF80
7FFF80
ENDCHAR
STARTCHAR 22F9
ENCODING 8953
SWIDTH 705 0
DWIDTH 24 0
BBX 17 16 4 1
BITMAP
07FF80
1FFF80
3C0000
700000
600000
FFFF80
FFFF80
C00000
C00000
FFFF80
FFFF80
FFFF80
700000
3C0000
1FFF80
0FFF80
ENDCHAR
STARTCHAR 22FA
ENCODING 8954
SWIDTH 764 0
DWIDTH 26 0
BBX 18 16 4 1
BITMAP
FFC000
FFF000
007800
001C00
000C00
000E00
000E00
FFFFC0
FFFFC0
000E00
000E00
000C00
001C00
007800
FFF000
FFE000
ENDCHAR
STARTCHAR 22FB
ENCODING 8955
SWIDTH 705 0
DWIDTH 24 0
BBX 17 16 4 1
BITMAP
FFE000
FFF800
003C00
000E00
000700
C00300
C00300
FFFF00
FFFF80
C00300
C00300
C00700
000E00
001E00
FFFC00
FFF000
ENDCHAR
STARTCHAR 22FC
ENCODING 8956
SWIDTH 588 0
DWIDTH 20 0
BBX 12 12 4 3
BITMAP
FF00
FFC0
01E0
0070
8070
FFF0
FFF0
8070
8070
00E0
FFC0
FF80
ENDCHAR
STARTCHAR 22FD
ENCODING 8957
SWIDTH 705 0
DWIDTH 24 0
BBX 17 21 4 0
BITMAP
FFFE00
FFFE00
000000
000000
000000
FFF000
FFFC00
001E00
000600
000700
000300
000300
FFFF80
FFFF80
000300
000300
000700
000E00
003E00
FFF800
FFE000
ENDCHAR
STARTCHAR 22FE
ENCODING 8958
SWIDTH 588 0
DWIDTH 20 0
BBX 12 17 4 2
BITMAP
FFE0
FFE0
FFE0
0000
0000
FF80
FFC0
00E0
0070
0070
FFF0
FFF0
0070
0070
01E0
FFC0
FF00
ENDCHAR
STARTCHAR 22FF
ENCODING 8959
SWIDTH 705 0
DWIDTH 24 0
BBX 16 16 4 1
BITMAP
FFFF
FFFF
C000
C000
C000
C000
C000
FFFF
FFFF
C000
C000
C000
C000
C000
FFFF
FFFF
ENDCHAR
STARTCHAR 2300
ENCODING 8960
SWIDTH 852 0
DWIDTH 29 0
BBX 22 20 3 2
BITMAP
01FF1C
07FFF8
0F01F0
1C00F0
3801F0
3803B8
700718
700E1C
601C1C
60381C
60701C
60E01C
71C01C
738018
3F0038
3E0070
1E00E0
3F03C0
77FF80
E1FE00
ENDCHAR
STARTCHAR 2301
ENCODING 8961
SWIDTH 852 0
DWIDTH 29 0
BBX 24 9 2 7
BITMAP
801C00
C01F00
F01F80
7819E0
1E18F0
0F983C
03D80F
00F807
007801
ENDCHAR
STARTCHAR 2302
ENCODING 8962
SWIDTH 882 0
DWIDTH 30 0
BBX 24 24 3 1
BITMAP
001800
007C00
00FF00
01E780
03C3C0
0701E0
1E0070
3C003C
78001E
F0000F
E00007
E00007
E00007
E00007
E00007
E00007
E00007
E00007
E00007
E00007
E00007
E00007
FFFFFF
FFFFFF
ENDCHAR
STARTCHAR 2303
ENCODING 8963
SWIDTH 676 0
DWIDTH 23 0
BBX 15 15 4 13
BITMAP
0100
0180
0380
03C0
06C0
06E0
0C60
1C70
1830
3838
3018
701C
600C
E00E
C006
ENDCHAR
STARTCHAR 2304
ENCODING 8964
SWIDTH 676 0
DWIDTH 23 0
BBX 15 14 4 -4
BITMAP
E006
600E
700C
301C
3018
1838
1830
0C70
0C60
06E0
06C0
03C0
0380
0180
ENDCHAR
STARTCHAR 2305
ENCODING 8965
SWIDTH 676 0
DWIDTH 23 0
BBX 15 19 4 0
BITMAP
FFFE
FFFE
0000
0000
0000
0180
0380
03C0
07C0
06E0
0E60
0C70
1C30
1838
3818
301C
700C
600E
E006
ENDCHAR
STARTCHAR 2306
ENCODING 8966
SWIDTH 676 0
DWIDTH 23 0
BBX 15 24 4 0
BITMAP
FFFE
FFFE
0000
0000
0000
FFFE
FFFE
0000
0000
0000
0180
0380
03C0
07C0
06E0
0E60
0C70
1C30
1838
3818
301C
700C
600E
E006
ENDCHAR
STARTCHAR 2307
ENCODING 8967
SWIDTH 352 0
DWIDTH 12 0
BBX 7 32 2 -5
BITMAP
10
38
1C
0E
06
06
06
0E
1C
38
70
60
E0
60
70
38
1C
0E
06
06
06
0E
1C
38
70
60
E0
60
60
70
3C
08
ENDCHAR
STARTCHAR 2308
ENCODING 8968
SWIDTH 588 0
DWIDTH 20 0
BBX 12 24 4 0
BITMAP
FFF0
FFF0
C000
C000
C000
C000
C000
C000
C000
C000
C000
C000
C000
C000
C000
C000
C000
C000
C000
C000
C000
C000
C000
C000
ENDCHAR
STARTCHAR 2309
ENCODING 8969
SWIDTH 588 0
DWIDTH 20 0
BBX 12 24 4 0
BITMAP
FFF0
FFF0
0030
0030
0030
0030
0030
0030
0030
0030
0030
0030
0030
0030
0030
0030
0030
0030
0030
0030
0030
0030
0030
0030
ENDCHAR
STARTCHAR 230A
ENCODING 8970
SWIDTH 588 0
DWIDTH 20 0
BBX 12 24 4 0
BITMAP
C000
C000
C000
C000
C000
C000
C000
C000
C000
C000
C000
C000
C000
C000
C000
C000
C000
C000
C000
C000
C000
C000
FFF0
FFF0
ENDCHAR
STARTCHAR 230B
ENCODING 8971
SWIDTH 588 0
DWIDTH 20 0
BBX 12 24 4 0
BITMAP
0030
0030
0030
0030
0030
0030
0030
0030
0030
0030
0030
0030
0030
0030
0030
0030
0030
0030
0030
0030
0030
0030
FFF0
FFF0
ENDCHAR
STARTCHAR 230C
ENCODING 8972
SWIDTH 588 0
DWIDTH 20 0
BBX 12 12 4 0
BITMAP
0FF0
0FF0
0000
0000
C000
C000
C000
C000
C000
C000
C000
C000
ENDCHAR
STARTCHAR 230D
ENCODING 8973
SWIDTH 588 0
DWIDTH 20 0
BBX 12 12 4 0
BITMAP
FF00
FF00
0000
0000
0070
0070
0070
0070
0070
0070
0070
0070
ENDCHAR
STARTCHAR 230E
ENCODING 8974
SWIDTH 588 0
DWIDTH 20 0
BBX 12 12 4 11
BITMAP
C000
C000
C000
C000
C000
C000
C000
C000
0000
0000
0FF0
0FF0
ENDCHAR
STARTCHAR 230F
ENCODING 8975
SWIDTH 588 0
DWIDTH 20 0
BBX 12 12 4 11
BITMAP
0070
0070
0070
0070
0070
0070
0070
0070
0000
0000
FF00
FF00
ENDCHAR
STARTCHAR 2310
ENCODING 8976
SWIDTH 676 0
DWIDTH 23 0
BBX 15 10 4 4
BITMAP
FFFE
FFFE
FFFE
C000
C000
C000
C000
C000
C000
C000
ENDCHAR
STARTCHAR 2311
ENCODING 8977
SWIDTH 352 0
DWIDTH 12 0
BBX 8 8 2 8
BITMAP
FF
81
C3
C3
C3
81
FF
81
ENDCHAR
STARTCHAR 2312
ENCODING 8978
SWIDTH 852 0
DWIDTH 29 0
BBX 21 10 4 10
BITMAP
01FC00
07FF00
1F0780
3C01C0
3800E0
700070
E00070
E00030
C00038
C00038
ENDCHAR
STARTCHAR 2313
ENCODING 8979
SWIDTH 852 0
DWIDTH 29 0
BBX 21 11 4 9
BITMAP
01FC00
07FF00
1F0780
3C01C0
3000E0
700070
E00030
E00030
C00038
FFFFF8
FFFFF8
ENDCHAR
STARTCHAR 2314
ENCODING 8980
SWIDTH 852 0
DWIDTH 29 0
BBX 18 13 5 7
BITMAP
03F800
0FFE00
3E0F00
780380
F001C0
780380
3C0700
1E0E00
0F1C00
07B800
01F000
00E000
004000
ENDCHAR
STARTCHAR 2315
ENCODING 8981
SWIDTH 764 0
DWIDTH 26 0
BBX 20 23 3 0
BITMAP
00F800
03FE00
0F8F80
1E03C0
1C01C0
3800E0
300060
300070
700070
700070
700070
300060
300060
3800E0
1C01C0
0E0380
0FFF00
0FFE00
1C2000
380000
700000
700000
E00000
ENDCHAR
STARTCHAR 2316
ENCODING 8982
SWIDTH 764 0
DWIDTH 26 0
BBX 22 24 2 0
BITMAP
003000
003000
003000
003000
003000
007800
01FE00
033300
063180
0430C0
0C30C0
FFFFFC
FFFFFC
0C30C0
0C30C0
063180
033180
01FF00
00FC00
003000
003000
003000
003000
003000
ENDCHAR
STARTCHAR 2317
ENCODING 8983
SWIDTH 794 0
DWIDTH 27 0
BBX 20 20 4 2
BITMAP
060600
060600
060600
060600
060600
FFFFF0
FFFFF0
060600
060600
060600
060600
060600
060600
FFFFF0
FFFFF0
060600
060600
060600
060600
060600
ENDCHAR
STARTCHAR 2318
ENCODING 8984
SWIDTH 794 0
DWIDTH 27 0
BBX 20 20 4 2
BITMAP
3C0380
7E0FE0
E70EE0
C30C70
C30C70
E30C60
FFFFE0
7FFFC0
030C00
030C00
030C00
030C00
7FFFC0
FFFFE0
E30C60
C30C70
C30C70
E70EE0
7E0FE0
3C0380
ENDCHAR
STARTCHAR 2319
ENCODING 8985
SWIDTH 676 0
DWIDTH 23 0
BBX 15 10 4 4
BITMAP
C000
C000
C000
C000
C000
C000
C000
C000
FFFE
FFFE
ENDCHAR
STARTCHAR 231A
ENCODING 8986
SWIDTH 852 0
DWIDTH 29 0
BBX 21 24 4 0
BITMAP
01F800
01F800
03FC00
0FFF00
1E0780
3C61C0
7076E0
700C70
E00C30
E01838
C03038
DDF1B8
DDE1B8
C00038
E00038
E00030
700070
7060E0
3871E0
1E03C0
0FFF00
03FE00
01F800
01F800
ENDCHAR
STARTCHAR 231B
ENCODING 8987
SWIDTH 588 0
DWIDTH 20 0
BBX 16 24 2 0
BITMAP
FFFF
FFFF
3FFC
3004
3004
3004
3004
300C
300C
180C
1C18
0E30
0E30
1C38
180C
37EC
300C
37F4
3FF4
3004
3FF4
3FFC
FFFF
FFFF
ENDCHAR
STARTCHAR 231C
ENCODING 8988
SWIDTH 588 0
DWIDTH 20 0
BBX 12 12 4 11
BITMAP
FFF0
FFF0
C000
C000
C000
C000
C000
C000
C000
C000
C000
C000
ENDCHAR
STARTCHAR 231D
ENCODING 8989
SWIDTH 588 0
DWIDTH 20 0
BBX 12 12 4 11
BITMAP
FFF0
FFF0
0070
0070
0070
0070
0070
0070
0070
0070
0070
0070
ENDCHAR
STARTCHAR 231E
ENCODING 8990
SWIDTH 588 0
DWIDTH 20 0
BBX 12 12 4 0
BITMAP
C000
C000
C000
C000
C000
C000
C000
C000
C000
C000
FFF0
FFF0
ENDCHAR
STARTCHAR 231F
ENCODING 8991
SWIDTH 588 0
DWIDTH 20 0
BBX 12 12 4 0
BITMAP
0070
0070
0070
0070
0070
0070
0070
0070
0070
0070
FFF0
FFF0
ENDCHAR
STARTCHAR 2320
ENCODING 8992
SWIDTH 529 0
DWIDTH 18 0
BBX 7 33 8 -7
BITMAP
3E
7E
E0
E0
E0
E0
E0
E0
E0
E0
E0
E0
E0
E0
E0
E0
E0
E0
E0
E0
E0
E0
E0
E0
E0
E0
E0
E0
E0
E0
E0
E0
E0
ENDCHAR
STARTCHAR 2321
ENCODING 8993
SWIDTH 529 0
DWIDTH 18 0
BBX 8 36 3 -8
BITMAP
07
07
07
07
07
07
07
07
07
07
07
07
07
07
07
07
07
07
07
07
07
07
07
07
07
07
07
07
07
07
07
06
0E
9E
FC
F8
ENDCHAR
STARTCHAR 2322
ENCODING 8994
SWIDTH 0 0
DWIDTH 0 0
BBX 26 6 -13 18
BITMAP
01FFC000
07FFF800
1F003E00
38000700
70000380
E00001C0
ENDCHAR
STARTCHAR 2323
ENCODING 8995
SWIDTH 0 0
DWIDTH 0 0
BBX 26 6 -13 -6
BITMAP
E00001C0
70000380
3C000F00
0F807C00
07FFF800
007F8000
ENDCHAR
STARTCHAR 2324
ENCODING 8996
SWIDTH 1000 0
DWIDTH 34 0
BBX 26 16 4 4
BITMAP
FF0C3FC0
FF0C3FC0
FF1E3FC0
001E0000
003F0000
00330000
00738000
00618000
00E1C000
00C0C000
01C0E000
01806000
03807000
03003000
07003800
06001800
ENDCHAR
STARTCHAR 2325
ENCODING 8997
SWIDTH 1000 0
DWIDTH 34 0
BBX 26 16 4 4
BITMAP
FF803FC0
FF803FC0
FFC03FC0
00E00000
00700000
00300000
00380000
001C0000
000E0000
00070000
00030000
00038000
0001C000
0000FFC0
00007FC0
00007FC0
ENDCHAR
STARTCHAR 2326
ENCODING 8998
SWIDTH 1294 0
DWIDTH 44 0
BBX 37 24 4 0
BITMAP
FFFFFFC000
FFFFFFE000
F800077000
DC000E3800
CE001C1C00
C700380E00
C380700700
C1C0E00380
C0E1C001C0
C0738000E0
C03F000070
C01E000038
C01E000038
C03F000070
C0738000E0
C0E1C001C0
C1C0E00380
C380700700
C700380E00
CE001C1C00
DC000E3800
F800077000
FFFFFFE000
FFFFFFC000
ENDCHAR
STARTCHAR 2327
ENCODING 8999
SWIDTH 1117 0
DWIDTH 38 0
BBX 30 24 4 0
BITMAP
FFFFFFFC
FFFFFFFC
CE0001CC
C700038C
C380070C
C1C00E0C
C0E01C0C
C070380C
C038700C
C01CE00C
C00FC00C
C007800C
C007800C
C00FC00C
C01CE00C
C038700C
C070380C
C0E01C0C
C1C00E0C
C380070C
C700038C
CE0001CC
FFFFFFFC
FFFFFFFC
ENDCHAR
STARTCHAR 2328
ENCODING 9000
SWIDTH 1117 0
DWIDTH 38 0
BBX 30 24 4 0
BITMAP
FFFFFFFC
FFFFFFFC
C000000C
C000000C
C000000C
C66319CC
C66319CC
C000000C
C000000C
C66319CC
C66319CC
C000000C
C000000C
C66319CC
C66319CC
C000000C
C000000C
C1FFFE0C
C1FFFE0C
C1FFFE0C
C000000C
C000000C
FFFFFFFC
FFFFFFFC
ENDCHAR
STARTCHAR 2329
ENCODING 9001
SWIDTH 294 0
DWIDTH 10 0
BBX 7 29 2 -6
BITMAP
06
06
0E
0C
0C
1C
18
38
30
30
70
60
60
E0
C0
C0
E0
60
60
30
30
38
18
18
1C
0C
0C
06
06
ENDCHAR
STARTCHAR 232A
ENCODING 9002
SWIDTH 294 0
DWIDTH 10 0
BBX 7 29 1 -6
BITMAP
C0
E0
60
60
70
30
30
38
18
1C
0C
0C
0E
06
06
06
06
0E
0C
1C
18
18
38
30
30
70
60
E0
C0
ENDCHAR
STARTCHAR 232B
ENCODING 9003
SWIDTH 1294 0
DWIDTH 44 0
BBX 38 24 2 0
BITMAP
000FFFFFFC
001FFFFFFC
003F0000FC
00738001DC
00E1C0039C
01C0E0071C
0380700E1C
0700381C1C
0E001C381C
1C000E701C
380007E01C
700003C01C
F00003C01C
780007E01C
3C000E701C
1E001C381C
0F00381C1C
0780700E1C
03C0E0071C
01E1C0039C
00F38001DC
007F0000FC
003FFFFFFC
001FFFFFFC
ENDCHAR
STARTCHAR 232C
ENCODING 9004
SWIDTH 882 0
DWIDTH 30 0
BBX 24 27 3 0
BITMAP
001800
007E00
01FF80
07C3E0
1F00F8
7C0C3E
F00F0F
C003C3
C000F3
CC0023
CC0003
CC0003
CC0003
CC0003
CC0003
CC0003
CC0003
CC0003
C000F3
C003E3
E00F87
780E1F
3E087C
0F81F0
03E7C0
00FF00
003C00
ENDCHAR
STARTCHAR 232D
ENCODING 9005
SWIDTH 823 0
DWIDTH 28 0
BBX 23 18 3 3
BITMAP
00700E
00601C
00E01C
01FC38
01FE30
03C770
0383E0
0703E0
0701C0
0F03C0
1F0380
1F8700
39FF00
30FE00
703E00
601C00
E01C00
C01800
ENDCHAR
STARTCHAR 232E
ENCODING 9006
SWIDTH 764 0
DWIDTH 26 0
BBX 20 17 4 2
BITMAP
01E000
07F800
0C0C00
180600
100300
300300
307FF0
30FFF0
318300
330300
1E0600
0C0600
1F3C00
B3F000
E00000
E00000
300000
ENDCHAR
STARTCHAR 232F
ENCODING 9007
SWIDTH 676 0
DWIDTH 23 0
BBX 15 12 4 4
BITMAP
1FF0
1FF0
1FF0
0000
0000
FFFE
FFFE
0000
0000
0000
1FF0
1FF0
ENDCHAR
STARTCHAR 2330
ENCODING 9008
SWIDTH 794 0
DWIDTH 27 0
BBX 22 24 2 0
BITMAP
004008
01C038
03E07C
01E03C
018030
018030
038070
030060
070060
0600E0
0600C0
0E01C0
0C0180
0C0180
1C0380
180300
180300
380700
300600
700600
600E00
600C00
FFFC00
FFF800
ENDCHAR
STARTCHAR 2331
ENCODING 9009
SWIDTH 882 0
DWIDTH 30 0
BBX 23 24 6 0
BITMAP
030000
030000
030000
030000
030000
078000
1FE000
333000
631800
430C08
C30C04
C3FFFE
C3FFFE
C30C0C
430C08
631800
333800
1FF000
0FC000
030000
030000
030000
030000
030000
ENDCHAR
STARTCHAR 2332
ENCODING 9010
SWIDTH 882 0
DWIDTH 30 0
BBX 22 22 4 -1
BITMAP
800000
E00000
F80000
FE0000
C78000
C1F000
C07C00
C01F00
C007C0
C001F0
FFFFFC
FFFFFC
C001F0
C007C0
C01F00
C07C00
C1E000
CF8000
FE0000
F80000
E00000
800000
ENDCHAR
STARTCHAR 2333
ENCODING 9011
SWIDTH 882 0
DWIDTH 30 0
BBX 22 12 4 9
BITMAP
800000
E00000
F80000
FE0000
C78000
C1F000
C07C00
C01F00
C007C0
C001F0
FFFFFC
FFFFFC
ENDCHAR
STARTCHAR 2334
ENCODING 9012
SWIDTH 794 0
DWIDTH 27 0
BBX 20 12 4 0
BITMAP
C00070
C00070
C00070
C00070
C00070
C00070
C00070
C00070
C00070
C00070
FFFFF0
FFFFF0
ENDCHAR
STARTCHAR 2335
ENCODING 9013
SWIDTH 794 0
DWIDTH 27 0
BBX 23 12 2 -1
BITMAP
E0000E
70001C
380038
1C0070
0E00E0
0701C0
038380
01C700
00EE00
007C00
007800
003000
ENDCHAR
STARTCHAR 2336
ENCODING 9014
SWIDTH 794 0
DWIDTH 27 0
BBX 20 24 4 0
BITMAP
FFFFF0
FFFFF0
006000
006000
006000
006000
006000
006000
006000
006000
006000
006000
006000
006000
006000
006000
006000
006000
006000
006000
006000
006000
FFFFF0
FFFFF0
ENDCHAR
STARTCHAR 2337
ENCODING 9015
SWIDTH 588 0
DWIDTH 20 0
BBX 12 24 4 0
BITMAP
FFF0
FFF0
C030
C030
C030
C030
C030
C030
C030
C030
C030
C030
C030
C030
C030
C030
C030
C030
C030
C030
C030
C030
FFF0
FFF0
ENDCHAR
STARTCHAR 2338
ENCODING 9016
SWIDTH 794 0
DWIDTH 27 0
BBX 20 24 4 0
BITMAP
FFFFF0
FFFFF0
C00070
C00070
C00070
C00070
C00070
DFFF70
DFFF70
DFFF70
C00070
C00070
C00070
C00070
C00070
DFFF70
DFFF70
C00070
C00070
C00070
C00070
C00070
FFFFF0
FFFFF0
ENDCHAR
STARTCHAR 2339
ENCODING 9017
SWIDTH 794 0
DWIDTH 27 0
BBX 20 24 4 0
BITMAP
FFFFF0
FFFFF0
C00070
C00070
C00070
C0E070
C0E070
C0E070
C00070
C00070
C00070
DFFF70
DFFF70
C00070
C00070
C00070
C0E070
C0E070
C0E070
C00070
C00070
C00070
FFFFF0
FFFFF0
ENDCHAR
STARTCHAR 233A
ENCODING 9018
SWIDTH 794 0
DWIDTH 27 0
BBX 20 24 4 0
BITMAP
FFFFF0
FFFFF0
C00070
C00070
C04070
C0E070
C1F070
C1B870
C31C70
C60E70
CC0770
D803F0
F803F0
DC0770
CE0E70
C71C70
C3B870
C1F070
C0E070
C04070
C00070
C00070
FFFFF0
FFFFF0
ENDCHAR
STARTCHAR 233B
ENCODING 9019
SWIDTH 794 0
DWIDTH 27 0
BBX 20 24 4 0
BITMAP
FFFFF0
FFFFF0
C00070
C00070
C00070
C00070
C0E070
C3F870
C7BC70
C60E70
CE0670
CC0670
CC0670
CE0670
CE0E70
C79C70
C3F870
C0F070
C00070
C00070
C00070
C00070
FFFFF0
FFFFF0
ENDCHAR
STARTCHAR 233C
ENCODING 9020
SWIDTH 794 0
DWIDTH 27 0
BBX 20 24 4 0
BITMAP
FFFFF0
FFFFF0
C00070
C00070
C04070
C3FC70
CFFE70
CE0770
D803F0
F801F0
F001F0
F001F0
F001F0
F001F0
F801F0
D803F0
DC0770
CFBE70
C7FC70
C0F070
C00070
C00070
FFFFF0
FFFFF0
ENDCHAR
STARTCHAR 233D
ENCODING 9021
SWIDTH 852 0
DWIDTH 29 0
BBX 21 28 4 -2
BITMAP
006000
006000
006000
006000
03FE00
0FFF00
1E63C0
3861E0
7060E0
706070
E06030
E06038
C06038
C06038
C06038
C06038
E06038
E06030
706070
7060E0
3C61C0
1E6780
0FFF00
03FC00
006000
006000
006000
006000
ENDCHAR
STARTCHAR 233E
ENCODING 9022
SWIDTH 852 0
DWIDTH 29 0
BBX 21 20 4 2
BITMAP
03FE00
0FFF80
1E03C0
3801E0
70F8E0
73FC70
E38E30
E70738
C60338
C60338
C60338
C60738
E70638
E3FE30
71FC70
7020E0
3C01C0
1F0780
07FF00
03FC00
ENDCHAR
STARTCHAR 233F
ENCODING 9023
SWIDTH 382 0
DWIDTH 13 0
BBX 14 28 0 -4
BITMAP
001C
0038
0038
0030
0070
0060
00E0
00E0
00C0
01C0
0180
0380
0380
FFF8
FFF8
0600
0E00
0E00
0C00
1C00
1800
3800
3000
7000
7000
6000
E000
C000
ENDCHAR
STARTCHAR 2340
ENCODING 9024
SWIDTH 382 0
DWIDTH 13 0
BBX 13 28 0 -4
BITMAP
E000
E000
6000
7000
3000
3800
3800
1800
1C00
0C00
0E00
0E00
0600
FFF8
FFF8
0380
0380
0180
01C0
00C0
00E0
00E0
0060
0070
0030
0038
0038
0018
ENDCHAR
STARTCHAR 2341
ENCODING 9025
SWIDTH 794 0
DWIDTH 27 0
BBX 20 24 4 0
BITMAP
FFFFF0
FFFFF0
C000F0
C001F0
C003F0
C00370
C00770
C00E70
C01C70
C03870
C03070
C07070
C0E070
C1C070
C38070
C30070
C70070
CE0070
DC0070
F80070
F00070
F00070
FFFFF0
FFFFF0
ENDCHAR
STARTCHAR 2342
ENCODING 9026
SWIDTH 794 0
DWIDTH 27 0
BBX 20 24 4 0
BITMAP
FFFFF0
FFFFF0
E00070
F00070
F80070
DC0070
CE0070
C60070
C70070
C38070
C1C070
C0E070
C06070
C07070
C03870
C01C70
C00E70
C00670
C00770
C003F0
C001F0
C000F0
FFFFF0
FFFFF0
ENDCHAR
STARTCHAR 2343
ENCODING 9027
SWIDTH 794 0
DWIDTH 27 0
BBX 20 24 4 0
BITMAP
FFFFF0
FFFFF0
C00070
C00070
C00070
C001F0
C007F0
C01E70
C07C70
C0F070
C3C070
CF0070
FC0070
CF0070
C3E070
C0F870
C03E70
C00FF0
C003F0
C000F0
C00070
C00070
FFFFF0
FFFFF0
ENDCHAR
STARTCHAR 2344
ENCODING 9028
SWIDTH 794 0
DWIDTH 27 0
BBX 20 24 4 0
BITMAP
FFFFF0
FFFFF0
C00070
C00070
E00070
F80070
FC0070
CF0070
C3C070
C0F070
C03C70
C01E70
C007F0
C01E70
C07870
C1E070
C78070
DE0070
F80070
E00070
C00070
C00070
FFFFF0
FFFFF0
ENDCHAR
STARTCHAR 2345
ENCODING 9029
SWIDTH 794 0
DWIDTH 27 0
BBX 22 24 2 0
BITMAP
001800
001800
001800
001800
001800
001800
001800
041800
0C1800
1C1800
381800
7FFFFC
FFFFFC
7FFFFC
381800
1C1800
0C1800
041800
001800
001800
001800
001800
001800
001800
ENDCHAR
STARTCHAR 2346
ENCODING 9030
SWIDTH 794 0
DWIDTH 27 0
BBX 21 24 4 0
BITMAP
006000
006000
006000
006000
006000
006000
006000
006000
006080
0060C0
006060
FFFFF0
FFFFF8
FFFFF0
006060
0060C0
006080
006000
006000
006000
006000
006000
006000
006000
ENDCHAR
STARTCHAR 2347
ENCODING 9031
SWIDTH 794 0
DWIDTH 27 0
BBX 20 24 4 0
BITMAP
FFFFF0
FFFFF0
C00070
C00070
C00070
C00070
C00070
C00070
C20070
C60070
CC0070
DFFFF0
FFFFF0
DFFFF0
CC0070
C60070
C20070
C00070
C00070
C00070
C00070
C00070
FFFFF0
FFFFF0
ENDCHAR
STARTCHAR 2348
ENCODING 9032
SWIDTH 794 0
DWIDTH 27 0
BBX 20 24 4 0
BITMAP
FFFFF0
FFFFF0
C00070
C00070
C00070
C00070
C00070
C00870
C00C70
C00C70
C00670
FFFF70
FFFFF0
FFFF70
C00770
C00E70
C00C70
C00870
C00070
C00070
C00070
C00070
FFFFF0
FFFFF0
ENDCHAR
STARTCHAR 2349
ENCODING 9033
SWIDTH 852 0
DWIDTH 29 0
BBX 21 28 4 -1
BITMAP
0C0000
0E0000
0E0000
060000
07FE00
0FFF80
1F83C0
3B81E0
7180E0
71C070
E0C030
E0E038
C06038
C06038
C07038
C03038
E03830
E01830
701870
701CE0
3C0DC0
1F0F80
07FF00
03FE00
000700
000300
000380
000180
ENDCHAR
STARTCHAR 234A
ENCODING 9034
SWIDTH 705 0
DWIDTH 24 0
BBX 22 29 1 -5
BITMAP
003000
003000
003000
003000
003000
003000
003000
003000
003000
003000
003000
003000
003000
003000
003000
003000
003000
003000
003000
003000
003000
003000
FFFFFC
FFFFFC
000000
000000
000000
FFFFFC
FFFFFC
ENDCHAR
STARTCHAR 234B
ENCODING 9035
SWIDTH 823 0
DWIDTH 28 0
BBX 20 34 4 -5
BITMAP
006000
006000
006000
006000
006000
00F000
00F000
00F000
01F800
01F800
03FC00
03FC00
076C00
076E00
066E00
0E6700
0E6700
1C6700
1C6380
1C6380
3861C0
3861C0
7061C0
7060E0
7060E0
FFFFF0
FFFFF0
FFFFF0
006000
006000
006000
006000
006000
006000
ENDCHAR
STARTCHAR 234C
ENCODING 9036
SWIDTH 794 0
DWIDTH 27 0
BBX 20 24 4 0
BITMAP
FFFFF0
FFFFF0
C00070
C00070
C00070
E00070
E000F0
F001F0
F801F0
D803F0
DC0370
CC0670
C60E70
C70C70
C31C70
C39870
C1B870
C0F070
C0E070
C06070
C00070
C00070
FFFFF0
FFFFF0
ENDCHAR
STARTCHAR 234D
ENCODING 9037
SWIDTH 794 0
DWIDTH 27 0
BBX 20 24 4 0
BITMAP
FFFFF0
FFFFF0
C00070
C00070
C06070
C0E070
C0F070
C0F070
C1B070
C19870
C31870
C31870
C30C70
C60C70
C60E70
CE0670
CC0670
CC0370
DFFF70
DFFF70
C00070
C00070
FFFFF0
FFFFF0
ENDCHAR
STARTCHAR 234E
ENCODING 9038
SWIDTH 705 0
DWIDTH 24 0
BBX 22 24 1 0
BITMAP
003000
003000
003000
003000
003000
003000
00F800
01FE00
03BF00
073700
073300
063300
063300
073300
033700
03FE00
01FC00
007000
003000
003000
003000
003000
FFFFFC
FFFFFC
ENDCHAR
STARTCHAR 234F
ENCODING 9039
SWIDTH 882 0
DWIDTH 30 0
BBX 22 24 4 1
BITMAP
003000
007800
00FC00
01B600
033300
003000
003000
003000
003000
003000
FFFFFC
FFFFFC
003000
003000
003000
003000
003000
003000
003000
003000
003000
003000
003000
003000
ENDCHAR
STARTCHAR 2350
ENCODING 9040
SWIDTH 794 0
DWIDTH 27 0
BBX 20 24 4 0
BITMAP
FFFFF0
FFFFF0
C04070
C06070
C1F070
C3F870
C76C70
CE6670
C06070
C06070
C06070
C06070
C06070
C06070
C06070
C06070
C06070
C06070
C06070
C06070
C06070
C06070
FFFFF0
FFFFF0
ENDCHAR
STARTCHAR 2351
ENCODING 9041
SWIDTH 705 0
DWIDTH 24 0
BBX 22 29 1 0
BITMAP
FFFFFC
FFFFFC
000000
000000
000000
FFFFFC
FFFFFC
003000
003000
003000
003000
003000
003000
003000
003000
003000
003000
003000
003000
003000
003000
003000
003000
003000
003000
003000
003000
003000
003000
ENDCHAR
STARTCHAR 2352
ENCODING 9042
SWIDTH 823 0
DWIDTH 28 0
BBX 20 34 4 -5
BITMAP
006000
006000
006000
006000
FFFFF0
FFFFF0
FFFFF0
7060E0
7060E0
7060C0
3861C0
3861C0
1C6380
1C6380
1C6300
0E6700
0E6700
076600
076E00
076C00
03FC00
03FC00
01F800
01F800
01F000
00F000
00F000
006000
006000
006000
006000
006000
006000
006000
ENDCHAR
STARTCHAR 2353
ENCODING 9043
SWIDTH 794 0
DWIDTH 27 0
BBX 20 24 4 0
BITMAP
FFFFF0
FFFFF0
C00070
C00070
C06070
C0E070
C0F070
C1B070
C39870
C31C70
C70C70
C60E70
CC0670
CC0370
D80370
F801F0
F001F0
F000F0
E00070
C00070
C00070
C00070
FFFFF0
FFFFF0
ENDCHAR
STARTCHAR 2354
ENCODING 9044
SWIDTH 794 0
DWIDTH 27 0
BBX 20 24 4 0
BITMAP
FFFFF0
FFFFF0
C00070
C00070
DFFF70
DFFF70
CC0370
CC0670
CE0670
C60670
C60C70
C30C70
C31C70
C31870
C19870
C1B070
C1B070
C0F070
C0E070
C06070
C00070
C00070
FFFFF0
FFFFF0
ENDCHAR
STARTCHAR 2355
ENCODING 9045
SWIDTH 705 0
DWIDTH 24 0
BBX 22 24 1 0
BITMAP
FFFFFC
FFFFFC
003000
003000
003000
003000
00F800
01FE00
03B700
073300
063300
063380
063380
073300
033700
03FE00
01FC00
007000
003000
003000
003000
003000
003000
003000
ENDCHAR
STARTCHAR 2356
ENCODING 9046
SWIDTH 705 0
DWIDTH 24 0
BBX 22 24 1 -1
BITMAP
003000
003000
003000
003000
003000
003000
003000
003000
003000
003000
003000
003000
FFFFFC
FFFFFC
003000
003000
003000
003000
003000
033300
01B600
00FC00
007800
003000
ENDCHAR
STARTCHAR 2357
ENCODING 9047
SWIDTH 794 0
DWIDTH 27 0
BBX 20 24 4 0
BITMAP
FFFFF0
FFFFF0
C06070
C06070
C06070
C06070
C06070
C06070
C06070
C06070
C06070
C06070
C06070
C06070
C06070
C06070
CE6670
C76C70
C3F870
C1F070
C0E070
C04070
FFFFF0
FFFFF0
ENDCHAR
STARTCHAR 2358
ENCODING 9048
SWIDTH 235 0
DWIDTH 8 0
BBX 8 29 0 -5
BITMAP
38
18
18
18
18
18
18
18
00
00
00
00
00
00
00
00
00
00
00
00
00
00
00
00
00
00
00
FF
FF
ENDCHAR
STARTCHAR 2359
ENCODING 9049
SWIDTH 823 0
DWIDTH 28 0
BBX 20 29 4 -5
BITMAP
00E000
00F000
00F000
01F800
01B800
039800
039C00
031C00
070E00
070E00
0E0E00
0E0700
0E0700
1C0380
1C0380
1C0380
3801C0
3801C0
7001C0
7000E0
7000E0
FFFFF0
FFFFF0
FFFFF0
000000
000000
000000
FFFFF0
FFFFF0
ENDCHAR
STARTCHAR 235A
ENCODING 9050
SWIDTH 852 0
DWIDTH 29 0
BBX 23 29 3 -5
BITMAP
001000
003800
007C00
00EE00
01C700
038380
0701C0
0E00E0
1C0070
380038
70001C
E0000E
E0000E
70001C
380038
1C0070
0E00E0
0701C0
038380
01C700
00EE00
007C00
003800
001000
000000
000000
000000
7FFFFC
7FFFFC
ENDCHAR
STARTCHAR 235B
ENCODING 9051
SWIDTH 441 0
DWIDTH 15 0
BBX 11 23 2 -4
BITMAP
1F00
7F80
71C0
E0E0
C0E0
C060
C060
C0E0
E0C0
7FC0
3F80
0400
0000
0000
0000
0000
0000
0000
0000
0000
0000
7FC0
7FC0
ENDCHAR
ENDFONT
